<svg width="226" height="28" viewBox="0 0 226 28" fill="none" xmlns="http://www.w3.org/2000/svg">
<path d="M156 0H155V27H156V0Z" fill="#CFCFCF"/>
<path fill-rule="evenodd" clip-rule="evenodd" d="M175.4 16.2998L176.2 10.4998L177.3 2.2998H170.4L168.5 16.2998L168.2 18.4998L168 19.6998C169.5 18.8998 171.2 18.4998 173 18.4998H175L175.2 16.6998L175.4 16.2998ZM178.2 8.9998H183.5C185.8 8.9998 187.4 10.7998 187 13.0998L186.6 16.0998C186.3 18.3998 184.2 20.1998 181.9 20.1998H183.6C188.2 20.1998 192.2 17.2998 193.8 13.1998C193.8 7.39981 189 2.2998 182.9 2.2998H179.1L178.2 8.9998Z" fill="#0456A2"/>
<path fill-rule="evenodd" clip-rule="evenodd" d="M165.6 23.0002C164.4 24.1002 163.4 25.4002 162.8 26.9002H182.6C185.4 26.9002 187.9 25.8002 189.8 24.1002C191.7 22.4002 192.9 20.1002 193.3 17.6002L193.7 14.6002C193.8 14.1002 193.8 13.7002 193.8 13.2002C192.2 17.3002 188.3 20.2002 183.6 20.2002H172.8C170.1 20.2002 167.5 21.3002 165.6 23.0002Z" fill="#F07F1C"/>
<path fill-rule="evenodd" clip-rule="evenodd" d="M207 12.6998H202C200.4 12.6998 199.3 11.3998 199.5 9.7998L199.8 7.6998C200 6.0998 201.5 4.7998 203.1 4.7998H201.9C198.6 4.7998 195.8 6.8998 194.7 9.7998C194.7 13.8998 198.1 17.4998 202.4 17.4998H208L208.6 12.7998H207V12.6998ZM209.2 17.3998H210.5L211.1 12.6998H209.8L209.2 17.3998Z" fill="#0456A2"/>
<path fill-rule="evenodd" clip-rule="evenodd" d="M212.6 2.8C213.4 2 214.1 1.1 214.6 0H202.6C200.6 0 198.8 0.7 197.5 2C196.2 3.2 195.3 4.8 195 6.6L194.7 8.7C194.7 9 194.6 9.4 194.6 9.7C195.7 6.8 198.5 4.7 201.8 4.7H207.4C209.4 4.7 211.2 4 212.6 2.8Z" fill="#F07F1C"/>
<path d="M217 16.9002C217 17.0002 217 17.2002 216.9 17.3002C216.8 17.4002 216.7 17.4002 216.5 17.4002H214.8C214.7 17.4002 214.5 17.4002 214.4 17.3002C214.3 17.2002 214.3 17.1002 214.3 16.9002V11.2002C214.3 11.1002 214.3 10.9002 214.4 10.8002C214.5 10.7002 214.6 10.7002 214.8 10.7002H216.5C216.6 10.7002 216.8 10.7002 216.9 10.8002C217 10.9002 217 11.0002 217 11.2002V12.7002H216.4V11.2002H214.9V16.8002H216.4V15.2002H217V16.9002ZM218.7 17.4002H218.1V10.7002H218.7V17.4002ZM222.1 11.2002H221.1V17.4002H220.5V11.2002H219.5V10.7002H222.2V11.2002H222.1ZM225.5 10.7002L224.7 13.4002C224.6 13.7002 224.5 14.1002 224.3 14.8002V17.4002H223.7V14.8002C223.7 14.6002 223.6 14.4002 223.5 14.1002C223.4 13.7002 223.3 13.5002 223.3 13.4002L222.5 10.7002H223.1L224 14.1002L224.9 10.7002H225.5Z" fill="#0456A2"/>
<path d="M199.9 25.7002C199.9 26.1002 199.8 26.3002 199.6 26.6002C199.4 26.8002 199.1 26.9002 198.7 26.9002H197.2V20.2002H198.7C199.1 20.2002 199.3 20.3002 199.6 20.5002C199.8 20.7002 199.9 21.0002 199.9 21.4002V25.7002ZM199.3 25.7002V21.5002C199.3 21.3002 199.2 21.1002 199.1 21.0002C199 20.9002 198.8 20.8002 198.6 20.8002H197.8V26.4002H198.6C198.8 26.4002 199 26.3002 199.2 26.2002C199.2 26.1002 199.3 25.9002 199.3 25.7002ZM203.7 26.5002C203.7 26.6002 203.7 26.8002 203.6 26.9002C203.5 27.0002 203.4 27.0002 203.2 27.0002H201.4C201.3 27.0002 201.1 27.0002 201 26.9002C200.9 26.8002 200.9 26.7002 200.9 26.5002V20.3002H201.5V26.5002H203.1V20.3002H203.7V26.5002V26.5002ZM207.4 26.5002C207.4 26.6002 207.4 26.8002 207.3 26.9002C207.2 27.0002 207.1 27.0002 206.9 27.0002H205.3C205.2 27.0002 205 27.0002 204.9 26.9002C204.8 26.8002 204.8 26.7002 204.8 26.5002V24.8002H205.4V26.4002H206.8V24.8002L205 22.6002C204.9 22.4002 204.8 22.3002 204.8 22.1002V20.8002C204.8 20.7002 204.8 20.5002 204.9 20.4002C205 20.3002 205.1 20.3002 205.3 20.3002H206.9C207 20.3002 207.2 20.3002 207.3 20.4002C207.4 20.5002 207.4 20.6002 207.4 20.8002V22.3002H206.8V20.8002H205.4V22.2002L207.3 24.4002C207.4 24.5002 207.5 24.7002 207.5 24.9002V26.5002H207.4ZM211.2 27.0002H210.6V23.8002H209V27.0002H208.4V20.3002H209V23.2002H210.6V20.3002H211.2V27.0002ZM215 27.0002H214.4L214.2 25.5002H212.9L212.7 27.0002H212L213.2 20.3002H213.8L215 27.0002ZM214.1 24.9002L213.5 21.3002L212.9 24.9002H214.1ZM218.5 27.0002H218.1L216.3 22.1002V27.0002H215.7V20.3002H216.1L217.9 25.1002V20.3002H218.5V27.0002ZM222.3 26.5002C222.3 26.6002 222.3 26.8002 222.2 26.9002C222.1 27.0002 222 27.0002 221.8 27.0002H219.6V20.3002H221.8C221.9 20.3002 222.1 20.3002 222.2 20.4002C222.3 20.5002 222.3 20.6002 222.3 20.8002V23.0002C222.3 23.1002 222.2 23.2002 222.1 23.3002C221.9 23.4002 221.8 23.4002 221.6 23.5002L222.1 23.7002C222.2 23.8002 222.3 23.9002 222.3 24.0002V26.5002ZM221.7 22.8002V20.8002H220.2V23.2002H221.1L221.7 22.8002ZM221.7 26.4002V24.1002L221.1 23.7002H220.2V26.4002H221.7ZM225.5 27.0002H223.3V20.3002H225.5V20.8002H223.9V23.3002H225.3V23.8002H223.9V26.4002H225.5V27.0002Z" fill="#0456A2"/>
<path fill-rule="evenodd" clip-rule="evenodd" d="M3.66038 0H23.657C25.6703 0 27.3174 1.64495 27.3174 3.65558V23.626C27.3174 25.6366 25.6703 27.2815 23.657 27.2815H3.66038C1.64728 27.2815 0 25.6366 0 23.626V3.65558C0 1.64495 1.64728 0 3.66038 0V0Z" fill="#E31E24"/>
<path fill-rule="evenodd" clip-rule="evenodd" d="M23.9137 16.378L17.4227 16.3577L17.4251 23.6403C16.9257 24.6525 16.6792 25.279 14.2926 25.4279H12.9501C10.8403 25.3949 9.70571 24.3099 9.70571 23.4168V16.2662H7.0208C6.41984 16.2662 5.90211 15.5789 5.90211 15.0373V14.3669C5.90211 13.7821 6.40179 13.1378 7.0208 13.1378H9.70571V6.32255C7.85421 6.47643 5.119 10.3895 5.119 12.4676V13.473C5.119 15.746 6.79703 17.579 6.79703 18.8359C6.79703 19.6768 6.21262 20.2884 5.3426 20.2884H4.89523C3.26382 20.2884 2.24407 16.9708 1.8739 15.4849C0.4524 9.78035 5.02976 1.85352 11.3837 1.85352H11.6077C12.3457 1.85352 12.8382 2.65379 12.8382 3.41769V13.1378L14.0952 13.1375L13.957 3.64116V2.97073C13.957 2.24506 14.6753 1.85352 15.4113 1.85352C19.2759 1.85352 23.2138 5.00038 24.6009 8.5413C25.3404 10.4293 25.7037 12.0395 25.7037 14.0318C25.7037 15.3783 24.7588 16.1766 23.9137 16.378V16.378ZM17.3132 12.9145H22.0119C21.7598 9.8885 19.9057 6.70225 17.3132 6.09908V12.9145ZM13.0619 21.5175H14.0688V16.6015C14.0688 16.344 13.9909 16.2662 13.7333 16.2662H13.0619V21.5175Z" fill="#FEFEFE"/>
<path fill-rule="evenodd" clip-rule="evenodd" d="M126.748 26.6152L129.098 26.3918H131.671V25.7008H130.552L130.547 15.6323L127.755 16.001H125.406V16.5598H125.965V22.8165C125.965 23.656 125.68 24.8276 124.846 24.8276H124.735C124.373 24.8276 124.175 24.422 124.175 24.0453L124.179 15.6964L120.707 16.001H118.582V16.5598H119.588V23.0399C119.588 24.6952 120.309 26.7269 121.826 26.7269H123.057C124.793 26.7269 125.504 25.4778 126.077 24.7158V26.7269L126.748 26.6152Z" fill="#E31E24"/>
<path fill-rule="evenodd" clip-rule="evenodd" d="M37.0255 20.5823L33.5358 20.5816L35.2355 15.3399C35.3357 15.0316 35.8845 17.0875 37.0255 20.5823ZM29.8657 25.7216V26.392H33.6695V25.7216C33.0649 25.7216 32.1893 25.615 32.1893 25.0637L33.3078 21.3642H37.2411L38.7036 25.7216H37.2493V26.392H45.7518V25.7216H44.9687L39.7105 11.0854H35.7949L33.2846 18.8572C32.7502 20.4456 31.3927 25.6021 29.8657 25.7216V25.7216Z" fill="#E31E24"/>
<path fill-rule="evenodd" clip-rule="evenodd" d="M85.5791 23.3755H92.2916V19.0181H85.5791V23.3755Z" fill="#E31E24"/>
<path fill-rule="evenodd" clip-rule="evenodd" d="M47.094 21.3642H46.5347L46.5225 26.7271H47.094C47.3029 26.6168 49.0683 25.8334 49.2196 25.8334C49.4311 25.8334 50.6045 26.415 51.0756 26.5496C51.9458 26.7979 52.5342 26.7271 53.5827 26.7271C55.8809 26.6761 57.9458 24.4997 57.9458 22.1463V21.2525C57.9458 16.7349 49.7789 15.2167 49.7789 13.3199C49.7806 13.1226 49.7801 12.9368 49.7789 12.7613C49.7789 12.0242 50.5804 11.5322 51.3453 11.5322H51.9047C54.516 11.5322 56.2524 15.8896 56.7151 15.8896H57.0509L57.0818 10.862H56.4914C55.727 11.0399 55.0476 11.6439 54.254 11.6439C53.9477 11.6439 52.7695 10.862 52.1283 10.862C51.8904 10.8468 51.6246 10.8209 51.1214 10.862C48.2571 11.0304 46.5347 13.1652 46.5347 16.0013V16.1131C46.5347 21.3926 54.4776 21.9609 54.4776 24.4925V24.6044C54.4776 25.4086 53.6644 26.0567 52.7996 26.0567H51.9047C49.945 26.0567 47.4767 23.0051 47.094 21.3642V21.3642Z" fill="#E31E24"/>
<path fill-rule="evenodd" clip-rule="evenodd" d="M101.577 11.7557H102.36C103.61 11.7557 103.926 12.8643 103.926 14.102V16.7835C103.926 18.2614 103.619 19.3531 102.136 19.3531H101.577V11.7557V11.7557ZM109.856 15.6661C109.856 12.0466 107.431 11.0854 103.814 11.0854H94.1934V11.6439H95.8716V25.7216H94.1934V26.392H103.367V25.7216H101.577V20.0235H104.933C107.77 20.0235 109.856 18.4742 109.856 15.6661V15.6661Z" fill="#E31E24"/>
<path fill-rule="evenodd" clip-rule="evenodd" d="M60.9668 11.6582V25.7216H59.1768V26.392H68.3504V25.7216H66.5604V11.6439H68.3504V11.0854H59.2886V11.3088V11.6439L60.9668 11.6582Z" fill="#E31E24"/>
<path fill-rule="evenodd" clip-rule="evenodd" d="M111.981 25.7215L110.75 25.7205V26.3805H117.687L117.683 25.7215H116.568V10.75L113.398 11.0416L110.862 11.0853V11.6437H111.981V25.7215Z" fill="#E31E24"/>
<path fill-rule="evenodd" clip-rule="evenodd" d="M76.0216 20.5823L72.5319 20.5816L74.2318 15.3399C74.3318 15.0316 74.8806 17.0875 76.0216 20.5823V20.5823ZM68.8618 25.7216V26.392H72.6656V25.7216C72.061 25.7216 71.1854 25.615 71.1854 25.0637L72.3039 21.3642H76.2372L77.6997 25.7216H76.2454V26.392H84.7479V25.7216H83.9648L78.7066 11.0854H74.791L72.2807 18.8572C71.7463 20.4456 70.3888 25.6021 68.8618 25.7216V25.7216Z" fill="#E31E24"/>
<path fill-rule="evenodd" clip-rule="evenodd" d="M133.232 22.909H132.78L132.77 26.614H133.232C133.401 26.5379 134.827 25.9967 134.949 25.9967C135.12 25.9967 136.068 26.3984 136.449 26.4914C137.152 26.6631 137.627 26.614 138.475 26.614C140.332 26.5788 142 25.0752 142 23.4495V22.8319C142 19.7108 135.401 18.662 135.401 17.3515C135.402 17.2153 135.402 17.087 135.401 16.9656C135.401 16.4566 136.049 16.1166 136.667 16.1166H137.119C139.229 16.1166 140.632 19.127 141.006 19.127H141.277L141.302 15.6535H140.825C140.207 15.7765 139.658 16.1937 139.017 16.1937C138.77 16.1937 137.818 15.6535 137.3 15.6535C137.107 15.643 136.893 15.6251 136.486 15.6535C134.172 15.7698 132.78 17.2447 132.78 19.2041V19.2813C132.78 22.9287 139.198 23.3213 139.198 25.0704V25.1475C139.198 25.7033 138.541 26.1509 137.842 26.1509H137.119C135.536 26.1509 133.541 24.0428 133.232 22.909V22.909Z" fill="#E31E24"/>
<path d="M34.8171 6.51281L33.3882 2.34386H33.3623V5.7601C33.3623 6.00577 33.4129 6.16283 33.515 6.23242C33.6173 6.30302 33.742 6.3379 33.8892 6.3379H34.0105V6.51281H32.6636V6.3379C32.8624 6.3379 32.9961 6.27732 33.0613 6.15732C33.1275 6.03715 33.1601 5.9048 33.1601 5.7601V1.98252H32.6636V1.80094H35.2024L35.8574 3.7216H35.8843L36.5584 1.80094H39.1051V1.98252H38.6051V6.3379H39.1051V6.51281H36.0708V6.3379H36.5708V2.36405H36.5449L35.1002 6.51281H34.8171V6.51281ZM43.4133 5.5413L43.5413 5.65345C43.3548 5.91148 43.1537 6.10909 42.938 6.24694C42.7212 6.3838 42.51 6.47593 42.3011 6.52299C42.0932 6.57006 41.8776 6.59359 41.6528 6.59359C41.2417 6.59359 40.8778 6.52299 40.5609 6.38046C40.2454 6.23793 40.0026 6.03715 39.8331 5.77913C39.6635 5.5211 39.5781 5.22603 39.5781 4.89507C39.5781 4.61568 39.6476 4.3443 39.787 4.0806C39.9263 3.81807 40.1476 3.60377 40.4509 3.43771C40.7553 3.27048 41.1361 3.18753 41.5945 3.18753C42.0416 3.18753 42.4089 3.27732 42.6965 3.4579C42.9829 3.63749 43.1885 3.86847 43.3133 4.1512C43.4368 4.43292 43.4987 4.73351 43.4987 5.05212H41.2912V5.23838C41.2912 5.53679 41.335 5.79265 41.4216 6.00577C41.508 6.2179 41.7001 6.32438 41.9989 6.32438C42.2866 6.32438 42.5504 6.24811 42.7931 6.0944C43.0357 5.94185 43.2425 5.75676 43.4133 5.5413V5.5413ZM41.9236 4.88388V3.70692C41.9236 3.46808 41.8181 3.34909 41.6069 3.34909C41.3968 3.34909 41.2912 3.46808 41.2912 3.70692V4.88388H41.9236V4.88388ZM46.2914 1.96917H45.8869V1.80094H46.3801C46.7508 1.80094 47.0486 1.79076 47.271 1.76939C47.4934 1.7492 47.6933 1.72016 47.8686 1.68311V6.35142H48.273V6.51281H47.8686C47.5596 6.51281 47.2912 6.52182 47.0631 6.54102C46.8362 6.55888 46.6104 6.59025 46.3868 6.63398V6.10107H46.3475C46.2329 6.27949 46.0813 6.40633 45.8903 6.48144C45.6993 6.55654 45.5006 6.59476 45.2938 6.59476C44.9972 6.59476 44.7479 6.51632 44.5445 6.3581C44.3423 6.20105 44.1907 5.98892 44.0929 5.72305C43.994 5.45601 43.9445 5.16327 43.9445 4.84349C43.9445 4.52822 43.9918 4.24667 44.0861 3.99749C44.1805 3.74847 44.3287 3.5522 44.5321 3.40633C44.7343 3.26046 44.9893 3.18753 45.2938 3.18753C45.5072 3.18753 45.6914 3.22124 45.8487 3.28733C46.0059 3.35476 46.1532 3.46241 46.2914 3.61162V1.96917ZM45.66 4.00316V5.81952C45.66 5.92833 45.678 6.01929 45.714 6.08989C45.7499 6.16166 45.8239 6.19654 45.9364 6.19654C46.0846 6.19654 46.1812 6.13028 46.225 5.99793C46.2688 5.86558 46.2914 5.73423 46.2914 5.60522V4.21963C46.2914 4.08845 46.2688 3.9561 46.225 3.82358C46.1812 3.69123 46.0846 3.62514 45.9364 3.62514C45.8589 3.62514 45.8004 3.64416 45.7599 3.68121C45.7195 3.71826 45.6926 3.76416 45.679 3.81924C45.6657 3.87415 45.66 3.93473 45.66 4.00316ZM51.0612 6.51281H48.6785V6.35142H49.0829V3.42986H48.6785V3.26831H49.1716C49.7873 3.26831 50.2838 3.22792 50.6602 3.14714V6.35142H51.0612V6.51281V6.51281ZM49.2178 2.29896C49.2178 2.16544 49.2604 2.04878 49.3469 1.95014C49.4335 1.85017 49.6087 1.80094 49.8715 1.80094C50.1344 1.80094 50.3097 1.85017 50.3963 1.95014C50.4827 2.04878 50.5253 2.16544 50.5253 2.29896C50.5253 2.37757 50.5108 2.45267 50.4827 2.52561C50.4546 2.59738 50.3906 2.6603 50.2917 2.71521C50.1941 2.77011 50.0535 2.79715 49.8715 2.79715C49.6895 2.79715 49.5492 2.77011 49.4514 2.71521C49.3526 2.6603 49.2885 2.59738 49.2604 2.52561C49.2323 2.45267 49.2178 2.37757 49.2178 2.29896ZM55.6289 6.0495L55.7312 6.15381C55.6548 6.24594 55.5547 6.32555 55.4312 6.39398C55.3087 6.46124 55.1785 6.51181 55.0403 6.54436C54.9009 6.5769 54.7741 6.59359 54.6583 6.59359C54.4584 6.59359 54.2888 6.55437 54.1506 6.47593C54.0124 6.39732 53.8832 6.27048 53.7619 6.09557C53.3315 6.42753 52.8957 6.59359 52.452 6.59359C52.1622 6.59359 51.9172 6.51732 51.7162 6.3636C51.5151 6.21106 51.415 5.98675 51.415 5.6905C51.415 5.40227 51.5128 5.17896 51.7095 5.02191C51.906 4.86369 52.1689 4.75604 52.4981 4.69762C52.8272 4.64038 53.2237 4.60783 53.6867 4.60116V3.66669C53.6867 3.53317 53.6653 3.44105 53.6237 3.39064C53.582 3.34007 53.4743 3.31437 53.3001 3.31437C53.135 3.31437 53.053 3.35126 53.053 3.42319C53.053 3.44555 53.0765 3.49162 53.1226 3.56221C53.1688 3.63398 53.1957 3.67671 53.2024 3.6924C53.2328 3.76082 53.2485 3.8371 53.2485 3.92238C53.2485 4.10647 53.1731 4.25117 53.0227 4.35548C52.8721 4.46096 52.6913 4.51354 52.4812 4.51354C52.2565 4.51354 52.0813 4.46096 51.9555 4.35432C51.8285 4.24767 51.7656 4.10864 51.7656 3.9359C51.7656 3.70591 51.9027 3.51732 52.1756 3.37262C52.4487 3.22675 52.9081 3.15381 53.5506 3.15381C54.2798 3.15381 54.7482 3.25596 54.9538 3.46124C55.1605 3.66553 55.2638 3.90669 55.2638 4.18274V5.96755C55.2638 6.0989 55.3189 6.16399 55.429 6.16399C55.494 6.16399 55.5616 6.12577 55.6289 6.0495V6.0495ZM53.6867 5.6603V4.79643C53.6405 4.78291 53.553 4.77623 53.4226 4.77623C53.2799 4.77623 53.1821 4.81879 53.1305 4.90408C53.0789 4.98936 53.053 5.12622 53.053 5.31582V5.62091C53.053 5.77362 53.0834 5.89462 53.144 5.98224C53.2047 6.07087 53.2799 6.11576 53.3698 6.11576C53.581 6.11576 53.6867 5.96322 53.6867 5.6603V5.6603ZM59.4877 5.36973C59.317 5.32366 59.1653 5.25073 59.0328 5.14975C58.8991 5.04878 58.7968 4.93095 58.7228 4.79526C58.6497 4.65941 58.6126 4.5147 58.6126 4.36099C58.6126 4.00099 58.7677 3.71376 59.0789 3.49829C59.3889 3.28183 59.8236 3.17401 60.3809 3.17401C60.6336 3.17401 60.8886 3.19654 61.1481 3.24144C61.2088 2.93067 61.3166 2.69384 61.4705 2.53011C61.6233 2.36739 61.849 2.28561 62.1445 2.28561C62.3131 2.28561 62.4502 2.33384 62.5546 2.43131C62.6579 2.52895 62.7107 2.66247 62.7107 2.8307C62.7107 2.98792 62.6636 3.11576 62.5703 3.2144C62.4771 3.3132 62.3581 3.3626 62.213 3.3626C62.0379 3.3626 61.9008 3.31537 61.8019 3.22007C61.7041 3.12477 61.6547 3.01929 61.6547 2.90263C61.657 2.88344 61.6582 2.86558 61.6592 2.84989C61.6604 2.83521 61.6615 2.81401 61.6615 2.78814C61.6615 2.72188 61.6311 2.6895 61.5716 2.6895C61.5131 2.6895 61.4627 2.74558 61.4222 2.8589C61.3818 2.97106 61.3504 3.11009 61.329 3.27398C61.5963 3.32889 61.821 3.45223 62.0019 3.64416C62.1828 3.83593 62.2727 4.06708 62.2727 4.33646C62.2727 4.65056 62.1435 4.91643 61.884 5.13623C61.6256 5.35504 61.1548 5.46502 60.4718 5.46502C60.3381 5.46502 60.2427 5.46052 60.1842 5.4505C60.1259 5.44032 60.0179 5.43582 59.8607 5.43582C59.7348 5.43582 59.6473 5.45718 59.5968 5.49974C59.5461 5.54246 59.5214 5.58836 59.5214 5.63893C59.5214 5.72639 59.5821 5.79148 59.7046 5.83404C59.8259 5.87676 59.9608 5.90263 60.109 5.91265C60.2572 5.92283 60.4404 5.9295 60.6571 5.93401C61.083 5.94519 61.3863 5.9542 61.5671 5.96205C61.7479 5.96989 61.9311 5.99793 62.1154 6.04616C62.2996 6.09323 62.4445 6.17634 62.5513 6.29418C62.6569 6.41084 62.7107 6.5779 62.7107 6.79454C62.7107 7.1502 62.5344 7.44077 62.1839 7.66725C61.8323 7.8939 61.2257 8.00722 60.364 8.00722C60.0517 8.00722 59.755 7.99487 59.4721 7.96917C59.1888 7.94447 58.9383 7.89056 58.7216 7.80761C58.5037 7.72449 58.3959 7.60449 58.3959 7.44961C58.3959 7.21178 58.6183 7.07726 59.0632 7.04689C58.8531 6.96945 58.6902 6.86296 58.5744 6.72377C58.4599 6.58575 58.4026 6.43988 58.4026 6.28399C58.4026 6.07988 58.4868 5.89696 58.6552 5.7354C58.8249 5.57267 59.1025 5.45151 59.4877 5.36973V5.36973ZM59.2452 7.11865C59.1563 7.20177 59.1125 7.29156 59.1125 7.38686C59.1125 7.5092 59.2047 7.61685 59.3901 7.70764C59.5742 7.79977 59.8989 7.84566 60.364 7.84566C61.2548 7.84566 61.7008 7.71331 61.7008 7.44961C61.7008 7.37334 61.6604 7.32744 61.5783 7.30942C61.4974 7.29156 61.3739 7.28021 61.2076 7.27353C60.7527 7.26452 60.3864 7.25 60.109 7.23098C59.8316 7.21078 59.5428 7.17373 59.2452 7.11865V7.11865ZM60.1697 3.70475V4.94564C60.1697 5.1823 60.2708 5.30113 60.473 5.30113C60.6752 5.30113 60.7763 5.1823 60.7763 4.94564V3.70475C60.7763 3.46575 60.6752 3.34575 60.473 3.34575C60.2708 3.34575 60.1697 3.46575 60.1697 3.70475V3.70475ZM65.6383 6.51281H63.0478V6.35142H63.4522V3.42986H63.0478V3.26831H63.5409C64.1566 3.26831 64.6531 3.22792 65.0295 3.14714C64.9743 3.41868 64.9474 3.72377 64.9474 4.06374V4.2253H64.9867C65.0856 3.91571 65.2519 3.66552 65.4855 3.47359C65.7203 3.28183 65.9887 3.18636 66.292 3.18636C66.5135 3.18636 66.7055 3.2638 66.8684 3.41985C67.0314 3.57457 67.1122 3.79454 67.1122 4.07726C67.1122 4.29824 67.0437 4.48566 66.9077 4.63921C66.7718 4.79292 66.591 4.8692 66.3651 4.8692C66.1506 4.8692 65.9651 4.80761 65.8091 4.68527C65.653 4.56294 65.5754 4.39253 65.5754 4.1759C65.5754 4.04689 65.609 3.93473 65.6775 3.84043C65.7237 3.77885 65.7462 3.74063 65.7462 3.72611C65.7462 3.70808 65.7258 3.69907 65.6832 3.69907C65.5933 3.69907 65.4955 3.75632 65.3911 3.86964C65.2866 3.98413 65.2002 4.13668 65.1316 4.32845C65.063 4.52038 65.0295 4.72349 65.0295 4.93779V6.35142H65.6383V6.51281V6.51281ZM67.4087 4.88839C67.4087 4.65273 67.457 4.43059 67.5548 4.22196C67.6525 4.01434 67.7919 3.83259 67.9716 3.67888C68.1514 3.52416 68.3648 3.404 68.612 3.31771C68.858 3.23126 69.1342 3.18753 69.4399 3.18753C69.7465 3.18753 70.0239 3.23126 70.2734 3.31888C70.5228 3.40633 70.7362 3.5275 70.9137 3.68221C71.0911 3.83593 71.2282 4.01668 71.3238 4.22413C71.4192 4.43059 71.4665 4.65273 71.4665 4.88839C71.4665 5.12505 71.4192 5.34603 71.3249 5.55248C71.2305 5.75793 71.0945 5.93952 70.9148 6.09557C70.7362 6.25262 70.5206 6.37495 70.2666 6.46241C70.0139 6.54986 69.7375 6.59359 69.4399 6.59359C69.1456 6.59359 68.8725 6.54986 68.6198 6.46358C68.367 6.37712 68.1514 6.25596 67.9704 6.0989C67.7884 5.94302 67.6504 5.76127 67.5536 5.55365C67.457 5.34719 67.4087 5.12505 67.4087 4.88839ZM69.123 3.70692V6.07086C69.123 6.16516 69.142 6.24811 69.1791 6.31871C69.2162 6.38947 69.3028 6.42536 69.4399 6.42536C69.5757 6.42536 69.6623 6.38947 69.6994 6.31871C69.7365 6.24811 69.7555 6.16516 69.7555 6.07086V3.70692C69.7555 3.46808 69.6499 3.34909 69.4399 3.34909C69.2286 3.34909 69.123 3.46808 69.123 3.70692V3.70692ZM74.4871 3.42986H74.2996V3.26831H74.5759C75.1949 3.26831 75.6914 3.22792 76.0644 3.14714V6.35142H76.4688V6.51281H76.0644C75.5072 6.51281 75.0129 6.5532 74.5827 6.63398V6.04283H74.54C74.4108 6.20438 74.2412 6.3379 74.0334 6.43988C73.8244 6.54319 73.5886 6.59476 73.3222 6.59476C72.8887 6.59476 72.6056 6.45006 72.474 6.16066C72.3427 5.87226 72.2763 5.58502 72.2763 5.30013V3.42986H71.8719V3.26831H72.3651C72.9807 3.26831 73.4773 3.22792 73.8536 3.14714V5.72972C73.8536 5.84205 73.8717 5.93284 73.9076 6.00244C73.9447 6.07304 74.0187 6.10792 74.131 6.10792C74.2806 6.10792 74.3772 6.04166 74.421 5.90931C74.4648 5.77696 74.4871 5.64561 74.4871 5.5166V3.42986V3.42986ZM79.2066 8.06113H76.8204V7.89957H77.2249V3.42986H76.8204V3.26831H77.2249C77.782 3.26831 78.2764 3.22792 78.7067 3.14714V3.73846H78.7493C78.9606 3.37045 79.3291 3.18636 79.8558 3.18636C80.1389 3.18636 80.3771 3.25929 80.5714 3.40633C80.7658 3.5532 80.9107 3.75181 81.0063 4.00433C81.1017 4.25668 81.1488 4.53607 81.1488 4.84233C81.1488 5.01507 81.1252 5.22936 81.0769 5.48522C81.0286 5.73991 80.9028 5.98892 80.7018 6.23009C80.4995 6.47242 80.1986 6.59359 79.7997 6.59359C79.6919 6.59359 79.5841 6.58358 79.4773 6.56221C79.3695 6.54202 79.2582 6.50046 79.1426 6.43771C79.0279 6.37596 78.9144 6.28616 78.8021 6.17067V7.89957H79.2066V8.06113V8.06113ZM79.4368 5.81952V4.00199C79.4368 3.89217 79.4188 3.80238 79.3829 3.73062C79.3469 3.65985 79.2727 3.62397 79.1604 3.62397C79.0583 3.62397 78.9784 3.66202 78.9235 3.73846C78.8695 3.81573 78.8347 3.89651 78.8224 3.9818C78.8088 4.06708 78.8021 4.14669 78.8021 4.21863V5.60522C78.8021 5.67598 78.8088 5.75342 78.8224 5.83854C78.8347 5.925 78.8695 6.00577 78.9235 6.08205C78.9784 6.15949 79.0583 6.19771 79.1604 6.19771C79.2727 6.19771 79.3469 6.16166 79.3829 6.09106C79.4188 6.01929 79.4368 5.92833 79.4368 5.81952V5.81952ZM87.0848 1.80094L83.9843 8.06113H83.7147L86.8153 1.80094H87.0848V1.80094ZM91.0965 6.3379V1.97701C90.8269 1.9927 90.5955 2.07682 90.4045 2.2317C90.2146 2.38642 90.0664 2.57718 89.9608 2.805C89.8551 3.03265 89.7888 3.25929 89.7597 3.4826H89.5854V1.80094H94.6407V3.4826H94.4666C94.4373 3.25929 94.3712 3.03265 94.2655 2.805C94.1599 2.57718 94.0117 2.38642 93.8218 2.2317C93.6308 2.07682 93.4005 1.9927 93.1298 1.97701V6.3379H93.7386V6.51281H90.4875V6.3379H91.0965ZM99.1377 6.0495L99.2398 6.15381C99.1634 6.24594 99.0635 6.32555 98.94 6.39398C98.8175 6.46124 98.6871 6.51181 98.5489 6.54436C98.4097 6.5769 98.2827 6.59359 98.1671 6.59359C97.967 6.59359 97.7974 6.55437 97.6592 6.47593C97.5212 6.39732 97.392 6.27048 97.2705 6.09557C96.8403 6.42753 96.4045 6.59359 95.9608 6.59359C95.6708 6.59359 95.426 6.51732 95.225 6.3636C95.0238 6.21106 94.9238 5.98675 94.9238 5.6905C94.9238 5.40227 95.0216 5.17896 95.2181 5.02191C95.4148 4.86369 95.6777 4.75604 96.0067 4.69762C96.336 4.64038 96.7325 4.60783 97.1953 4.60116V3.66669C97.1953 3.53317 97.1739 3.44105 97.1325 3.39064C97.0908 3.34007 96.983 3.31437 96.8089 3.31437C96.6438 3.31437 96.5617 3.35126 96.5617 3.42319C96.5617 3.44555 96.5853 3.49162 96.6314 3.56221C96.6774 3.63398 96.7045 3.67671 96.7112 3.6924C96.7414 3.76082 96.7573 3.8371 96.7573 3.92238C96.7573 4.10647 96.6819 4.25117 96.5313 4.35548C96.3809 4.46096 96.1999 4.51354 95.9899 4.51354C95.7653 4.51354 95.59 4.46096 95.4641 4.35432C95.3373 4.24767 95.2743 4.10864 95.2743 3.9359C95.2743 3.70591 95.4113 3.51732 95.6844 3.37262C95.9573 3.22675 96.4169 3.15381 97.0594 3.15381C97.7884 3.15381 98.257 3.25596 98.4625 3.46124C98.6691 3.66553 98.7725 3.90669 98.7725 4.18274V5.96755C98.7725 6.0989 98.8275 6.16399 98.9377 6.16399C99.0028 6.16399 99.0702 6.12577 99.1377 6.0495ZM97.1953 5.6603V4.79643C97.1493 4.78291 97.0616 4.77623 96.9312 4.77623C96.7887 4.77623 96.6909 4.81879 96.6393 4.90408C96.5875 4.98936 96.5617 5.12622 96.5617 5.31582V5.62091C96.5617 5.77362 96.592 5.89462 96.6527 5.98224C96.7133 6.07087 96.7887 6.11576 96.8784 6.11576C97.0897 6.11576 97.1953 5.96322 97.1953 5.6603V5.6603ZM99.9442 3.42986H99.5398V3.26831H100.033C100.649 3.26831 101.145 3.22792 101.521 3.14714V6.92238C101.521 7.19059 101.464 7.4149 101.348 7.59665C101.234 7.7784 101.073 7.91409 100.869 8.00505C100.663 8.09584 100.425 8.14191 100.153 8.14191C99.8993 8.14191 99.6813 8.09134 99.5005 7.98936C99.3197 7.88722 99.2286 7.729 99.2286 7.5147C99.2286 7.33078 99.2916 7.18942 99.4163 7.09178C99.5421 6.99315 99.7039 6.94374 99.9038 6.94374C100.012 6.94374 100.113 6.96394 100.207 7.00433C100.302 7.04472 100.377 7.1053 100.435 7.18491C100.494 7.26452 100.523 7.35999 100.523 7.46881C100.523 7.58313 100.499 7.68411 100.452 7.7739C100.405 7.86369 100.33 7.9231 100.227 7.95114C100.271 7.96917 100.324 7.97818 100.388 7.97818C100.561 7.97818 100.692 7.91526 100.783 7.79075C100.874 7.66625 100.921 7.51137 100.921 7.32744C100.921 7.07376 100.819 6.8663 100.618 6.70692C100.451 6.5779 100.227 6.51281 99.9442 6.51281V3.42986V3.42986ZM100.079 2.29896C100.079 2.16544 100.122 2.04878 100.208 1.95014C100.295 1.85017 100.47 1.80094 100.733 1.80094C100.996 1.80094 101.171 1.85017 101.257 1.95014C101.344 2.04878 101.387 2.16544 101.387 2.29896C101.387 2.37757 101.372 2.45267 101.344 2.52561C101.316 2.59738 101.252 2.6603 101.153 2.71521C101.055 2.77011 100.915 2.79715 100.733 2.79715C100.551 2.79715 100.41 2.77011 100.313 2.71521C100.214 2.6603 100.15 2.59738 100.122 2.52561C100.094 2.45267 100.079 2.37757 100.079 2.29896V2.29896ZM104.578 6.51281H102.195V6.35142H102.6V3.42986H102.195V3.26831H102.689C103.304 3.26831 103.801 3.22792 104.177 3.14714V6.35142H104.578V6.51281ZM102.735 2.29896C102.735 2.16544 102.777 2.04878 102.864 1.95014C102.95 1.85017 103.126 1.80094 103.389 1.80094C103.651 1.80094 103.827 1.85017 103.913 1.95014C104 2.04878 104.042 2.16544 104.042 2.29896C104.042 2.37757 104.028 2.45267 104 2.52561C103.972 2.59738 103.908 2.6603 103.809 2.71521C103.711 2.77011 103.57 2.79715 103.389 2.79715C103.207 2.79715 103.066 2.77011 102.968 2.71521C102.87 2.6603 102.805 2.59738 102.777 2.52561C102.749 2.45267 102.735 2.37757 102.735 2.29896V2.29896ZM105.39 1.96917H104.986V1.80094H105.479C105.849 1.80094 106.146 1.79076 106.371 1.76939C106.596 1.7492 106.795 1.72016 106.968 1.68311V4.79075L108.065 3.96845C108.16 3.89217 108.231 3.82808 108.281 3.77651C108.33 3.72494 108.355 3.66986 108.355 3.61045C108.355 3.53418 108.322 3.48477 108.257 3.46241C108.193 3.44105 108.105 3.42986 107.992 3.42986H107.661V3.26831H109.941V3.42986C109.79 3.44105 109.642 3.46007 109.499 3.48711C109.355 3.51515 109.212 3.5532 109.071 3.6026C108.929 3.65201 108.794 3.71042 108.667 3.77768C108.54 3.84611 108.413 3.92689 108.289 4.02119L109.941 6.35142H110.161V6.51281H107.762V6.35142H108.167L107.195 4.8233L106.968 4.99036V6.35142H107.181V6.51281H104.986V6.35142H105.39V1.96917V1.96917ZM112.842 6.51281H110.459V6.35142H110.864V3.42986H110.459V3.26831H110.952C111.568 3.26831 112.064 3.22792 112.441 3.14714V6.35142H112.842V6.51281ZM110.998 2.29896C110.998 2.16544 111.041 2.04878 111.128 1.95014C111.214 1.85017 111.389 1.80094 111.652 1.80094C111.915 1.80094 112.09 1.85017 112.177 1.95014C112.263 2.04878 112.306 2.16544 112.306 2.29896C112.306 2.37757 112.291 2.45267 112.263 2.52561C112.235 2.59738 112.171 2.6603 112.072 2.71521C111.975 2.77011 111.834 2.79715 111.652 2.79715C111.47 2.79715 111.33 2.77011 111.232 2.71521C111.133 2.6603 111.069 2.59738 111.041 2.52561C111.013 2.45267 110.998 2.37757 110.998 2.29896V2.29896ZM116.699 3.2144V4.14235H116.539C116.425 3.91337 116.242 3.73162 115.993 3.5981C115.684 3.43203 115.314 3.34909 114.888 3.34909C114.692 3.34909 114.556 3.37712 114.481 3.43437C114.406 3.49162 114.367 3.55671 114.367 3.63064C114.367 3.70141 114.398 3.76082 114.457 3.81139C114.518 3.8618 114.59 3.90102 114.673 3.92906C114.756 3.95826 114.871 3.98747 115.017 4.02002C115.163 4.05139 115.248 4.07042 115.272 4.07726C115.686 4.17373 116.011 4.26452 116.246 4.34981C116.481 4.43509 116.676 4.56077 116.831 4.72566C116.987 4.89173 117.065 5.10719 117.065 5.37523C117.065 5.5166 117.032 5.66029 116.966 5.805C116.901 5.9497 116.796 6.08205 116.653 6.20105C116.511 6.31988 116.323 6.41534 116.091 6.48711C115.858 6.55771 115.585 6.59359 115.272 6.59359C114.686 6.59359 114.206 6.49045 113.83 6.28399L113.518 6.56672H113.356L113.248 5.28444H113.413C113.606 5.64895 113.871 5.92833 114.209 6.12127C114.547 6.31537 114.898 6.41184 115.259 6.41184C115.533 6.41184 115.729 6.37596 115.846 6.30536C115.961 6.23459 116.02 6.16066 116.02 6.08438C116.02 5.97657 115.976 5.90263 115.888 5.86224C115.801 5.82185 115.66 5.78246 115.467 5.74324C115.102 5.66029 114.804 5.58502 114.572 5.51776C114.339 5.45151 114.126 5.36522 113.931 5.26091C113.737 5.15543 113.586 5.02408 113.475 4.86586C113.365 4.70664 113.31 4.5147 113.31 4.28922C113.31 4.06258 113.404 3.82141 113.589 3.56789C113.774 3.31437 114.173 3.18753 114.785 3.18753C114.912 3.18753 115.048 3.19087 115.193 3.19871C115.338 3.20655 115.513 3.23009 115.72 3.26831C115.927 3.30653 116.122 3.36361 116.309 3.43771L116.539 3.2144H116.699V3.2144ZM117.873 3.42986H117.469V3.26831C117.866 3.25262 118.221 3.11793 118.535 2.86441C118.85 2.60973 119.08 2.30013 119.227 1.93429H119.451V3.26831H120.193V3.42986H119.451V5.69952C119.451 5.8105 119.465 5.90714 119.493 5.98775C119.523 6.06853 119.586 6.10908 119.684 6.10908C119.817 6.10908 119.92 6.03164 119.997 5.87793C120.072 5.72422 120.119 5.55699 120.137 5.37757H120.301C120.282 5.57501 120.233 5.76461 120.155 5.94402C120.078 6.12477 119.95 6.27832 119.772 6.40399C119.595 6.53084 119.362 6.59359 119.074 6.59359C118.704 6.59359 118.41 6.51849 118.196 6.36711C117.981 6.21557 117.873 6.01362 117.873 5.75893V3.42986V3.42986ZM124.864 6.0495L124.967 6.15381C124.89 6.24594 124.79 6.32555 124.667 6.39398C124.544 6.46124 124.414 6.51181 124.276 6.54436C124.136 6.5769 124.009 6.59359 123.894 6.59359C123.694 6.59359 123.524 6.55437 123.386 6.47593C123.248 6.39732 123.119 6.27048 122.997 6.09557C122.567 6.42753 122.131 6.59359 121.687 6.59359C121.397 6.59359 121.153 6.51732 120.952 6.3636C120.751 6.21106 120.65 5.98675 120.65 5.6905C120.65 5.40227 120.748 5.17896 120.945 5.02191C121.141 4.86369 121.404 4.75604 121.733 4.69762C122.063 4.64038 122.459 4.60783 122.922 4.60116V3.66669C122.922 3.53317 122.901 3.44105 122.859 3.39064C122.817 3.34007 122.71 3.31437 122.536 3.31437C122.37 3.31437 122.288 3.35126 122.288 3.42319C122.288 3.44555 122.312 3.49162 122.358 3.56221C122.404 3.63398 122.431 3.67671 122.438 3.6924C122.468 3.76082 122.484 3.8371 122.484 3.92238C122.484 4.10647 122.409 4.25117 122.258 4.35548C122.108 4.46096 121.927 4.51354 121.717 4.51354C121.492 4.51354 121.317 4.46096 121.191 4.35432C121.064 4.24767 121.001 4.10864 121.001 3.9359C121.001 3.70591 121.138 3.51732 121.411 3.37262C121.684 3.22675 122.143 3.15381 122.786 3.15381C123.515 3.15381 123.984 3.25596 124.189 3.46124C124.396 3.66553 124.499 3.90669 124.499 4.18274V5.96755C124.499 6.0989 124.554 6.16399 124.664 6.16399C124.729 6.16399 124.797 6.12577 124.864 6.0495ZM122.922 5.6603V4.79643C122.876 4.78291 122.788 4.77623 122.658 4.77623C122.515 4.77623 122.418 4.81879 122.366 4.90408C122.314 4.98936 122.288 5.12622 122.288 5.31582V5.62091C122.288 5.77362 122.319 5.89462 122.379 5.98224C122.44 6.07087 122.515 6.11576 122.605 6.11576C122.816 6.11576 122.922 5.96322 122.922 5.6603ZM127.436 6.51281H125.266V6.35142H125.671V3.42986H125.266V3.26831H125.671C126.229 3.26831 126.724 3.22792 127.153 3.14714V3.73846H127.192C127.39 3.50163 127.593 3.35025 127.8 3.28516C128.007 3.2189 128.213 3.18636 128.414 3.18636C128.634 3.18636 128.823 3.24477 128.981 3.3626C129.14 3.47927 129.259 3.63749 129.339 3.8371C129.418 4.03687 129.459 4.25117 129.459 4.48116V6.35142H129.863V6.51281H127.694V6.35142H127.882V4.04806C127.882 3.79788 127.79 3.67337 127.604 3.67337C127.453 3.67337 127.355 3.73846 127.312 3.86964C127.269 4.00199 127.248 4.13334 127.248 4.26452V6.35142H127.436V6.51281V6.51281Z" fill="#2A416F"/>
</svg>
