<?xml version="1.0" encoding="UTF-8"?>
<!DOCTYPE svg PUBLIC "-//W3C//DTD SVG 1.0//EN" "http://www.w3.org/TR/2001/REC-SVG-20010904/DTD/svg10.dtd">
<!-- Creator: CorelDRAW 2019 (64-Bit) -->
<svg xmlns="http://www.w3.org/2000/svg" xml:space="preserve" width="8497px" height="1635px" version="1.0" style="shape-rendering:geometricPrecision; text-rendering:geometricPrecision; image-rendering:optimizeQuality; fill-rule:evenodd; clip-rule:evenodd"
viewBox="0 0 8497 1634.62"
 xmlns:xlink="http://www.w3.org/1999/xlink">
 <defs>
  <style type="text/css">
   <![CDATA[
    .fil1 {fill:#FEFEFE}
    .fil0 {fill:#E31E24}
    .fil2 {fill:#2A416F;fill-rule:nonzero}
   ]]>
  </style>
 </defs>
 <g id="Слой_x0020_1">
  <metadata id="CorelCorpID_0Corel-Layer"/>
  <g id="_2809092100896">
   <path class="fil0" d="M219.03 0l1196.56 0c120.47,0 219.03,98.56 219.03,219.03l0 1196.56c0,120.47 -98.56,219.03 -219.03,219.03l-1196.56 0c-120.46,0 -219.03,-98.56 -219.03,-219.03l0 -1196.56c0,-120.47 98.57,-219.03 219.03,-219.03z"/>
   <path class="fil1" d="M1430.95 981.32l-388.41 -1.22 0.14 436.35c-29.88,60.65 -44.63,98.19 -187.44,107.11l-80.33 0c-126.25,-1.98 -194.14,-66.99 -194.14,-120.5l0 -428.44 -160.66 0c-35.96,0 -66.94,-41.18 -66.94,-73.63l0 -40.17c0,-35.04 29.9,-73.64 66.94,-73.64l160.66 0 0 -408.35c-110.79,9.22 -274.46,243.68 -274.46,368.19l0 60.24c0,136.19 100.41,246.02 100.41,321.33 0,50.38 -34.97,87.03 -87.03,87.03l-26.77 0c-97.62,0 -158.64,-198.78 -180.79,-287.81 -85.06,-341.8 188.84,-816.75 569.05,-816.75l13.4 0c44.16,0 73.63,47.95 73.63,93.72l0 582.4 75.22 -0.02 -8.27 -568.99 0 -40.17c0,-43.48 42.98,-66.94 87.02,-66.94 231.25,0 466.89,188.55 549.89,400.71 44.25,113.12 65.99,209.6 65.99,328.97 0,80.68 -56.54,128.51 -107.11,140.58zm-394.96 -207.52l281.16 0c-15.09,-181.31 -126.03,-372.22 -281.16,-408.36l0 408.36zm-254.39 515.46l60.25 0 0 -294.55c0,-15.43 -4.66,-20.09 -20.08,-20.09l-40.17 0 0 314.64z"/>
  </g>
  <g id="_2809092101696">
   <path class="fil0" d="M7584.4 1594.7l140.58 -13.39 153.97 0 0 -41.4 -66.95 0 -0.3 -603.27 -167.05 22.09 -140.58 0 0 33.48 33.47 0 0 374.88c0,50.3 -17.07,120.5 -66.95,120.5l-6.69 0c-21.64,0 -33.47,-24.3 -33.47,-46.87l0.2 -500.24 -207.72 18.25 -127.2 0 0 33.48 60.25 0 0 388.27c0,99.18 43.11,220.91 133.88,220.91l73.65 0c103.93,0 146.43,-74.84 180.74,-120.5l0 120.5 40.17 -6.69z"/>
   <path class="fil0" d="M2215.55 1233.21l-208.82 -0.04 101.71 -314.07c5.99,-18.47 38.83,104.71 107.11,314.11zm-428.43 307.93l0 40.17 227.61 0 0 -40.17c-36.18,0 -88.57,-6.39 -88.57,-39.42l66.93 -221.66 235.36 0 87.51 261.08 -87.02 0 0 40.17 508.77 0 0 -40.17 -46.86 0 -314.64 -876.95 -234.3 0 -150.21 465.66c-31.98,95.17 -113.21,404.13 -204.58,411.29z"/>
   <polygon class="fil0" points="5120.89,1400.56 5522.55,1400.56 5522.55,1139.48 5120.89,1139.48 "/>
   <path class="fil0" d="M2818.04 1280.06l-33.47 0 -0.73 321.33 34.2 0c12.5,-6.61 118.14,-53.55 127.19,-53.55 12.66,0 82.87,34.85 111.06,42.91 52.07,14.88 87.28,10.64 150.02,10.64 137.52,-3.06 261.08,-133.46 261.08,-274.47l0 -53.55c0,-270.68 -488.69,-361.65 -488.69,-475.3 0.1,-11.82 0.07,-22.95 0,-33.47 0,-44.16 47.96,-73.64 93.73,-73.64l33.47 0c156.26,0 260.16,261.08 287.85,261.08l20.09 0 1.85 -301.24 -35.33 0c-45.74,10.66 -86.39,46.85 -133.88,46.85 -18.33,0 -88.83,-46.85 -127.2,-46.85 -14.23,-0.91 -30.14,-2.46 -60.25,0 -171.39,10.09 -274.46,138 -274.46,307.93l0 6.7c0,316.33 475.29,350.38 475.29,502.07l0 6.7c0,48.19 -48.66,87.02 -100.41,87.02l-53.55 0c-117.26,0 -264.96,-182.84 -287.86,-281.16z"/>
   <path class="fil0" d="M6078.18 704.35l46.86 0c74.78,0 93.72,66.42 93.72,140.58l0 160.67c0,88.55 -18.41,153.96 -107.11,153.96l-33.47 0 0 -455.21zm495.37 234.3c0,-216.87 -145.11,-274.46 -361.49,-274.46l-575.71 0 0 33.46 100.42 0 0 843.49 -100.42 0 0 40.17 548.94 0 0 -40.17 -107.11 0 0 -341.41 200.83 0c169.71,0 294.54,-92.83 294.54,-261.08z"/>
   <polygon class="fil0" points="3648.14,698.51 3648.14,1541.14 3541.03,1541.14 3541.03,1581.31 4089.96,1581.31 4089.96,1541.14 3982.85,1541.14 3982.85,697.65 4089.96,697.65 4089.96,664.19 3547.72,664.19 3547.72,677.57 3547.72,697.65 "/>
   <polygon class="fil0" points="6700.75,1541.14 6627.11,1541.08 6627.11,1580.63 7042.16,1580.63 7041.91,1541.14 6975.21,1541.14 6975.21,644.1 6785.56,661.57 6633.8,664.19 6633.8,697.65 6700.75,697.65 "/>
   <path class="fil0" d="M4548.97 1233.21l-208.82 -0.04 101.72 -314.07c5.98,-18.47 38.82,104.71 107.1,314.11zm-428.43 307.93l0 40.17 227.61 0 0 -40.17c-36.18,0 -88.57,-6.39 -88.57,-39.42l66.93 -221.66 235.36 0 87.51 261.08 -87.02 0 0 40.17 508.77 0 0 -40.17 -46.86 0 -314.64 -876.95 -234.3 0 -150.21 465.66c-31.98,95.17 -113.21,404.13 -204.58,411.29z"/>
   <path class="fil0" d="M7972.32 1372.64l-27.05 0 -0.58 221.99 27.63 0c10.1,-4.56 95.46,-36.99 102.77,-36.99 10.23,0 66.96,24.07 89.74,29.64 42.07,10.29 70.52,7.35 121.22,7.35 111.11,-2.11 210.95,-92.2 210.95,-189.61l0 -37c0,-187.01 -394.87,-249.85 -394.87,-328.37 0.08,-8.16 0.06,-15.85 0,-23.12 0,-30.5 38.76,-50.87 75.74,-50.87l27.04 0c126.26,0 210.21,180.37 232.59,180.37l16.23 0 1.49 -208.12 -28.54 0c-36.96,7.37 -69.8,32.37 -108.18,32.37 -14.81,0 -71.77,-32.37 -102.77,-32.37 -11.5,-0.63 -24.36,-1.7 -48.69,0 -138.48,6.97 -221.77,95.34 -221.77,212.74l0 4.63c0,218.54 384.05,242.06 384.05,346.86l0 4.62c0,33.3 -39.33,60.12 -81.14,60.12l-43.27 0c-94.74,0 -214.08,-126.31 -232.59,-194.24z"/>
  </g>
  <path class="fil2" d="M2083.37 390.22l-85.5 -249.79 -1.55 0 0 204.69c0,14.72 3.03,24.13 9.14,28.3 6.12,4.23 13.58,6.32 22.39,6.32l7.26 0 0 10.48 -80.6 0 0 -10.48c11.9,0 19.9,-3.63 23.8,-10.82 3.96,-7.2 5.91,-15.13 5.91,-23.8l0 -226.34 -29.71 0 0 -10.88 151.92 0 39.19 115.08 1.61 0 40.34 -115.08 152.39 0 0 10.88 -29.92 0 0 260.96 29.92 0 0 10.48 -181.57 0 0 -10.48 29.92 0 0 -238.1 -1.55 0 -86.45 248.58 -16.94 0zm514.38 -58.21l7.66 6.72c-11.16,15.46 -23.19,27.3 -36.1,35.56 -12.97,8.2 -25.61,13.72 -38.11,16.54 -12.44,2.82 -25.34,4.23 -38.79,4.23 -24.6,0 -46.38,-4.23 -65.34,-12.77 -18.88,-8.54 -33.41,-20.57 -43.55,-36.03 -10.15,-15.46 -15.26,-33.14 -15.26,-52.97 0,-16.74 4.16,-33 12.5,-48.8 8.34,-15.73 21.58,-28.57 39.73,-38.52 18.21,-10.02 41,-14.99 68.43,-14.99 26.75,0 48.73,5.38 65.94,16.2 17.14,10.76 29.44,24.6 36.91,41.54 7.39,16.88 11.09,34.89 11.09,53.98l-132.09 0 0 11.16c0,17.88 2.62,33.21 7.8,45.98 5.17,12.71 16.67,19.09 34.55,19.09 17.21,0 33,-4.57 47.52,-13.78 14.52,-9.14 26.89,-20.23 37.11,-33.14zm-89.14 -39.39l0 -70.52c0,-14.31 -6.31,-21.44 -18.95,-21.44 -12.57,0 -18.89,7.13 -18.89,21.44l0 70.52 37.84 0zm261.36 -174.64l-24.2 0 0 -10.08 29.51 0c22.18,0 40,-0.61 53.31,-1.89 13.31,-1.21 25.27,-2.95 35.76,-5.17l0 279.71 24.2 0 0 9.67 -24.2 0c-18.49,0 -34.55,0.54 -48.2,1.69 -13.58,1.07 -27.09,2.95 -40.47,5.57l0 -31.93 -2.35 0c-6.86,10.69 -15.93,18.29 -27.36,22.79 -11.43,4.5 -23.32,6.79 -35.69,6.79 -17.75,0 -32.67,-4.7 -44.84,-14.18 -12.1,-9.41 -21.17,-22.12 -27.02,-38.05 -5.92,-16 -8.88,-33.54 -8.88,-52.7 0,-18.89 2.83,-35.76 8.47,-50.69 5.65,-14.92 14.52,-26.68 26.69,-35.42 12.1,-8.74 27.36,-13.11 45.58,-13.11 12.77,0 23.79,2.02 33.2,5.98 9.41,4.04 18.22,10.49 26.49,19.43l0 -98.41zm-37.78 121.87l0 108.83c0,6.52 1.08,11.97 3.23,16.2 2.15,4.3 6.58,6.39 13.31,6.39 8.87,0 14.65,-3.97 17.27,-11.9 2.62,-7.93 3.97,-15.8 3.97,-23.53l0 -83.02c0,-7.86 -1.35,-15.79 -3.97,-23.73 -2.62,-7.93 -8.4,-11.89 -17.27,-11.89 -4.64,0 -8.14,1.14 -10.56,3.36 -2.42,2.22 -4.03,4.97 -4.84,8.27 -0.8,3.29 -1.14,6.92 -1.14,11.02zm323.2 150.37l-142.58 0 0 -9.67 24.2 0 0 -175.05 -24.2 0 0 -9.68 29.51 0c36.84,0 66.55,-2.42 89.07,-7.26l0 191.99 24 0 0 9.67zm-110.31 -252.48c0,-8 2.55,-14.99 7.73,-20.9 5.18,-5.99 15.66,-8.94 31.39,-8.94 15.73,0 26.22,2.95 31.4,8.94 5.17,5.91 7.72,12.9 7.72,20.9 0,4.71 -0.87,9.21 -2.55,13.58 -1.68,4.3 -5.51,8.07 -11.43,11.36 -5.84,3.29 -14.25,4.91 -25.14,4.91 -10.89,0 -19.29,-1.62 -25.14,-4.91 -5.91,-3.29 -9.75,-7.06 -11.43,-11.36 -1.68,-4.37 -2.55,-8.87 -2.55,-13.58zm383.63 224.72l6.12 6.25c-4.57,5.52 -10.56,10.29 -17.95,14.39 -7.33,4.03 -15.12,7.06 -23.39,9.01 -8.34,1.95 -15.93,2.95 -22.86,2.95 -11.96,0 -22.11,-2.35 -30.38,-7.05 -8.27,-4.71 -16,-12.31 -23.26,-22.79 -25.75,19.89 -51.83,29.84 -78.38,29.84 -17.34,0 -32,-4.57 -44.03,-13.78 -12.03,-9.14 -18.02,-22.58 -18.02,-40.33 0,-17.27 5.85,-30.65 17.62,-40.06 11.76,-9.48 27.49,-15.93 47.19,-19.43 19.69,-3.43 43.42,-5.38 71.12,-5.78l0 -55.99c0,-8 -1.28,-13.52 -3.77,-16.54 -2.49,-3.03 -8.94,-4.57 -19.36,-4.57 -9.88,0 -14.79,2.21 -14.79,6.52 0,1.34 1.41,4.1 4.17,8.33 2.76,4.3 4.37,6.86 4.77,7.8 1.82,4.1 2.76,8.67 2.76,13.78 0,11.03 -4.51,19.7 -13.51,25.95 -9.01,6.32 -19.83,9.47 -32.4,9.47 -13.45,0 -23.93,-3.15 -31.46,-9.54 -7.6,-6.39 -11.36,-14.72 -11.36,-25.07 0,-13.78 8.2,-25.08 24.53,-33.75 16.34,-8.74 43.83,-13.11 82.28,-13.11 43.63,0 71.66,6.12 83.96,18.42 12.37,12.24 18.55,26.69 18.55,43.23l0 106.94c0,7.87 3.3,11.77 9.89,11.77 3.89,0 7.93,-2.29 11.96,-6.86zm-116.22 -23.32l0 -51.76c-2.76,-0.81 -8,-1.21 -15.8,-1.21 -8.54,0 -14.39,2.55 -17.48,7.66 -3.09,5.11 -4.64,13.31 -4.64,24.67l0 18.28c0,9.15 1.82,16.4 5.45,21.65 3.63,5.31 8.13,8 13.51,8 12.64,0 18.96,-9.14 18.96,-27.29zm347.12 -17.41c-10.21,-2.76 -19.29,-7.13 -27.22,-13.18 -8,-6.05 -14.12,-13.11 -18.55,-21.24 -4.37,-8.14 -6.59,-16.81 -6.59,-26.02 0,-21.57 9.28,-38.78 27.9,-51.69 18.55,-12.97 44.56,-19.43 77.91,-19.43 15.12,0 30.38,1.35 45.91,4.04 3.63,-18.62 10.08,-32.81 19.29,-42.62 9.14,-9.75 22.65,-14.65 40.33,-14.65 10.09,0 18.29,2.89 24.54,8.73 6.18,5.85 9.34,13.85 9.34,23.93 0,9.42 -2.82,17.08 -8.4,22.99 -5.58,5.92 -12.7,8.88 -21.38,8.88 -10.48,0 -18.68,-2.83 -24.6,-8.54 -5.85,-5.71 -8.81,-12.03 -8.81,-19.02 0.14,-1.15 0.21,-2.22 0.27,-3.16 0.07,-0.88 0.14,-2.15 0.14,-3.7 0,-3.97 -1.82,-5.91 -5.38,-5.91 -3.5,0 -6.52,3.36 -8.94,10.15 -2.42,6.72 -4.3,15.05 -5.58,24.87 16,3.29 29.44,10.68 40.27,22.18 10.82,11.49 16.2,25.34 16.2,41.48 0,18.82 -7.73,34.75 -23.26,47.92 -15.46,13.11 -43.63,19.7 -84.5,19.7 -8,0 -13.71,-0.27 -17.21,-0.87 -3.49,-0.61 -9.95,-0.88 -19.36,-0.88 -7.53,0 -12.77,1.28 -15.79,3.83 -3.03,2.56 -4.51,5.31 -4.51,8.34 0,5.24 3.63,9.14 10.96,11.69 7.26,2.56 15.33,4.11 24.2,4.71 8.87,0.61 19.83,1.01 32.8,1.28 25.48,0.67 43.63,1.21 54.45,1.68 10.82,0.47 21.78,2.15 32.81,5.04 11.02,2.82 19.69,7.8 26.08,14.86 6.32,6.99 9.54,17 9.54,29.98 0,21.31 -10.55,38.72 -31.52,52.29 -21.04,13.58 -57.34,20.37 -108.9,20.37 -18.69,0 -36.44,-0.74 -53.37,-2.28 -16.95,-1.48 -31.94,-4.71 -44.91,-9.68 -13.04,-4.98 -19.49,-12.17 -19.49,-21.45 0,-14.25 13.31,-22.31 39.93,-24.13 -12.57,-4.64 -22.32,-11.02 -29.25,-19.36 -6.85,-8.27 -10.28,-17.01 -10.28,-26.35 0,-12.23 5.04,-23.19 15.12,-32.87 10.15,-9.75 26.76,-17.01 49.81,-21.91zm-14.51 104.79c-5.32,4.98 -7.94,10.36 -7.94,16.07 0,7.33 5.52,13.78 16.61,19.22 11.02,5.52 30.45,8.27 58.28,8.27 53.3,0 79.99,-7.93 79.99,-23.73 0,-4.57 -2.42,-7.32 -7.33,-8.4 -4.84,-1.07 -12.23,-1.75 -22.18,-2.15 -27.22,-0.54 -49.14,-1.41 -65.74,-2.55 -16.6,-1.21 -33.88,-3.43 -51.69,-6.73zm55.32 -204.55l0 74.35c0,14.18 6.05,21.3 18.15,21.3 12.1,0 18.15,-7.12 18.15,-21.3l0 -74.35c0,-14.32 -6.05,-21.51 -18.15,-21.51 -12.1,0 -18.15,7.19 -18.15,21.51zm327.23 168.25l-155.01 0 0 -9.67 24.2 0 0 -175.05 -24.2 0 0 -9.68 29.51 0c36.84,0 66.55,-2.42 89.07,-7.26 -3.3,16.27 -4.91,34.55 -4.91,54.92l0 9.68 2.35 0c5.92,-18.55 15.87,-33.54 29.85,-45.04 14.05,-11.49 30.11,-17.21 48.26,-17.21 13.25,0 24.74,4.64 34.49,13.99 9.75,9.27 14.59,22.45 14.59,39.39 0,13.24 -4.1,24.47 -12.24,33.67 -8.13,9.21 -18.95,13.78 -32.47,13.78 -12.83,0 -23.93,-3.69 -33.27,-11.02 -9.34,-7.33 -13.98,-17.54 -13.98,-30.52 0,-7.73 2.01,-14.45 6.11,-20.1 2.76,-3.69 4.11,-5.98 4.11,-6.85 0,-1.08 -1.22,-1.62 -3.77,-1.62 -5.38,0 -11.23,3.43 -17.48,10.22 -6.25,6.86 -11.42,16 -15.53,27.49 -4.1,11.5 -6.11,23.67 -6.11,36.51l0 84.7 36.43 0 0 9.67zm105.94 -97.33c0,-14.12 2.89,-27.43 8.74,-39.93 5.85,-12.44 14.19,-23.33 24.94,-32.54 10.76,-9.27 23.53,-16.47 38.32,-21.64 14.72,-5.18 31.25,-7.8 49.54,-7.8 18.35,0 34.95,2.62 49.88,7.87 14.92,5.24 27.69,12.5 38.31,21.77 10.62,9.21 18.82,20.04 24.54,32.47 5.71,12.37 8.54,25.68 8.54,39.8 0,14.18 -2.83,27.42 -8.47,39.79 -5.65,12.31 -13.79,23.19 -24.54,32.54 -10.69,9.41 -23.59,16.74 -38.79,21.98 -15.12,5.24 -31.66,7.86 -49.47,7.86 -17.61,0 -33.95,-2.62 -49.07,-7.79 -15.13,-5.18 -28.03,-12.44 -38.86,-21.85 -10.89,-9.34 -19.15,-20.23 -24.94,-32.67 -5.78,-12.37 -8.67,-25.68 -8.67,-39.86zm102.58 -70.79l0 141.64c0,5.65 1.14,10.62 3.36,14.85 2.22,4.24 7.4,6.39 15.6,6.39 8.13,0 13.31,-2.15 15.53,-6.39 2.22,-4.23 3.36,-9.2 3.36,-14.85l0 -141.64c0,-14.31 -6.32,-21.44 -18.89,-21.44 -12.64,0 -18.96,7.13 -18.96,21.44zm320.98 -16.6l-11.22 0 0 -9.68 16.53 0c37.04,0 66.75,-2.42 89.07,-7.26l0 191.99 24.2 0 0 9.67 -24.2 0c-33.34,0 -62.92,2.42 -88.66,7.26l0 -35.42 -2.56 0c-7.73,9.68 -17.88,17.68 -30.31,23.79 -12.51,6.19 -26.62,9.28 -42.56,9.28 -25.94,0 -42.88,-8.67 -50.75,-26.01 -7.86,-17.28 -11.83,-34.49 -11.83,-51.56l0 -112.06 -24.2 0 0 -9.68 29.51 0c36.84,0 66.55,-2.42 89.07,-7.26l0 154.74c0,6.73 1.08,12.17 3.23,16.34 2.22,4.23 6.65,6.32 13.37,6.32 8.95,0 14.73,-3.97 17.35,-11.9 2.62,-7.93 3.96,-15.8 3.96,-23.53l0 -125.03zm282.4 277.49l-142.78 0 0 -9.68 24.2 0 0 -267.81 -24.2 0 0 -9.68 24.2 0c33.34,0 62.92,-2.42 88.67,-7.26l0 35.43 2.55 0c12.64,-22.05 34.69,-33.08 66.21,-33.08 16.94,0 31.19,4.37 42.82,13.18 11.63,8.8 20.3,20.7 26.02,35.83 5.71,15.12 8.53,31.86 8.53,50.21 0,10.35 -1.41,23.19 -4.3,38.52 -2.89,15.26 -10.42,30.18 -22.45,44.63 -12.1,14.52 -30.11,21.78 -53.98,21.78 -6.45,0 -12.9,-0.6 -19.29,-1.88 -6.45,-1.21 -13.11,-3.7 -20.03,-7.46 -6.86,-3.7 -13.65,-9.08 -20.37,-16l0 103.59 24.2 0 0 9.68zm13.78 -134.31l0 -108.9c0,-6.58 -1.08,-11.96 -3.23,-16.26 -2.15,-4.24 -6.59,-6.39 -13.31,-6.39 -6.11,0 -10.89,2.28 -14.18,6.86 -3.23,4.63 -5.31,9.47 -6.05,14.58 -0.81,5.11 -1.21,9.88 -1.21,14.19l0 83.08c0,4.24 0.4,8.88 1.21,13.98 0.74,5.18 2.82,10.02 6.05,14.59 3.29,4.64 8.07,6.93 14.18,6.93 6.72,0 11.16,-2.16 13.31,-6.39 2.15,-4.3 3.23,-9.75 3.23,-16.27zm457.64 -240.78l-185.53 375.09 -16.13 0 185.53 -375.09 16.13 0zm240.05 271.84l0 -261.29c-16.13,0.94 -29.98,5.98 -41.41,15.26 -11.36,9.27 -20.23,20.7 -26.55,34.35 -6.32,13.64 -10.29,27.22 -12.03,40.6l-10.43 0 0 -100.76 302.5 0 0 100.76 -10.42 0c-1.75,-13.38 -5.71,-26.96 -12.03,-40.6 -6.32,-13.65 -15.19,-25.08 -26.55,-34.35 -11.43,-9.28 -25.21,-14.32 -41.41,-15.26l0 261.29 36.43 0 0 10.48 -194.54 0 0 -10.48 36.44 0zm481.17 -17.28l6.11 6.25c-4.57,5.52 -10.55,10.29 -17.94,14.39 -7.33,4.03 -15.13,7.06 -23.4,9.01 -8.33,1.95 -15.93,2.95 -22.85,2.95 -11.97,0 -22.12,-2.35 -30.39,-7.05 -8.26,-4.71 -15.99,-12.31 -23.26,-22.79 -25.74,19.89 -51.82,29.84 -78.37,29.84 -17.35,0 -32,-4.57 -44.03,-13.78 -12.04,-9.14 -18.02,-22.58 -18.02,-40.33 0,-17.27 5.85,-30.65 17.61,-40.06 11.77,-9.48 27.5,-15.93 47.19,-19.43 19.7,-3.43 43.43,-5.38 71.12,-5.78l0 -55.99c0,-8 -1.28,-13.52 -3.76,-16.54 -2.49,-3.03 -8.94,-4.57 -19.36,-4.57 -9.88,0 -14.79,2.21 -14.79,6.52 0,1.34 1.41,4.1 4.17,8.33 2.75,4.3 4.37,6.86 4.77,7.8 1.81,4.1 2.76,8.67 2.76,13.78 0,11.03 -4.51,19.7 -13.52,25.95 -9,6.32 -19.83,9.47 -32.4,9.47 -13.44,0 -23.93,-3.15 -31.46,-9.54 -7.59,-6.39 -11.36,-14.72 -11.36,-25.07 0,-13.78 8.2,-25.08 24.54,-33.75 16.33,-8.74 43.83,-13.11 82.28,-13.11 43.62,0 71.66,6.12 83.96,18.42 12.36,12.24 18.55,26.69 18.55,43.23l0 106.94c0,7.87 3.29,11.77 9.88,11.77 3.9,0 7.93,-2.29 11.97,-6.86zm-116.23 -23.32l0 -51.76c-2.75,-0.81 -8,-1.21 -15.8,-1.21 -8.53,0 -14.38,2.55 -17.47,7.66 -3.1,5.11 -4.64,13.31 -4.64,24.67l0 18.28c0,9.15 1.81,16.4 5.44,21.65 3.63,5.31 8.14,8 13.51,8 12.64,0 18.96,-9.14 18.96,-27.29zm164.49 -133.64l-24.2 0 0 -9.68 29.51 0c36.84,0 66.55,-2.42 89.07,-7.26l0 226.2c0,16.07 -3.43,29.51 -10.35,40.4 -6.86,10.89 -16.47,19.02 -28.7,24.47 -12.31,5.44 -26.56,8.2 -42.82,8.2 -15.2,0 -28.24,-3.03 -39.06,-9.14 -10.82,-6.12 -16.27,-15.6 -16.27,-28.44 0,-11.02 3.77,-19.49 11.23,-25.34 7.53,-5.91 17.21,-8.87 29.17,-8.87 6.46,0 12.5,1.21 18.15,3.63 5.65,2.42 10.15,6.05 13.65,10.82 3.49,4.77 5.24,10.49 5.24,17.01 0,6.85 -1.41,12.9 -4.23,18.28 -2.83,5.38 -7.33,8.94 -13.45,10.62 2.62,1.08 5.78,1.62 9.61,1.62 10.36,0 18.22,-3.77 23.67,-11.23 5.44,-7.46 8.2,-16.74 8.2,-27.76 0,-15.2 -6.05,-27.63 -18.09,-37.18 -10.01,-7.73 -23.39,-11.63 -40.33,-11.63l0 -184.72zm8.07 -67.76c0,-8 2.55,-14.99 7.73,-20.9 5.17,-5.99 15.66,-8.94 31.39,-8.94 15.73,0 26.22,2.95 31.39,8.94 5.18,5.91 7.73,12.9 7.73,20.9 0,4.71 -0.87,9.21 -2.55,13.58 -1.68,4.3 -5.51,8.07 -11.43,11.36 -5.85,3.29 -14.25,4.91 -25.14,4.91 -10.89,0 -19.29,-1.62 -25.14,-4.91 -5.91,-3.29 -9.75,-7.06 -11.43,-11.36 -1.68,-4.37 -2.55,-8.87 -2.55,-13.58zm269.22 252.48l-142.58 0 0 -9.67 24.2 0 0 -175.05 -24.2 0 0 -9.68 29.51 0c36.84,0 66.55,-2.42 89.07,-7.26l0 191.99 24 0 0 9.67zm-110.31 -252.48c0,-8 2.55,-14.99 7.73,-20.9 5.18,-5.99 15.66,-8.94 31.39,-8.94 15.73,0 26.22,2.95 31.39,8.94 5.18,5.91 7.73,12.9 7.73,20.9 0,4.71 -0.87,9.21 -2.55,13.58 -1.68,4.3 -5.51,8.07 -11.43,11.36 -5.85,3.29 -14.25,4.91 -25.14,4.91 -10.89,0 -19.29,-1.62 -25.14,-4.91 -5.91,-3.29 -9.75,-7.06 -11.43,-11.36 -1.68,-4.37 -2.55,-8.87 -2.55,-13.58zm158.91 -19.76l-24.2 0 0 -10.08 29.51 0c22.12,0 39.93,-0.61 53.37,-1.89 13.45,-1.21 25.35,-2.95 35.7,-5.17l0 186.2 65.67 -49.27c5.65,-4.57 9.95,-8.41 12.91,-11.5 2.96,-3.09 4.44,-6.39 4.44,-9.95 0,-4.57 -1.95,-7.53 -5.85,-8.87 -3.83,-1.28 -9.14,-1.95 -15.86,-1.95l-19.84 0 0 -9.68 136.46 0 0 9.68c-9.07,0.67 -17.88,1.81 -26.48,3.43 -8.61,1.68 -17.14,3.96 -25.61,6.92 -8.47,2.96 -16.54,6.46 -24.14,10.49 -7.59,4.1 -15.19,8.94 -22.65,14.59l98.88 139.62 13.18 0 0 9.67 -143.59 0 0 -9.67 24.27 0 -58.21 -91.56 -13.58 10.01 0 81.55 12.77 0 0 9.67 -131.35 0 0 -9.67 24.2 0 0 -262.57zm445.88 272.24l-142.58 0 0 -9.67 24.2 0 0 -175.05 -24.2 0 0 -9.68 29.51 0c36.84,0 66.55,-2.42 89.07,-7.26l0 191.99 24 0 0 9.67zm-110.31 -252.48c0,-8 2.55,-14.99 7.73,-20.9 5.17,-5.99 15.66,-8.94 31.39,-8.94 15.73,0 26.22,2.95 31.39,8.94 5.18,5.91 7.73,12.9 7.73,20.9 0,4.71 -0.87,9.21 -2.55,13.58 -1.68,4.3 -5.51,8.07 -11.43,11.36 -5.85,3.29 -14.25,4.91 -25.14,4.91 -10.89,0 -19.29,-1.62 -25.14,-4.91 -5.92,-3.29 -9.75,-7.06 -11.43,-11.36 -1.68,-4.37 -2.55,-8.87 -2.55,-13.58zm341.14 54.85l0 55.6 -9.61 0c-6.79,-13.72 -17.74,-24.61 -32.67,-32.61 -18.48,-9.95 -40.6,-14.92 -66.14,-14.92 -11.7,0 -19.83,1.68 -24.34,5.11 -4.5,3.43 -6.79,7.33 -6.79,11.76 0,4.24 1.82,7.8 5.38,10.83 3.63,3.02 7.93,5.37 12.91,7.05 4.97,1.75 11.83,3.5 20.57,5.45 8.74,1.88 13.85,3.02 15.26,3.43 24.8,5.78 44.23,11.22 58.28,16.33 14.05,5.11 25.74,12.64 35.02,22.52 9.34,9.95 13.98,22.86 13.98,38.92 0,8.47 -1.95,17.08 -5.91,25.75 -3.9,8.67 -10.15,16.6 -18.69,23.73 -8.54,7.12 -19.77,12.84 -33.68,17.14 -13.91,4.23 -30.25,6.38 -49,6.38 -35.03,0 -63.8,-6.18 -86.25,-18.55l-18.69 16.94 -9.67 0 -6.46 -76.83 9.82 0c11.56,21.84 27.42,38.58 47.66,50.14 20.23,11.63 41.2,17.41 62.85,17.41 16.4,0 28.09,-2.15 35.09,-6.38 6.92,-4.24 10.42,-8.67 10.42,-13.24 0,-6.46 -2.63,-10.89 -7.87,-13.31 -5.24,-2.42 -13.64,-4.78 -25.21,-7.13 -21.84,-4.97 -39.66,-9.48 -53.57,-13.51 -13.92,-3.97 -26.69,-9.14 -38.32,-15.39 -11.63,-6.32 -20.7,-14.19 -27.29,-23.67 -6.59,-9.54 -9.88,-21.04 -9.88,-34.55 0,-13.58 5.58,-28.03 16.67,-43.22 11.09,-15.19 34.95,-22.79 71.59,-22.79 7.6,0 15.73,0.2 24.4,0.67 8.67,0.47 19.16,1.88 31.53,4.17 12.37,2.29 24.06,5.71 35.22,10.15l13.78 -13.38 9.61 0zm70.25 12.91l-24.2 0 0 -9.68c23.73,-0.94 44.97,-9.01 63.8,-24.2 18.82,-15.26 32.6,-33.81 41.4,-55.73l13.38 0 0 79.93 44.43 0 0 9.68 -44.43 0 0 135.99c0,6.65 0.87,12.44 2.55,17.27 1.75,4.84 5.52,7.27 11.43,7.27 7.93,0 14.12,-4.64 18.69,-13.85 4.5,-9.21 7.33,-19.23 8.4,-29.98l9.82 0c-1.15,11.83 -4.1,23.19 -8.74,33.94 -4.64,10.83 -12.3,20.03 -22.92,27.56 -10.62,7.6 -24.54,11.36 -41.75,11.36 -22.18,0 -39.73,-4.5 -52.57,-13.57 -12.84,-9.08 -19.29,-21.18 -19.29,-36.44l0 -139.55zm418.32 156.96l6.12 6.25c-4.57,5.52 -10.56,10.29 -17.95,14.39 -7.33,4.03 -15.13,7.06 -23.4,9.01 -8.33,1.95 -15.93,2.95 -22.85,2.95 -11.97,0 -22.12,-2.35 -30.38,-7.05 -8.27,-4.71 -16,-12.31 -23.26,-22.79 -25.75,19.89 -51.83,29.84 -78.38,29.84 -17.35,0 -32,-4.57 -44.03,-13.78 -12.03,-9.14 -18.02,-22.58 -18.02,-40.33 0,-17.27 5.85,-30.65 17.61,-40.06 11.77,-9.48 27.5,-15.93 47.19,-19.43 19.7,-3.43 43.43,-5.38 71.12,-5.78l0 -55.99c0,-8 -1.27,-13.52 -3.76,-16.54 -2.49,-3.03 -8.94,-4.57 -19.36,-4.57 -9.88,0 -14.79,2.21 -14.79,6.52 0,1.34 1.41,4.1 4.17,8.33 2.76,4.3 4.37,6.86 4.77,7.8 1.82,4.1 2.76,8.67 2.76,13.78 0,11.03 -4.51,19.7 -13.51,25.95 -9.01,6.32 -19.83,9.47 -32.4,9.47 -13.45,0 -23.94,-3.15 -31.46,-9.54 -7.6,-6.39 -11.36,-14.72 -11.36,-25.07 0,-13.78 8.2,-25.08 24.53,-33.75 16.34,-8.74 43.83,-13.11 82.28,-13.11 43.63,0 71.66,6.12 83.96,18.42 12.37,12.24 18.55,26.69 18.55,43.23l0 106.94c0,7.87 3.3,11.77 9.88,11.77 3.9,0 7.94,-2.29 11.97,-6.86zm-116.23 -23.32l0 -51.76c-2.75,-0.81 -8,-1.21 -15.79,-1.21 -8.54,0 -14.39,2.55 -17.48,7.66 -3.09,5.11 -4.64,13.31 -4.64,24.67l0 18.28c0,9.15 1.82,16.4 5.45,21.65 3.63,5.31 8.13,8 13.51,8 12.64,0 18.95,-9.14 18.95,-27.29zm270.1 51.08l-129.81 0 0 -9.67 24.2 0 0 -175.05 -24.2 0 0 -9.68 24.2 0c33.41,0 62.99,-2.42 88.67,-7.26l0 35.43 2.35 0c11.83,-14.19 24,-23.26 36.37,-27.16 12.43,-3.97 24.73,-5.92 36.77,-5.92 13.17,0 24.47,3.5 33.94,10.56 9.48,6.99 16.61,16.47 21.38,28.43 4.77,11.97 7.19,24.81 7.19,38.59l0 112.06 24.2 0 0 9.67 -129.8 0 0 -9.67 11.23 0 0 -138.01c0,-14.99 -5.52,-22.45 -16.61,-22.45 -9.07,0 -14.92,3.9 -17.48,11.76 -2.55,7.93 -3.83,15.8 -3.83,23.66l0 125.04 11.23 0 0 9.67z"/>
 </g>
</svg>
