<?xml version="1.0" encoding="utf-8"?>
<!-- Generator: Adobe Illustrator 24.3.0, SVG Export Plug-In . SVG Version: 6.00 Build 0)  -->
<svg version="1.0" id="Слой_1" xmlns="http://www.w3.org/2000/svg" xmlns:xlink="http://www.w3.org/1999/xlink" x="0px" y="0px"
	 viewBox="0 0 595.28 841.89" style="enable-background:new 0 0 595.28 841.89;" xml:space="preserve">
<style type="text/css">
	.st0{fill:#FAFAFA;}
	.st1{fill-rule:evenodd;clip-rule:evenodd;fill:#0456A2;}
	.st2{fill-rule:evenodd;clip-rule:evenodd;fill:#F07F1C;}
	.st3{fill:#0456A2;}
</style>
<path class="st0" d="M319.07,357.43h-60c-13.81,0-25-11.19-25-25v-60c0-13.81,11.19-25,25-25h60c13.81,0,25,11.19,25,25v60
	C344.07,346.23,332.88,357.43,319.07,357.43z"/>
<g>
	<path class="st1" d="M266.11,305.88h0.01l0.97-7.11h0l1.37-9.99h-8.41l-2.34,17.1l-0.36,2.64h0.02l-0.21,1.51
		c1.84-0.97,3.94-1.51,6.14-1.51h2.47l0.3-2.2h-0.02L266.11,305.88z M269.57,296.99h6.48c2.76,0,4.72,2.26,4.34,5.03l-0.5,3.68
		c-0.38,2.76-2.95,5.03-5.71,5.03h2.07c5.64,0,10.54-3.57,12.44-8.59c0.04-7.14-5.86-13.35-13.35-13.35h-4.63L269.57,296.99z
		 M269.57,296.99"/>
	<path class="st2" d="M254.1,314.14c-1.46,1.32-2.64,2.95-3.4,4.79h24.19c3.39,0,6.52-1.29,8.88-3.41c2.27-2.04,3.85-4.85,4.28-8.02
		l0.5-3.68c0.08-0.56,0.12-1.13,0.12-1.68c-1.9,5.02-6.8,8.59-12.44,8.59h-13.26C259.59,310.73,256.46,312.02,254.1,314.14"/>
	<path class="st1" d="M304.74,301.44h-6.16c-1.96,0-3.34-1.6-3.07-3.56l0.36-2.61c0.27-1.96,2.09-3.56,4.04-3.56h-1.46
		c-3.99,0-7.46,2.53-8.8,6.08c-0.03,5.06,4.15,9.45,9.45,9.45h6.86l0.79-5.81H304.74z M307.52,307.25h1.62l0.79-5.81h-1.62
		L307.52,307.25z M307.52,307.25"/>
	<path class="st2" d="M311.64,289.3c1.04-0.93,1.87-2.09,2.41-3.39h-14.66c-2.4,0-4.61,0.91-6.28,2.42
		c-1.61,1.44-2.72,3.43-3.03,5.68l-0.36,2.61c-0.05,0.4-0.08,0.8-0.08,1.19c1.34-3.55,4.81-6.08,8.8-6.08h6.92
		C307.76,291.72,309.97,290.81,311.64,289.3"/>
	<path class="st3" d="M317.03,306.64c0,0.18-0.06,0.33-0.17,0.44c-0.11,0.11-0.26,0.17-0.44,0.17h-2.07c-0.18,0-0.33-0.06-0.44-0.17
		c-0.11-0.11-0.17-0.26-0.17-0.44v-6.99c0-0.18,0.06-0.33,0.17-0.44c0.11-0.11,0.26-0.17,0.44-0.17h2.07c0.18,0,0.32,0.06,0.44,0.17
		c0.11,0.11,0.17,0.26,0.17,0.44v1.88h-0.73v-1.85h-1.83v6.92h1.83v-2.02h0.73V306.64z M319.08,307.25h-0.73v-8.21h0.73V307.25z
		 M323.27,299.69h-1.27v7.56h-0.73v-7.56H320v-0.64h3.28V299.69z M327.45,299.09l-1,3.32c-0.13,0.33-0.29,0.89-0.5,1.66v3.18h-0.73
		v-3.18c-0.05-0.26-0.13-0.55-0.23-0.84c-0.17-0.5-0.26-0.78-0.27-0.82l-1-3.32c0,0,0-0.02,0-0.05h0.74l1.14,4.11l1.13-4.11h0.73
		C327.45,299.07,327.45,299.08,327.45,299.09"/>
	<path class="st3" d="M296.05,317.46c0,0.43-0.14,0.79-0.43,1.06c-0.28,0.28-0.64,0.42-1.08,0.42h-1.87v-8.19h1.87
		c0.44,0,0.79,0.14,1.08,0.42c0.28,0.28,0.42,0.63,0.42,1.06V317.46z M295.32,317.38v-5.09c0-0.27-0.08-0.49-0.25-0.65
		c-0.17-0.17-0.39-0.25-0.66-0.25h-1.01v6.9h0.97c0.28,0,0.51-0.08,0.69-0.24C295.24,317.89,295.32,317.67,295.32,317.38
		L295.32,317.38z M300.72,318.33c0,0.18-0.06,0.33-0.17,0.44c-0.11,0.11-0.26,0.17-0.44,0.17h-2.18c-0.18,0-0.33-0.06-0.44-0.17
		c-0.11-0.11-0.17-0.26-0.17-0.44v-7.58h0.73v7.54H300v-7.54h0.73V318.33z M305.22,318.33c0,0.18-0.06,0.33-0.17,0.44
		c-0.11,0.11-0.26,0.17-0.44,0.17h-2.01c-0.18,0-0.32-0.06-0.44-0.17c-0.11-0.11-0.17-0.26-0.17-0.44v-2.05h0.73v2.01h1.77v-1.96
		l-2.26-2.73c-0.16-0.19-0.24-0.39-0.24-0.62v-1.64c0-0.18,0.06-0.33,0.17-0.44c0.11-0.11,0.26-0.17,0.44-0.17h2.01
		c0.18,0,0.33,0.06,0.44,0.17c0.11,0.11,0.17,0.26,0.17,0.44v1.88h-0.73v-1.84h-1.77v1.73l2.27,2.72c0.15,0.18,0.22,0.39,0.22,0.61
		V318.33z M309.94,318.94h-0.73v-3.93h-1.97v3.93h-0.73v-8.19h0.73v3.6h1.97v-3.6h0.73V318.94z M314.54,318.94h-0.72l-0.29-1.81
		h-1.63l-0.29,1.81h-0.7v-0.02l1.46-8.19h0.72L314.54,318.94z M313.44,316.48l-0.72-4.44l-0.72,4.44H313.44z M318.9,318.94h-0.5
		l-2.19-6.02v6.02h-0.69v-8.19h0.54l2.14,5.92v-5.92h0.69V318.94z M323.49,318.33c0,0.18-0.06,0.33-0.17,0.44
		c-0.11,0.11-0.26,0.17-0.44,0.17h-2.67v-8.19h2.65c0.18,0,0.33,0.06,0.44,0.17c0.11,0.11,0.17,0.26,0.17,0.44v2.68
		c0,0.15-0.1,0.27-0.29,0.37c-0.19,0.08-0.38,0.16-0.57,0.24l0.61,0.26c0.18,0.07,0.27,0.19,0.27,0.34V318.33z M322.74,313.85v-2.46
		h-1.8v2.95h1.07L322.74,313.85z M322.76,318.29v-2.84l-0.74-0.48h-1.08v3.32H322.76z M327.45,318.94h-2.69v-8.19h2.66v0.64h-1.93
		v3.05h1.76v0.65h-1.76v3.19h1.96V318.94z M327.45,318.94"/>
</g>
</svg>
