<svg width="1163" height="500" viewBox="0 0 1163 500" fill="none" xmlns="http://www.w3.org/2000/svg">
<path fill-rule="evenodd" clip-rule="evenodd" d="M233.529 302.21H233.702L248.497 194.519L269.16 43.3372H141.704L106.32 302.21L100.846 342.224H101.191L98.0596 365.079C126.751 350.028 158.668 342.168 191.069 342.175H228.401L232.962 308.793H232.617L233.529 302.21ZM285.878 167.596H384.016C425.934 167.596 455.523 201.841 449.729 243.705L442.109 299.498C436.389 341.411 397.454 375.606 355.585 375.606H386.876C427.744 375.504 467.62 363.012 501.24 339.78C534.86 316.547 560.644 283.667 575.187 245.48C575.804 137.296 486.419 43.3125 372.994 43.3125H302.867L285.878 167.596Z" fill="#0456A2"/>
<path fill-rule="evenodd" clip-rule="evenodd" d="M51.5279 427.457C29.1577 447.495 11.5522 472.281 0 500H366.316C414.767 499.877 461.553 482.317 498.116 450.533C534.678 418.749 558.572 374.866 565.426 326.913L573.044 271.131C574.203 262.693 574.805 254.187 574.844 245.669C560.302 283.848 534.522 316.721 500.906 339.948C467.291 363.176 427.42 375.665 386.558 375.768H185.944C136.278 375.812 88.3902 394.253 51.5279 427.531" fill="#F07F1C"/>
<path fill-rule="evenodd" clip-rule="evenodd" d="M818.367 234.917H724.995C695.4 234.917 674.412 210.667 678.457 181.039L683.858 141.568C687.902 111.964 715.475 87.6646 745.119 87.6646H722.923C694.017 87.764 665.819 96.6215 642.045 113.07C618.271 129.518 600.037 152.785 589.746 179.805C589.326 256.404 652.586 322.889 732.788 322.889H836.691L848.726 234.868L818.367 234.917ZM860.564 322.938H885.054L897.089 234.917H872.575L860.564 322.938Z" fill="#0456A2"/>
<path fill-rule="evenodd" clip-rule="evenodd" d="M922.979 51.3072C938.807 37.1249 951.269 19.5974 959.46 0H737.467C703.153 0.0696489 670.012 12.4786 644.112 34.9552C618.211 57.4317 601.283 88.4719 596.428 122.393L591.026 161.804C590.222 167.781 589.794 173.803 589.744 179.834C600.037 152.855 618.273 129.624 642.05 113.201C665.827 96.7786 694.029 87.9348 722.939 87.8355H827.744C862.903 87.8039 896.808 74.7839 922.929 51.2825" fill="#F07F1C"/>
<path d="M1004.58 313.71C1004.62 314.934 1004.42 316.155 1003.97 317.296C1003.53 318.437 1002.85 319.474 1001.99 320.342C1001.12 321.192 1000.09 321.859 998.953 322.304C997.82 322.748 996.609 322.962 995.393 322.931H964.171C962.949 322.98 961.729 322.775 960.59 322.328C959.451 321.882 958.416 321.205 957.551 320.339C956.686 319.472 956.01 318.436 955.564 317.296C955.118 316.155 954.914 314.934 954.962 313.71V207.864C954.914 206.64 955.118 205.42 955.564 204.279C956.01 203.138 956.686 202.102 957.551 201.236C958.416 200.37 959.451 199.692 960.59 199.246C961.729 198.8 962.949 198.595 964.171 198.643H995.491C996.708 198.607 997.921 198.818 999.055 199.263C1000.19 199.708 1001.22 200.378 1002.09 201.232C1002.95 202.101 1003.63 203.138 1004.07 204.279C1004.52 205.42 1004.72 206.64 1004.68 207.864V236.391H993.644V208.407H966.018V313.291H993.644V282.57H1004.58V313.71ZM1035.58 322.931H1024.55V198.643H1035.58V322.931ZM1098.96 208.407H1079.8V322.931H1068.84V208.407H1049.51V198.545H1099.05L1098.96 208.407ZM1162.16 199.358L1146.99 249.606C1145.07 254.652 1142.55 263.052 1139.41 274.804V322.931H1128.43V274.804C1127.62 270.481 1126.47 266.228 1125.01 262.082C1122.54 254.463 1121.07 250.321 1120.87 249.606L1105.7 199.358V198.643H1116.91L1134.14 260.824L1151.38 198.643H1162.16V199.358" fill="#0456A2"/>
<path d="M686.901 477.504C687.003 480.487 686.481 483.458 685.369 486.228C684.257 488.997 682.579 491.504 680.443 493.587C678.301 495.69 675.755 497.336 672.958 498.425C670.162 499.515 667.174 500.025 664.175 499.926H635.828V375.927H664.249C667.256 375.821 670.253 376.328 673.059 377.418C675.864 378.508 678.418 380.158 680.566 382.266C682.69 384.357 684.356 386.865 685.459 389.634C686.563 392.403 687.079 395.37 686.975 398.349L686.901 477.504ZM675.883 476.394V399.311C675.955 397.49 675.65 395.674 674.989 393.976C674.327 392.279 673.322 390.736 672.038 389.444C670.729 388.191 669.182 387.213 667.488 386.569C665.794 385.925 663.989 385.628 662.178 385.695H646.896V490.207H661.513C665.327 490.389 669.06 489.07 671.914 486.532C673.272 485.235 674.334 483.66 675.027 481.915C675.721 480.169 676.029 478.295 675.932 476.419L675.883 476.394ZM757.62 490.725C757.672 491.948 757.47 493.167 757.027 494.307C756.583 495.447 755.908 496.483 755.043 497.348C754.179 498.213 753.144 498.889 752.005 499.332C750.866 499.776 749.647 499.978 748.426 499.926H715.396C714.174 499.978 712.955 499.776 711.816 499.332C710.677 498.889 709.642 498.213 708.778 497.348C707.914 496.483 707.238 495.447 706.795 494.307C706.351 493.167 706.149 491.948 706.202 490.725V375.927H717.244V490.183H746.602V375.927H757.62V490.725ZM825.75 490.725C825.814 491.95 825.62 493.175 825.18 494.321C824.741 495.466 824.066 496.506 823.199 497.373C822.332 498.241 821.293 498.916 820.148 499.356C819.004 499.796 817.78 499.99 816.556 499.926H786.114C784.908 499.981 783.703 499.79 782.571 499.366C781.44 498.942 780.407 498.294 779.533 497.459C778.661 496.595 777.979 495.559 777.529 494.417C777.08 493.274 776.872 492.051 776.92 490.824V459.67H787.963V490.183H814.732V460.583L780.494 419.34C778.21 416.741 776.94 413.404 776.92 409.942V385.276C776.872 384.049 777.08 382.826 777.529 381.683C777.979 380.541 778.661 379.505 779.533 378.64C780.407 377.806 781.44 377.157 782.571 376.733C783.703 376.31 784.908 376.119 786.114 376.174H816.556C817.78 376.11 819.004 376.304 820.148 376.744C821.293 377.184 822.332 377.859 823.199 378.727C824.066 379.594 824.741 380.634 825.18 381.779C825.62 382.925 825.814 384.149 825.75 385.374V413.84H814.732V385.67H787.963V411.94L822.349 453.208C824.549 455.786 825.756 459.067 825.75 462.458V490.725ZM897.233 499.926H886.091V440.356H856.241V499.926H845.223V375.927H856.241V430.465H886.091V375.927H897.109L897.233 499.926ZM966.965 499.926H956.095L951.732 472.497H927.083L922.695 499.926H912.17V499.605L934.354 375.606H945.2L966.965 499.926ZM950.179 462.754L939.309 395.463L928.34 462.754H950.179ZM1032.83 499.926H1025.24L992.083 408.734V500H981.73V375.927H989.963L1022.45 465.541V375.927H1032.83V499.926ZM1102.24 490.725C1102.3 491.95 1102.1 493.173 1101.66 494.316C1101.22 495.46 1100.55 496.498 1099.68 497.365C1098.81 498.231 1097.78 498.907 1096.63 499.348C1095.49 499.789 1094.27 499.986 1093.05 499.926H1052.6V375.927H1092.73C1093.94 375.869 1095.15 376.057 1096.29 376.481C1097.43 376.905 1098.47 377.556 1099.36 378.394C1100.2 379.272 1100.85 380.315 1101.28 381.456C1101.7 382.597 1101.89 383.813 1101.82 385.029V425.63C1101.82 427.875 1100.37 429.75 1097.41 431.254L1088.73 434.831L1098.03 438.802C1099.18 439.111 1100.21 439.788 1100.95 440.731C1101.7 441.674 1102.11 442.832 1102.14 444.032L1102.24 490.725ZM1090.88 422.868V385.67H1063.57V430.292H1079.81L1090.88 422.868ZM1091.22 490.183V447.189L1080.06 439.789H1063.57V490.084L1091.22 490.183ZM1162.16 499.926H1121.52V375.927H1161.74V385.794H1132.58V431.92H1159.18V441.787H1132.58V490.158H1162.16V499.926Z" fill="#0456A2"/>
</svg>
