<svg width="15" height="22" viewBox="0 0 15 22" fill="none" xmlns="http://www.w3.org/2000/svg">
<path fill-rule="evenodd" clip-rule="evenodd" d="M1.88774 0.0196571H13.1311C13.6152 0.0105196 14.0833 0.193102 14.4334 0.527611C14.7835 0.86212 14.9871 1.32144 15 1.80546V19.6257C14.9871 20.1094 14.7834 20.5684 14.4332 20.9023C14.083 21.2362 13.6149 21.4179 13.1311 21.4078H1.88774C1.64663 21.4153 1.40641 21.3752 1.18087 21.2896C0.955328 21.204 0.748921 21.0747 0.573505 20.9091C0.398089 20.7435 0.257122 20.5449 0.158701 20.3246C0.060281 20.1044 0.00634794 19.8669 0 19.6257V1.78658C0.00635453 1.54527 0.060263 1.30758 0.158637 1.08714C0.25701 0.866694 0.397915 0.667828 0.573278 0.501935C0.748641 0.336042 0.955015 0.206382 1.18057 0.120384C1.40613 0.0343867 1.64645 -0.00625754 1.88774 0.000779952" fill="white"/>
<path fill-rule="evenodd" clip-rule="evenodd" d="M13.1311 0.163126H1.88774C1.43836 0.161719 1.0057 0.333432 0.679587 0.642613C0.523636 0.787631 0.398727 0.962781 0.312417 1.15746C0.226108 1.35215 0.180191 1.56232 0.177448 1.77526V19.6257C0.180191 19.8387 0.226108 20.0489 0.312417 20.2435C0.398727 20.4382 0.523636 20.6134 0.679587 20.7584C1.0057 21.0676 1.43836 21.2393 1.88774 21.2379H13.1311C13.578 21.2463 14.0113 21.0843 14.3431 20.7848C14.4978 20.6391 14.6217 20.4637 14.7073 20.2691C14.7929 20.0745 14.8385 19.8647 14.8414 19.6522V1.78658C14.8385 1.57403 14.7929 1.36422 14.7073 1.16964C14.6217 0.975065 14.4978 0.799689 14.3431 0.65394C14.0154 0.344855 13.5816 0.173239 13.1311 0.174453V0.163126ZM1.88774 0.0196581H13.1311C13.6152 0.0105206 14.0833 0.193103 14.4334 0.527612C14.7835 0.862121 14.9871 1.32144 15 1.80546V19.6257C14.9871 20.1094 14.7834 20.5684 14.4332 20.9023C14.083 21.2362 13.6149 21.4179 13.1311 21.4078H1.88774C1.64663 21.4153 1.40641 21.3752 1.18087 21.2896C0.955328 21.204 0.748921 21.0747 0.573505 20.9091C0.398089 20.7435 0.257122 20.5449 0.158701 20.3246C0.060281 20.1044 0.00634794 19.8669 0 19.6257V1.78658C0.0177294 1.30253 0.226138 0.845129 0.579772 0.514127C0.933407 0.183125 1.40358 0.0053803 1.88774 0.0196581Z" fill="#BF9420"/>
<path fill-rule="evenodd" clip-rule="evenodd" d="M5.40276 14.1135C3.95297 14.4231 4.45134 16.326 5.85582 16.0466C5.98954 16.0269 6.11779 15.98 6.23258 15.9086C6.34738 15.8373 6.44627 15.7431 6.52311 15.6319C6.59996 15.5207 6.6531 15.3949 6.67925 15.2623C6.7054 15.1297 6.70398 14.9931 6.6751 14.8611C6.60396 14.5938 6.4309 14.365 6.19304 14.2239C5.95518 14.0827 5.67146 14.0404 5.40276 14.106" fill="#BC942C"/>
<path fill-rule="evenodd" clip-rule="evenodd" d="M2.23132 17.4699V18.8631C2.0954 18.9613 2.06519 18.8857 2.06519 19.0594C2.25045 19.1197 2.45004 19.1197 2.63529 19.0594C2.63529 18.9046 2.60131 18.9499 2.47295 18.8706V17.738C2.63529 17.9494 2.85049 18.5648 3.00151 18.8442H3.2658L3.77926 17.6776V18.8329C3.72641 18.9915 3.59427 18.9009 3.6811 19.0707C3.81324 19.1349 4.77977 19.1765 4.28518 18.882V17.4133C4.43997 17.3265 4.44752 17.4133 4.44752 17.2245C4.23093 17.1679 4.00341 17.1679 3.78681 17.2245C3.58671 17.3378 3.43192 18.1231 3.25825 18.2552L3.21294 18.142C3.08835 17.889 2.96754 17.4511 2.80896 17.2019C2.69948 17.2019 1.97836 17.0999 2.05387 17.3038C2.09917 17.4246 2.15581 17.3038 2.23132 17.4699" fill="#BC942C"/>
<path fill-rule="evenodd" clip-rule="evenodd" d="M4.61366 17.2283C4.61366 17.4284 4.61366 17.2698 4.70805 17.4095C4.75726 17.7673 4.76865 18.1292 4.74203 18.4893C4.74203 19.2444 4.56081 18.7385 4.62121 19.0745C4.86977 19.1308 5.12776 19.1308 5.37631 19.0745C5.37631 18.7838 4.96856 18.9235 5.49713 18.4289C5.6616 18.2385 5.85079 18.0709 6.05967 17.9305C6.07735 18.2479 6.06851 18.5661 6.03325 18.882C5.96151 19.0028 5.87845 18.882 5.95396 19.0821C6.20104 19.1502 6.46197 19.1502 6.70906 19.0821C6.70906 18.7725 6.56937 19.2293 6.56559 18.546V17.6965C6.56559 17.2472 6.6713 17.4586 6.70151 17.2547C6.57314 17.1377 6.11631 17.1755 5.94641 17.2245C5.94641 17.4624 6.14651 17.3416 6.06345 17.6021L5.25927 18.3572V17.5379C5.27815 17.2698 5.41407 17.4662 5.38009 17.2245C5.13225 17.1622 4.87283 17.1622 4.62499 17.2245" fill="#BC942C"/>
<path fill-rule="evenodd" clip-rule="evenodd" d="M10.8734 17.2321C10.8734 17.3906 10.9074 17.3114 10.9716 17.4058C11.0232 17.9011 11.0346 18.3999 11.0056 18.8971C10.9187 18.9461 10.8734 18.9424 10.8734 19.067C11.0531 19.121 11.242 19.1378 11.4284 19.116L11.5983 19.0783C11.7418 19.0141 11.4926 18.9348 11.5152 18.7272C11.5152 18.6026 11.6738 18.512 11.7531 18.4365C11.9232 18.2494 12.1117 18.0799 12.3156 17.9305V18.7272C12.3156 19.067 12.1873 18.8102 12.1797 19.0783C12.4286 19.1321 12.686 19.1321 12.9348 19.0783C12.965 18.8065 12.8216 19.0783 12.814 18.7007C12.814 18.5233 12.814 18.3232 12.814 18.1608V17.6323C12.814 17.2547 12.9462 17.4737 12.9462 17.2245C12.6983 17.1622 12.4389 17.1622 12.1911 17.2245C12.1911 17.5341 12.6139 17.2925 12.0514 17.855C11.8909 18.0414 11.7084 18.2075 11.5077 18.3496C11.4829 18.0388 11.4905 17.7263 11.5303 17.4171C11.5908 17.3265 11.6436 17.3793 11.6436 17.2359C11.3964 17.1688 11.1357 17.1688 10.8885 17.2359" fill="#BE952E"/>
<path fill-rule="evenodd" clip-rule="evenodd" d="M10.7224 14.6308C10.7358 15.0172 10.7295 15.4041 10.7035 15.7899C10.6431 15.9409 10.5714 15.8163 10.5978 16.0051C10.8451 16.0714 11.1056 16.0714 11.3529 16.0051C11.3529 15.7823 11.1566 15.9258 11.2396 15.6275C11.2623 15.5369 11.4246 15.4161 11.4813 15.3595C11.5945 15.25 11.8815 14.9102 12.04 14.8762C12.0606 15.187 12.0543 15.499 12.0212 15.8087C11.957 15.9258 11.9003 15.8087 11.923 16.0202C12.173 16.062 12.4281 16.062 12.6781 16.0202C12.7045 15.8465 12.6479 15.9409 12.5875 15.8276C12.5327 15.3383 12.5327 14.8445 12.5875 14.3552C12.5875 14.3325 12.8593 14.1626 12.4931 14.1437H12.293C12.1986 14.1437 11.9154 14.1135 11.9381 14.2344C11.9366 14.2418 11.9366 14.2495 11.9381 14.257C11.9985 14.4458 12.259 14.3627 11.7909 14.8007C11.6738 14.9102 11.4133 15.2462 11.2396 15.2764V14.408C11.2925 14.257 11.368 14.3816 11.3529 14.1702C11.1264 14.136 10.896 14.136 10.6695 14.1702C10.4996 14.2344 10.6695 14.3136 10.6695 14.3514C10.7488 14.4533 10.7224 14.5137 10.7224 14.661" fill="#BC942C"/>
<path fill-rule="evenodd" clip-rule="evenodd" d="M6.8299 14.1551C6.80347 14.3174 6.8299 14.2683 6.93939 14.3438V15.6766C6.93939 15.99 6.81103 15.7408 6.80725 15.9899C7.07 16.0654 7.34867 16.0654 7.61143 15.9899C7.56612 15.6124 7.41888 16.2014 7.43776 15.3141C7.72441 15.3136 8.00717 15.2477 8.26459 15.1216C8.7705 14.8233 8.70632 14.1551 7.85306 14.1324C7.51198 14.111 7.1697 14.1186 6.8299 14.1551Z" fill="#BC942C"/>
<path fill-rule="evenodd" clip-rule="evenodd" d="M2.55603 14.1513C2.55603 14.4382 2.68062 14.1513 2.68062 14.5288C2.68062 14.7063 2.68062 14.9064 2.68062 15.0687C2.68062 15.2311 2.68062 15.4463 2.68062 15.6086C2.68062 15.9862 2.53716 15.7483 2.55603 16.0164C2.80651 16.0514 3.06065 16.0514 3.31113 16.0164C3.34133 15.7483 3.18654 16.0579 3.18654 15.586C3.18654 15.3104 3.15633 15.2688 3.39041 15.1744C3.58071 15.3332 3.73404 15.5317 3.8397 15.7559C3.87368 15.9333 3.8397 15.7936 3.8397 15.8729C3.8397 15.9522 3.79062 15.9673 3.8397 16.0051C4.08553 16.0819 4.34897 16.0819 4.59479 16.0051C4.59479 15.8616 4.50418 15.888 4.4098 15.7445C4.31541 15.6011 4.29276 15.5558 4.2248 15.4463C4.16045 15.3508 4.09113 15.2589 4.01715 15.1707C3.93722 15.0869 3.86519 14.9959 3.80194 14.8988L4.30408 14.3665C4.4098 14.2985 4.42867 14.3061 4.43622 14.2457C4.47398 14.0343 3.93031 14.1324 3.83592 14.1664C3.83592 14.4043 4.14551 14.2344 3.69245 14.6648C3.53615 14.8014 3.37092 14.9276 3.19787 15.0423C3.18844 14.8864 3.18844 14.7301 3.19787 14.5741C3.19787 14.1966 3.30358 14.4156 3.33001 14.1966C3.08775 14.1081 2.82414 14.0962 2.57491 14.1626" fill="#BE952E"/>
<path fill-rule="evenodd" clip-rule="evenodd" d="M9.30276 17.2208C9.28389 17.5341 9.51797 17.2812 9.30276 17.6814C9.2197 17.855 9.16307 17.9721 9.10644 18.1231L8.85348 18.8367C8.7742 18.9801 8.73644 18.8744 8.73267 19.0481C8.93086 19.1236 9.14988 19.1236 9.34807 19.0481C9.34807 18.9424 9.24613 18.9084 9.16685 18.8593C9.18058 18.5397 9.26299 18.2268 9.40848 17.9419C9.52929 17.6625 9.61235 17.2925 10.0428 17.4171V18.7121C10.0428 19.067 9.9295 18.7763 9.92194 19.0594C10.1692 19.1263 10.4298 19.1263 10.677 19.0594C10.677 18.8291 10.6129 18.9877 10.56 18.8216C10.5282 18.3539 10.5282 17.8847 10.56 17.4171C10.6317 17.2623 10.6695 17.4171 10.6468 17.2132C10.1843 17.1547 9.71623 17.1547 9.25368 17.2132" fill="#BE952E"/>
<path fill-rule="evenodd" clip-rule="evenodd" d="M7.38866 17.4775C7.34409 17.6078 7.28852 17.7341 7.22254 17.855L6.84499 18.8518C6.76193 18.9801 6.75815 18.8782 6.74683 19.0632C6.93522 19.1198 7.13608 19.1198 7.32447 19.0632C7.32447 18.9122 7.26029 18.9273 7.16968 18.8593C7.18964 18.5333 7.2757 18.2147 7.42264 17.923C7.52835 17.6851 7.65294 17.2434 8.06069 17.436V18.7461C8.06069 19.033 7.94365 18.7989 7.92478 19.0745C8.08335 19.1236 8.58171 19.1463 8.67987 19.0292C8.67987 18.9235 8.60814 18.9273 8.54018 18.8858V17.6965C8.54018 17.2736 8.67232 17.4284 8.67232 17.2321C8.50424 17.1848 8.32856 17.1707 8.15508 17.1906C6.93938 17.1906 7.25652 17.1906 7.36223 17.4775" fill="#BC942C"/>
<path fill-rule="evenodd" clip-rule="evenodd" d="M5.40649 14.3665C5.25893 14.4741 5.14867 14.625 5.09113 14.7983C5.03359 14.9716 5.03165 15.1586 5.08558 15.333C5.14599 15.7106 5.39894 16.0315 5.84067 15.8465C6.28241 15.6615 6.29373 14.7591 5.95772 14.442C5.88717 14.3741 5.79698 14.3303 5.70001 14.3167C5.60305 14.3031 5.50428 14.3206 5.41782 14.3665" fill="#FEFDFA"/>
<path fill-rule="evenodd" clip-rule="evenodd" d="M8.69122 14.5251C8.94795 14.5251 8.87999 14.2948 9.28397 14.3325C9.31988 14.7796 9.32997 15.2284 9.31417 15.6766C9.2953 15.9862 9.15938 15.7445 9.18581 16.0088C9.43528 16.0642 9.69451 16.0577 9.9409 15.9899C9.9409 15.7332 9.82009 15.9899 9.81254 15.6766C9.78579 15.236 9.79716 14.7938 9.84652 14.3552C10.1032 14.189 10.2618 14.6194 10.4279 14.4949C10.4921 14.4156 10.4279 14.2532 10.4015 14.14H8.72897C8.67041 14.2637 8.65834 14.4045 8.69499 14.5364" fill="#BE952E"/>
<path fill-rule="evenodd" clip-rule="evenodd" d="M7.44521 14.8498V15.1216C8.31735 15.0838 8.1399 14.2004 7.5547 14.3363C7.37348 14.3816 7.44144 14.7138 7.44144 14.8686" fill="#FAFBF5"/>
<path fill-rule="evenodd" clip-rule="evenodd" d="M11.2434 16.779V16.9451C11.6714 16.9888 12.1028 16.9888 12.5308 16.9451V16.7828L11.9645 16.7601H11.6361L11.2434 16.779Z" fill="#B49433"/>
<path fill-rule="evenodd" clip-rule="evenodd" d="M5.26676 1.57138L4.95717 2.40576C4.68764 2.44772 4.42486 2.52517 4.17565 2.63607C3.83082 2.79893 3.53192 3.04501 3.30586 3.35214C3.07979 3.65926 2.93367 4.01779 2.88065 4.39544L2.00474 4.67483C2.11457 4.9489 2.24064 5.21617 2.38229 5.47523C2.32943 5.59227 2.21617 5.73197 2.15199 5.85278C1.98914 6.15409 1.89949 6.4895 1.89031 6.83187C1.88113 7.17425 1.95266 7.51398 2.09913 7.82358L2.34076 8.23511C2.42382 8.45031 2.0274 8.86939 1.99342 9.0997L2.85423 9.37531C3.06565 10.1719 3.29973 10.6892 4.12279 11.1196C4.59095 11.3612 4.87789 11.2744 4.96472 11.4443L5.08554 11.7727C5.12244 11.9203 5.17828 12.0624 5.25166 12.1956C5.43288 12.1503 6.00676 11.818 6.09359 11.818C6.38736 12.0216 6.721 12.1606 7.07245 12.2257C7.4239 12.2907 7.78516 12.2805 8.13235 12.1956C8.4451 12.1248 8.74206 11.9968 9.00827 11.818C9.30275 11.886 9.58591 12.139 9.87285 12.1956L10.1485 11.3801C11.0017 11.146 11.5454 10.9572 11.9833 10.1455C12.099 9.9047 12.1864 9.65132 12.2439 9.39041L13.1235 9.08082C13.0598 8.89605 12.9735 8.7198 12.8668 8.55603C12.7007 8.24644 12.678 8.34082 12.8668 8.08032C13.0979 7.71974 13.2208 7.30045 13.2208 6.87216C13.2208 6.44388 13.0979 6.02458 12.8668 5.66401C12.6327 5.33554 12.746 5.50544 13.1386 4.67861C12.9763 4.56912 12.3156 4.45208 12.2514 4.35769C12.1669 3.85651 11.9233 3.39584 11.5567 3.04382C11.0923 2.62097 10.9149 2.58321 10.1673 2.38689C10.0637 2.11647 9.97551 1.84042 9.90306 1.56006C9.70094 1.6189 9.50691 1.7026 9.32541 1.80924C9.00071 1.96026 9.09888 1.97158 8.80816 1.80924C8.42952 1.60035 8.00413 1.4908 7.57169 1.4908C7.13926 1.4908 6.71387 1.60035 6.33522 1.80924C6.04451 1.97158 6.18043 2.02444 5.82176 1.83944C5.64323 1.74308 5.45917 1.65735 5.27054 1.58271" fill="#AB944C"/>
<path fill-rule="evenodd" clip-rule="evenodd" d="M5.30459 1.69975L5.03653 2.4775C4.76717 2.52729 4.5039 2.60576 4.25123 2.71158C4.02191 2.81231 3.81227 2.95293 3.63205 3.12688C3.3619 3.38006 3.16164 3.69866 3.05063 4.05188C3.00532 4.19157 3.00155 4.32371 2.94869 4.46718C2.67133 4.54086 2.39997 4.63552 2.13696 4.75034C2.2389 5.04105 2.55981 5.41105 2.47675 5.55074C2.28354 5.79665 2.14225 6.07923 2.06145 6.38135C1.79339 7.46869 2.38992 8.01236 2.51073 8.30685C2.36915 8.53995 2.24303 8.7821 2.13319 9.03174L2.95247 9.30357C3.07706 9.68112 2.994 10.0587 3.60562 10.6363C3.99645 10.9867 4.48276 11.2128 5.00255 11.2857C5.12884 11.5314 5.22154 11.793 5.27816 12.0635C5.55848 11.975 5.83018 11.8613 6.08989 11.7237C6.46936 11.998 6.91819 12.1605 7.38537 12.1925C7.85256 12.2246 8.31936 12.1249 8.73273 11.9049C8.86487 11.8331 8.92151 11.7765 9.02722 11.7199C9.28424 11.8488 9.5476 11.9648 9.8163 12.0672L10.0957 11.2895C10.3672 11.2421 10.6339 11.1701 10.8923 11.0743C11.3257 10.8615 11.6839 10.5217 11.9192 10.1002C12.048 9.85845 12.1299 9.59459 12.1609 9.32245L12.9877 9.04307C12.9273 8.82409 12.5724 8.36348 12.6479 8.21623C12.8387 7.97775 12.9787 7.70281 13.0594 7.40828C13.1418 7.08095 13.1444 6.73861 13.0669 6.41009C12.9893 6.08157 12.834 5.77649 12.6139 5.52054C12.7263 5.26234 12.8524 5.01029 12.9915 4.76544C12.9424 4.72391 12.9915 4.76544 12.9046 4.71636L12.6026 4.62197C11.8475 4.37657 12.3534 4.56157 11.9457 3.73851C11.7593 3.40299 11.4963 3.11626 11.1781 2.90171C10.8599 2.68716 10.4955 2.55086 10.1146 2.50393C9.98997 2.30383 9.91823 1.92628 9.8163 1.71108C9.56334 1.83189 9.27263 1.94893 9.02722 2.08862C8.77621 1.91176 8.49828 1.77662 8.20417 1.68842C7.83487 1.58602 7.44629 1.57436 7.07152 1.65444C6.75044 1.70961 6.44666 1.83888 6.18428 2.03199C6.04459 2.1075 6.08612 2.07352 5.74632 1.91873C5.60403 1.84159 5.45641 1.77472 5.30459 1.71863" fill="#FFEDD3"/>
<path fill-rule="evenodd" clip-rule="evenodd" d="M5.92377 3.108C5.49714 3.0778 5.39897 2.92678 4.83643 3.04759C4.52799 3.12197 4.24429 3.27553 4.01337 3.4931C3.48103 4.04055 3.40174 4.5087 3.61695 5.34309C3.30327 5.46214 3.03322 5.67378 2.84266 5.94992C2.6521 6.22607 2.55005 6.55364 2.55005 6.88915C2.55005 7.22466 2.6521 7.55223 2.84266 7.82837C3.03322 8.10452 3.30327 8.31616 3.61695 8.43521C3.49626 8.76261 3.47267 9.11788 3.54899 9.45837C3.6224 9.76197 3.77719 10.0398 3.99672 10.262C4.21625 10.4842 4.4922 10.6423 4.7949 10.7194C5.17008 10.812 5.56434 10.791 5.92754 10.659C6.14274 10.9648 6.10876 11.0629 6.52784 11.3574C6.74152 11.5087 6.98555 11.6117 7.24299 11.6592C7.50044 11.7067 7.76514 11.6976 8.01874 11.6326C8.27233 11.5676 8.50874 11.4482 8.71157 11.2827C8.9144 11.1171 9.07879 10.9095 9.19334 10.6741C9.42742 10.6741 10.0655 11.029 10.9489 10.4287C11.1761 10.2629 11.3575 10.0423 11.4763 9.78747C11.5952 9.53264 11.6475 9.25186 11.6285 8.97133C11.6285 8.78255 11.5379 8.59378 11.5341 8.43521C13.218 7.59328 12.6328 5.72819 11.5341 5.35064C11.5832 4.92778 11.7267 4.80697 11.5945 4.28973C11.5168 3.99086 11.3595 3.71862 11.1395 3.50192C10.9195 3.28522 10.6449 3.13214 10.3449 3.05892C9.96963 2.96946 9.57665 2.98911 9.21221 3.11555C9.11538 2.90127 8.97614 2.70883 8.80288 2.54985C8.62963 2.39087 8.42596 2.26865 8.20416 2.19056C7.82344 2.05386 7.40788 2.04876 7.02392 2.17606C6.63995 2.30337 6.30976 2.55573 6.08611 2.8928C6.0257 2.97963 6.01438 3.02872 5.95397 3.108" fill="#AB944C"/>
<path fill-rule="evenodd" clip-rule="evenodd" d="M5.95396 3.22882C5.73173 3.12842 5.49043 3.07726 5.24658 3.07885C5.00274 3.08044 4.76212 3.13473 4.54122 3.23801C4.32032 3.34128 4.12437 3.49111 3.96678 3.6772C3.8092 3.86329 3.69372 4.08126 3.62826 4.31616C3.50367 4.8334 3.65091 4.96554 3.71887 5.38084C2.3597 5.96227 2.13694 7.64613 3.71887 8.40123C3.66601 8.77878 3.50744 8.86562 3.62448 9.43949C3.68757 9.67542 3.80099 9.8949 3.95696 10.0828C4.11294 10.2707 4.30776 10.4227 4.52803 10.5281C4.7483 10.6336 4.9888 10.6901 5.23299 10.6938C5.47718 10.6975 5.71928 10.6483 5.94263 10.5495C6.01436 10.5986 5.99549 10.5495 6.0861 10.742C6.22278 10.9826 6.41591 11.1864 6.64886 11.3357C6.88181 11.4851 7.14759 11.5756 7.42328 11.5993C7.69897 11.6231 7.97631 11.5795 8.23139 11.4722C8.48648 11.365 8.71165 11.1973 8.88751 10.9837C8.97057 10.8893 9.09894 10.6061 9.14047 10.5759C9.26883 10.5042 9.57087 10.7911 10.2278 10.6514C10.5298 10.5915 10.8089 10.4478 11.0332 10.2369C11.2575 10.0259 11.418 9.75615 11.4964 9.45837C11.6285 8.95623 11.4699 8.76368 11.4058 8.38613C11.6944 8.26609 11.9524 8.08289 12.1609 7.85001C12.3749 7.57254 12.4909 7.232 12.4909 6.8816C12.4909 6.53119 12.3749 6.19066 12.1609 5.91319C11.9617 5.66743 11.7012 5.47859 11.4058 5.36574C11.4058 5.19584 11.5001 5.08636 11.5228 4.89381C11.5476 4.70135 11.54 4.50608 11.5001 4.31616C11.4236 4.0205 11.2667 3.75182 11.0467 3.5399C10.8268 3.32799 10.5525 3.18111 10.2542 3.11555C9.73322 2.99096 9.57087 3.13821 9.15179 3.20239C9.06873 3.10423 8.98567 2.91923 8.90261 2.79841C8.80883 2.66778 8.69093 2.55629 8.55527 2.46995C8.36061 2.33471 8.14029 2.24084 7.90792 2.19414C7.67554 2.14745 7.43606 2.14892 7.20428 2.19846C6.9725 2.248 6.75334 2.34456 6.56036 2.48217C6.36738 2.61978 6.20468 2.79552 6.08232 2.99851C6.02569 3.09668 6.03702 3.14576 5.95018 3.21372" fill="#FEFDFA"/>
<path fill-rule="evenodd" clip-rule="evenodd" d="M6.79216 6.19635C7.09797 6.16992 7.35848 5.93207 7.34338 6.5739C7.34338 6.95145 7.40756 7.23461 7.21501 7.52532C7.15995 7.61512 7.0841 7.69036 6.99387 7.7447C6.90363 7.79904 6.80165 7.83088 6.69653 7.83754C6.5914 7.84421 6.48622 7.82549 6.38984 7.78298C6.29347 7.74047 6.20873 7.67541 6.14277 7.59328C6.01818 7.48002 5.9993 7.41583 5.89359 7.31012C5.76522 7.47247 5.69349 7.90287 5.34615 8.0992C4.9988 8.29552 4.54197 8.0992 4.2135 7.99348C4.25126 8.1294 4.9686 9.42062 5.06676 9.52633C5.64063 9.52633 6.59583 8.9298 8.74786 9.29602C9.08765 9.35643 9.58224 9.51123 9.8805 9.5301C10.0617 9.19031 10.6809 8.28419 10.7866 8.01991C10.4733 8.10297 10.1372 8.39746 9.71438 8.22001C9.59873 8.16868 9.49697 8.09054 9.41753 7.99205C9.33809 7.89357 9.28325 7.77758 9.25755 7.65369C9.25755 7.60461 9.25755 7.56685 9.23112 7.52155C9.20469 7.47624 9.23112 7.45359 9.23112 7.44226L9.21224 7.40828V7.38563C9.08388 7.46491 8.9102 7.76318 8.57419 7.82358C8.43104 7.85248 8.28251 7.83769 8.14787 7.78114C8.01322 7.72459 7.89868 7.62889 7.81909 7.50645C7.65297 7.27614 7.71337 6.87216 7.7096 6.5437C7.7096 6.35492 7.6794 6.22278 7.84929 6.14727C8.01919 6.07176 8.13245 6.14727 8.30613 6.18503C8.32878 5.67911 8.18153 5.19207 7.55103 5.20718C6.99226 5.20718 6.79593 5.66023 6.83746 6.19635" fill="#BE952E"/>
<path fill-rule="evenodd" clip-rule="evenodd" d="M5.99165 7.94817C5.75001 8.27286 5.82552 8.60133 4.96094 8.60888C4.98443 8.71491 5.02389 8.81675 5.07798 8.91092C5.10441 8.96378 5.11196 8.99021 5.13839 9.03929C5.16219 9.09287 5.19402 9.14252 5.23277 9.18653L6.27858 8.9449C7.06086 8.81274 7.85976 8.81274 8.64204 8.9449C9.01958 8.99776 9.39713 9.12612 9.71427 9.1601C9.8414 9.00941 9.94223 8.83838 10.0125 8.65419C9.21591 8.62398 9.30652 8.40878 9.05734 8.06521C8.85346 8.1445 8.34 8.56358 7.81898 8.10297C7.70949 8.0048 7.62265 7.87644 7.53959 7.80848C7.38102 7.91797 7.22245 8.21246 6.8298 8.28797C6.43715 8.36348 6.21817 8.09164 5.99165 7.93307" fill="#FFFBF1"/>
<path fill-rule="evenodd" clip-rule="evenodd" d="M9.03092 4.08585H8.57031C8.6345 4.12738 8.85347 4.30861 8.91766 4.36146L8.81194 4.79942C8.98939 4.73524 9.02337 4.63707 9.18949 4.57667C9.34051 4.6484 9.38959 4.74656 9.56704 4.78432L9.45755 4.36146C9.56704 4.28595 9.73316 4.21044 9.79734 4.08208H9.34051L9.19704 3.70453L9.03092 4.08585Z" fill="#BD9534"/>
<path fill-rule="evenodd" clip-rule="evenodd" d="M4.591 5.26758H4.1908C4.23988 5.39972 4.31161 5.42615 4.49283 5.56585L4.36824 6.00003L4.74579 5.75462C4.90814 5.8188 4.92702 5.91319 5.12334 5.9585L5.0214 5.58095C5.14716 5.49526 5.26247 5.39516 5.36497 5.28268H4.91569L4.76844 4.90514L4.591 5.26758Z" fill="#BD9534"/>
<path fill-rule="evenodd" clip-rule="evenodd" d="M7.40752 3.56861H7.00354C7.06772 3.70453 7.20742 3.74984 7.30935 3.85555L7.19986 4.28218C7.38486 4.218 7.42639 4.11983 7.57741 4.05565C7.66047 4.10096 7.83792 4.218 7.93231 4.28595L7.83792 3.85932C7.98517 3.71963 8.072 3.73096 8.15506 3.56861H7.72466C7.69178 3.44661 7.64223 3.32973 7.57741 3.22127C7.4717 3.30433 7.47547 3.46667 7.41129 3.56484" fill="#BD9534"/>
<path fill-rule="evenodd" clip-rule="evenodd" d="M4.10021 6.90991H3.67358C3.75652 7.02847 3.86654 7.12554 3.9945 7.19307L3.86991 7.6348L4.24746 7.39317C4.3645 7.46491 4.50042 7.57817 4.62501 7.6348L4.50797 7.19307C4.63613 7.11814 4.74991 7.02098 4.84398 6.90614H4.3947C4.36072 6.82308 4.36072 6.81552 4.33429 6.73624L4.24368 6.55502C4.21348 6.59277 4.24368 6.52859 4.20215 6.6192C4.18571 6.64898 4.17303 6.68068 4.1644 6.71359C4.14174 6.77022 4.12287 6.83063 4.10021 6.90236" fill="#BD9534"/>
<path fill-rule="evenodd" clip-rule="evenodd" d="M10.2693 5.30534H9.81628L10.1599 5.6036L10.039 6.02268C10.2354 5.96982 10.2354 5.88299 10.4166 5.79993C10.5473 5.8713 10.6733 5.95074 10.7941 6.03778L10.6922 5.61115L11.0433 5.32044L10.5714 5.30534C10.5394 5.24798 10.5141 5.18718 10.4959 5.12411L10.409 4.92779L10.2693 5.30534Z" fill="#BD9534"/>
<path fill-rule="evenodd" clip-rule="evenodd" d="M5.83686 4.00279H5.38757L5.71982 4.29728L5.60655 4.73146L5.9841 4.48983L6.36165 4.73524L6.25216 4.28973C6.38225 4.20951 6.50261 4.11449 6.61083 4.00657H6.12757L5.9992 3.62902L5.83686 4.00279Z" fill="#BD9534"/>
<path fill-rule="evenodd" clip-rule="evenodd" d="M10.7224 7.00807H10.2844C10.3825 7.11324 10.4899 7.20928 10.6053 7.29501L10.4996 7.72541C10.6469 7.64991 10.7262 7.56684 10.8772 7.49511C11.032 7.56307 11.0622 7.6499 11.2547 7.71031L11.1528 7.29878C11.273 7.21463 11.3843 7.11849 11.485 7.01185H11.0357L10.8998 6.6343L10.7224 7.00807Z" fill="#BD9534"/>
<path fill-rule="evenodd" clip-rule="evenodd" d="M7.01863 5.90942C7.53965 5.90942 7.39618 5.9434 7.50567 6.10197C7.66424 6.04911 7.52832 5.99248 7.68689 5.92452C7.79675 5.89759 7.91044 5.88993 8.02291 5.90187C8.10975 5.3582 6.962 5.28269 7.01863 5.90187" fill="#FAFBF5"/>
<path fill-rule="evenodd" clip-rule="evenodd" d="M2.25391 8.98266L2.94482 9.21674C2.9637 9.06572 3.00523 8.75235 2.94482 8.67307C2.88441 8.59378 2.6088 8.38236 2.56727 8.36348L2.25391 8.98266Z" fill="#BE952E"/>
<path fill-rule="evenodd" clip-rule="evenodd" d="M2.26526 4.77677C2.34976 4.99621 2.46137 5.20422 2.5975 5.39595C3.06944 4.93157 2.97505 5.26759 2.94862 4.56535L2.26526 4.77677Z" fill="#BC942C"/>
<path fill-rule="evenodd" clip-rule="evenodd" d="M12.5497 5.38461C12.6823 5.19809 12.7842 4.99162 12.8518 4.77298C12.6318 4.68941 12.4059 4.62252 12.176 4.57288C12.176 4.75033 12.1193 5.00706 12.2024 5.109C12.225 5.13543 12.3194 5.19584 12.3647 5.24115C12.416 5.30102 12.479 5.34983 12.5497 5.38461" fill="#BC942C"/>
<path fill-rule="evenodd" clip-rule="evenodd" d="M9.13293 2.13771C9.19712 2.23587 9.32548 2.32271 9.45763 2.51526L9.98619 2.4775L9.77477 1.82812C9.5465 1.90025 9.3302 2.00586 9.13293 2.14148" fill="#BC942C"/>
<path fill-rule="evenodd" clip-rule="evenodd" d="M12.1533 8.68061L12.1911 9.19031L12.8556 9.00153C12.79 8.77677 12.6865 8.56483 12.5497 8.3748C12.4176 8.45786 12.3157 8.59 12.1533 8.68061" fill="#BC942C"/>
<path fill-rule="evenodd" clip-rule="evenodd" d="M5.11951 2.48505H5.67828C5.82552 2.26607 5.87083 2.28872 6.00675 2.12638C5.9656 2.08308 5.91529 2.04954 5.8595 2.02821L5.36491 1.81301L5.11951 2.48505Z" fill="#BE952E"/>
<path fill-rule="evenodd" clip-rule="evenodd" d="M5.13461 11.297L5.35359 11.954L6.00675 11.6557L5.8142 11.4518C5.54236 11.146 5.68205 11.3159 5.11951 11.297" fill="#BC942C"/>
<path fill-rule="evenodd" clip-rule="evenodd" d="M9.12537 11.6444L9.74455 11.9615L9.9975 11.3008L9.45006 11.2706C9.3519 11.4254 9.21975 11.5009 9.12537 11.6481" fill="#BE952E"/>
<path fill-rule="evenodd" clip-rule="evenodd" d="M8.75536 8.59378C8.6723 8.49939 8.64965 8.51072 8.4873 8.51449C8.50248 8.60789 8.54582 8.69443 8.61154 8.76251C8.67725 8.8306 8.76219 8.87698 8.85499 8.89546C8.94779 8.91394 9.04403 8.90363 9.13081 8.86591C9.21758 8.82818 9.29077 8.76485 9.34056 8.68439C9.29921 8.65575 9.25225 8.63622 9.20278 8.62711C9.15331 8.618 9.10247 8.61951 9.05363 8.63153C9.05363 8.48807 9.05363 8.46164 8.98944 8.34837C8.86485 8.34837 8.8573 8.42011 8.80444 8.51072L8.78179 8.55225L8.75536 8.59378Z" fill="#BD9534"/>
<path fill-rule="evenodd" clip-rule="evenodd" d="M7.38482 8.46919C7.2489 8.44653 7.21492 8.41633 7.09033 8.46919C7.19227 8.91092 7.96247 8.78255 7.94737 8.46919C7.85808 8.43841 7.76105 8.43841 7.67176 8.46919L7.55472 8.20113C7.43768 8.23888 7.4037 8.23511 7.38482 8.46919Z" fill="#BD9534"/>
<path fill-rule="evenodd" clip-rule="evenodd" d="M5.96908 8.60511C5.87391 8.59296 5.77723 8.60733 5.6897 8.64664C5.79164 9.00531 6.47122 8.95623 6.53541 8.48807C6.43896 8.48264 6.34274 8.50215 6.25602 8.5447L6.21449 8.47674C6.11255 8.30684 6.15031 8.3597 6.05592 8.32572C5.96153 8.40878 5.96531 8.46919 5.96908 8.60511Z" fill="#BD9534"/>
<path fill-rule="evenodd" clip-rule="evenodd" d="M3.06189 4.92779C3.09209 5.09014 3.20913 5.15054 3.48097 5.2034L3.41679 4.87116C3.29562 4.86027 3.17365 4.87973 3.06189 4.92779" fill="#B3933C"/>
<path fill-rule="evenodd" clip-rule="evenodd" d="M3.04688 4.82586L3.40177 4.79943L3.40932 4.56912L3.04688 4.54269V4.82586Z" fill="#BC943C"/>
<path fill-rule="evenodd" clip-rule="evenodd" d="M12.4705 7.71032C12.5462 7.80682 12.6553 7.87147 12.7763 7.89155C12.8281 7.81176 12.8616 7.72151 12.8744 7.62726L12.5611 7.53665C12.519 7.5875 12.4881 7.64669 12.4705 7.71032" fill="#B49433"/>
<path fill-rule="evenodd" clip-rule="evenodd" d="M5.48582 10.8402C5.46858 10.8961 5.4637 10.9552 5.47152 11.0132C5.47934 11.0712 5.49968 11.1268 5.53113 11.1762C5.6746 11.1762 5.6746 11.2366 5.81052 10.7987L5.48582 10.8402Z" fill="#BC943C"/>
<path fill-rule="evenodd" clip-rule="evenodd" d="M2.94495 5.22228C2.96382 5.35442 3.03556 5.36952 3.12239 5.48279C3.23502 5.45264 3.33866 5.39564 3.42443 5.31666C3.30024 5.23339 3.1601 5.17683 3.01291 5.15054L2.94495 5.22228Z" fill="#BC943C"/>
<path fill-rule="evenodd" clip-rule="evenodd" d="M3.73401 3.16842L3.97564 3.39117C4.10401 3.33076 4.05115 3.34964 4.14554 3.2779C4.10999 3.16595 4.04159 3.06729 3.94921 2.99474C3.86047 3.02763 3.7849 3.08862 3.73401 3.16842Z" fill="#B49433"/>
<path fill-rule="evenodd" clip-rule="evenodd" d="M3.42441 8.46541L3.17145 8.28796C2.81278 8.45786 2.97512 8.80143 3.43951 8.46541" fill="#B39A3B"/>
<path fill-rule="evenodd" clip-rule="evenodd" d="M3.48853 3.4176C3.56436 3.51428 3.67091 3.5822 3.79056 3.61015L3.9076 3.45535L3.6622 3.20995C3.58934 3.26513 3.52996 3.33613 3.48853 3.4176" fill="#B49433"/>
<path fill-rule="evenodd" clip-rule="evenodd" d="M9.02722 2.6625L9.20467 2.94189C9.2538 2.86553 9.29794 2.78608 9.33681 2.70403C9.38967 2.57566 9.38589 2.55679 9.28773 2.45485C9.1845 2.50053 9.09477 2.57205 9.02722 2.6625" fill="#BC943C"/>
<path fill-rule="evenodd" clip-rule="evenodd" d="M12.274 7.98971C12.3518 8.07494 12.4454 8.14419 12.5497 8.19358C12.6199 8.1454 12.6718 8.07488 12.6969 7.99348C12.6133 7.91384 12.5126 7.85442 12.4024 7.81981L12.274 7.98971Z" fill="#BD9534"/>
<path fill-rule="evenodd" clip-rule="evenodd" d="M2.41638 5.7886C2.49545 5.87243 2.60058 5.927 2.71465 5.94339C2.76356 5.90097 2.80228 5.84806 2.82791 5.7886C2.75569 5.69497 2.659 5.62311 2.54852 5.58095C2.46546 5.67911 2.45414 5.66401 2.41638 5.7886Z" fill="#BD9534"/>
<path fill-rule="evenodd" clip-rule="evenodd" d="M12.6101 6.30962L12.6441 6.50972C12.7607 6.52411 12.879 6.51382 12.9914 6.47952C13.0045 6.38459 12.9831 6.28814 12.931 6.20768L12.6101 6.30962Z" fill="#BC943C"/>
<path fill-rule="evenodd" clip-rule="evenodd" d="M3.05432 4.45585L3.41299 4.48983L3.45075 4.25575L3.10718 4.18779L3.05432 4.45585Z" fill="#BD9534"/>
<path fill-rule="evenodd" clip-rule="evenodd" d="M4.04736 2.923C4.09212 3.02252 4.15058 3.11529 4.22104 3.19861C4.33052 3.16086 4.3494 3.17218 4.42869 3.08157L4.3041 2.80219C4.21333 2.81407 4.12937 2.85671 4.06624 2.923" fill="#BC943C"/>
<path fill-rule="evenodd" clip-rule="evenodd" d="M10.4732 11.1083L10.7601 11.029L10.6166 10.7194C10.2768 10.776 10.4165 10.8364 10.4732 11.0969" fill="#BC943C"/>
<path fill-rule="evenodd" clip-rule="evenodd" d="M4.3645 11.0365L4.63634 11.112L4.73827 10.7911L4.50042 10.7194L4.3645 11.0365Z" fill="#B49433"/>
<path fill-rule="evenodd" clip-rule="evenodd" d="M7.60766 2.00179L7.84174 2.01312L7.90214 1.6771L7.60388 1.66199L7.60766 2.00179Z" fill="#BD9534"/>
<path fill-rule="evenodd" clip-rule="evenodd" d="M11.6398 5.22983C11.7213 5.18937 11.8059 5.15529 11.8927 5.12789C12.0475 5.07126 12.04 5.07503 12.0588 4.90136H11.7115L11.6398 5.22983Z" fill="#BC943C"/>
<path fill-rule="evenodd" clip-rule="evenodd" d="M3.28467 9.99827C3.30322 10.0951 3.34757 10.1851 3.41303 10.2588C3.51867 10.2125 3.61569 10.1487 3.69997 10.07L3.60936 9.88878L3.28467 9.99827Z" fill="#BD9534"/>
<path fill-rule="evenodd" clip-rule="evenodd" d="M6.19177 11.6444C6.2484 11.701 6.30504 11.7312 6.373 11.7992C6.48248 11.7539 6.41453 11.7992 6.49759 11.6859C6.53561 11.6352 6.56612 11.5792 6.5882 11.5198C6.53979 11.4586 6.4718 11.4159 6.39565 11.399C6.32255 11.4764 6.25445 11.5583 6.19177 11.6444" fill="#BD9534"/>
<path fill-rule="evenodd" clip-rule="evenodd" d="M11.4171 3.70076L11.5153 3.88575C11.6345 3.86429 11.747 3.81515 11.8437 3.74229C11.8237 3.65247 11.7696 3.57396 11.6927 3.52331L11.4171 3.70076Z" fill="#B49433"/>
<path fill-rule="evenodd" clip-rule="evenodd" d="M3.49609 10.323C3.50557 10.3671 3.52425 10.4088 3.55093 10.4452C3.5776 10.4816 3.61166 10.512 3.65089 10.5344C3.70704 10.5151 3.75784 10.4828 3.79917 10.4401C3.8405 10.3975 3.87119 10.3457 3.88874 10.289C3.85467 10.2373 3.81546 10.1893 3.7717 10.1455C3.67354 10.2059 3.60558 10.2474 3.49609 10.323Z" fill="#BE952E"/>
<path fill-rule="evenodd" clip-rule="evenodd" d="M11.2321 10.3192C11.3032 10.3991 11.3801 10.4735 11.4624 10.5419C11.5322 10.4911 11.5912 10.4269 11.636 10.3532C11.5756 10.2588 11.5945 10.3003 11.5152 10.2399C11.4359 10.1795 11.4661 10.1757 11.3189 10.1531L11.2321 10.3192Z" fill="#BD9534"/>
<path fill-rule="evenodd" clip-rule="evenodd" d="M12.4591 6.02645L12.5422 6.2341L12.848 6.13594C12.8706 5.97737 12.8291 6.00002 12.7611 5.86788L12.4591 6.02645Z" fill="#B49433"/>
<path fill-rule="evenodd" clip-rule="evenodd" d="M3.74536 10.591C3.76462 10.6327 3.79291 10.6695 3.82817 10.6989C3.86343 10.7283 3.90479 10.7495 3.94924 10.7609C4.0364 10.6937 4.10095 10.6015 4.13424 10.4966C4.07005 10.4022 4.07005 10.4136 3.97944 10.372C3.89267 10.4351 3.81405 10.5086 3.74536 10.591" fill="#B49433"/>
<path fill-rule="evenodd" clip-rule="evenodd" d="M2.25024 6.12839L2.55983 6.24166L2.66932 6.04533L2.37106 5.87166C2.30581 5.94309 2.26369 6.03259 2.25024 6.12839" fill="#BC943C"/>
<path fill-rule="evenodd" clip-rule="evenodd" d="M12.0702 5.59227L12.2136 5.70554C12.3074 5.64853 12.3936 5.58004 12.4704 5.50166C12.4546 5.46266 12.4285 5.42871 12.3949 5.4035C12.3775 5.37542 12.3538 5.35186 12.3255 5.33479C12.2973 5.31772 12.2654 5.30762 12.2325 5.30534C12.1041 5.48656 12.1117 5.4035 12.0588 5.58095" fill="#B49433"/>
<path fill-rule="evenodd" clip-rule="evenodd" d="M7.32447 2.0169H7.52835V1.6771H7.25274C7.23149 1.79441 7.25434 1.91542 7.31692 2.0169" fill="#BD9534"/>
<path fill-rule="evenodd" clip-rule="evenodd" d="M4.8364 2.95698L5.05916 2.92677V2.5983L4.776 2.62096C4.77273 2.7389 4.80283 2.85538 4.86283 2.95698" fill="#B49433"/>
<path fill-rule="evenodd" clip-rule="evenodd" d="M4.02844 10.8666C4.14548 10.9119 4.13038 10.9459 4.27762 10.961L4.43619 10.659L4.24364 10.591C4.15563 10.6747 4.08281 10.7731 4.02844 10.8817" fill="#B49433"/>
<path fill-rule="evenodd" clip-rule="evenodd" d="M11.4283 10.07C11.5098 10.1396 11.5984 10.2004 11.6926 10.2512C11.7648 10.1881 11.8172 10.1055 11.8436 10.0134L11.5265 9.8699L11.4283 10.07Z" fill="#BD9534"/>
<path fill-rule="evenodd" clip-rule="evenodd" d="M5.46313 2.92678L5.81048 2.98341C5.75956 2.86047 5.71668 2.73436 5.68211 2.60586L5.50089 2.56811L5.46313 2.92678Z" fill="#B49433"/>
<path fill-rule="evenodd" clip-rule="evenodd" d="M9.02722 11.1082C9.12538 11.1838 9.13671 11.2404 9.28773 11.3046L9.37457 11.2026C9.33544 11.072 9.2836 10.9456 9.21977 10.8251C9.14371 10.9108 9.079 11.006 9.02722 11.1082" fill="#BC943C"/>
<path fill-rule="evenodd" clip-rule="evenodd" d="M11.7115 8.88072H12.04C12.0664 8.71837 12.04 8.71837 11.9267 8.66552C11.8381 8.62634 11.7457 8.59599 11.6511 8.57491L11.7115 8.88072Z" fill="#B49433"/>
<path fill-rule="evenodd" clip-rule="evenodd" d="M7.60388 12.1125L7.87949 12.0974L7.84929 11.7539L7.60766 11.769L7.60388 12.1125Z" fill="#BC943C"/>
<path fill-rule="evenodd" clip-rule="evenodd" d="M11.6964 5.30534L11.9833 5.48279C12.0726 5.41115 12.1416 5.31744 12.1834 5.21095C12.074 5.12412 12.074 5.12789 11.9343 5.1883C11.8489 5.21341 11.7684 5.253 11.6964 5.30534" fill="#B49433"/>
<path fill-rule="evenodd" clip-rule="evenodd" d="M8.26074 11.6444L8.34758 11.9653C8.45118 11.9556 8.54776 11.9086 8.61941 11.8332C8.57296 11.7323 8.50759 11.6413 8.42686 11.5651C8.36878 11.5854 8.31308 11.612 8.26074 11.6444" fill="#BC943C"/>
<path fill-rule="evenodd" clip-rule="evenodd" d="M4.75715 11.1536L5.00256 11.1875L5.05541 10.8402L4.83644 10.8175L4.80246 10.8893C4.75553 10.9689 4.73941 11.0629 4.75715 11.1536" fill="#BD9534"/>
<path fill-rule="evenodd" clip-rule="evenodd" d="M12.2854 5.7886L12.4062 5.95472C12.5104 5.91563 12.6074 5.85949 12.6932 5.7886C12.6872 5.74516 12.6711 5.70372 12.6462 5.66765C12.6213 5.63158 12.5882 5.60187 12.5497 5.58095C12.4489 5.63229 12.3591 5.70283 12.2854 5.7886" fill="#B49433"/>
<path fill-rule="evenodd" clip-rule="evenodd" d="M3.14502 9.69245L3.21675 9.91898C3.33831 9.91462 3.45451 9.86787 3.54522 9.78683L3.48859 9.59806C3.36861 9.60442 3.25141 9.63662 3.14502 9.69245" fill="#B4932C"/>
<path fill-rule="evenodd" clip-rule="evenodd" d="M6.84875 12.0068L7.10926 12.071L7.1659 11.92C7.17759 11.859 7.18391 11.7971 7.18477 11.735L6.9809 11.6784L6.84875 12.0068Z" fill="#BC942C"/>
<path fill-rule="evenodd" clip-rule="evenodd" d="M7.24133 12.1012L7.51694 12.1314V11.7803H7.30928C7.25306 11.8801 7.22931 11.9949 7.24133 12.1088" fill="#BD9534"/>
<path fill-rule="evenodd" clip-rule="evenodd" d="M12.663 7.15533L13.0103 7.20818L13.0367 6.93635L12.6705 6.93257L12.663 7.15533Z" fill="#BC943C"/>
<path fill-rule="evenodd" clip-rule="evenodd" d="M10.9829 3.23637L11.1339 3.38739C11.2308 3.33499 11.3156 3.26298 11.3831 3.17597C11.3627 3.13113 11.3324 3.09152 11.2945 3.06012C11.2566 3.02872 11.212 3.00637 11.1641 2.99474L10.9829 3.23637Z" fill="#B49433"/>
<path fill-rule="evenodd" clip-rule="evenodd" d="M2.103 6.83819H2.43902L2.46922 6.63431C2.35047 6.58253 2.22087 6.5605 2.09167 6.57013L2.103 6.83819Z" fill="#BC9A34"/>
<path fill-rule="evenodd" clip-rule="evenodd" d="M8.24573 2.13394L8.45716 2.19434C8.52648 2.1102 8.58484 2.01759 8.63083 1.91873C8.54881 1.86794 8.45781 1.83334 8.36277 1.8168L8.24573 2.13394Z" fill="#BE952E"/>
<path fill-rule="evenodd" clip-rule="evenodd" d="M4.3645 2.73423C4.40398 2.84109 4.45196 2.94462 4.50797 3.04382L4.72695 2.99474L4.64766 2.6625L4.3645 2.73423Z" fill="#BD9534"/>
<path fill-rule="evenodd" clip-rule="evenodd" d="M5.92004 11.3461C5.94645 11.4363 6.00755 11.5123 6.08994 11.5575C6.19084 11.5089 6.27114 11.4259 6.31647 11.3234C6.27494 11.2555 6.23719 11.2253 6.19943 11.1649L5.92004 11.3461Z" fill="#BD9534"/>
<path fill-rule="evenodd" clip-rule="evenodd" d="M2.13696 6.46819L2.46165 6.53614C2.49941 6.47574 2.46165 6.58523 2.51451 6.43421C2.51983 6.39791 2.51983 6.36102 2.51451 6.32472L2.18604 6.2039L2.13696 6.46819Z" fill="#BC943C"/>
<path fill-rule="evenodd" clip-rule="evenodd" d="M9.31787 2.97963L9.65389 2.93055C9.66344 2.81964 9.6506 2.70793 9.61613 2.60208C9.39338 2.60208 9.37828 2.80973 9.31787 2.97963Z" fill="#B3933C"/>
<path fill-rule="evenodd" clip-rule="evenodd" d="M11.7267 9.20541H12.0702V8.95623C11.9528 8.93548 11.8327 8.93548 11.7153 8.95623L11.7267 9.20541Z" fill="#B49433"/>
<path fill-rule="evenodd" clip-rule="evenodd" d="M2.65417 5.4639C2.68152 5.51912 2.71968 5.56829 2.76637 5.6085C2.81306 5.6487 2.86735 5.67913 2.92601 5.69798L3.05815 5.56962C3.01406 5.47281 2.94659 5.38848 2.86183 5.32421C2.78392 5.35634 2.7133 5.40385 2.65417 5.4639" fill="#BD9534"/>
<path fill-rule="evenodd" clip-rule="evenodd" d="M6.86389 1.76393L6.96205 2.0924L7.19236 2.03577L7.13573 1.7073L6.86389 1.76393Z" fill="#BD9534"/>
<path fill-rule="evenodd" clip-rule="evenodd" d="M5.11206 11.18L5.39522 11.2026V10.8817C5.31477 10.8563 5.22976 10.8486 5.14604 10.8591L5.11206 11.18Z" fill="#BD9534"/>
<path fill-rule="evenodd" clip-rule="evenodd" d="M3.13367 4.08585L3.48479 4.18402L3.5603 3.96504L3.23183 3.84422L3.13367 4.08585Z" fill="#BD9534"/>
<path fill-rule="evenodd" clip-rule="evenodd" d="M6.50513 11.8747L6.76563 11.9577L6.8789 11.6557C6.81676 11.6208 6.75091 11.5929 6.68257 11.5726C6.59791 11.656 6.5367 11.7602 6.50513 11.8747Z" fill="#BD9534"/>
<path fill-rule="evenodd" clip-rule="evenodd" d="M9.63887 11.1611V10.8591L9.30286 10.7798C9.32787 10.8723 9.36202 10.9621 9.40479 11.0478C9.4501 11.1536 9.48408 11.1875 9.62755 11.1611" fill="#B3933C"/>
<path fill-rule="evenodd" clip-rule="evenodd" d="M12.663 6.61542L12.6743 6.82685L13.033 6.84573L13.0216 6.57389L12.663 6.61542Z" fill="#BD9534"/>
<path fill-rule="evenodd" clip-rule="evenodd" d="M10.0692 2.93055L10.292 2.9532L10.3524 2.80973C10.37 2.75472 10.3802 2.69757 10.3826 2.63984L10.1221 2.57943L10.0692 2.93055Z" fill="#BD9534"/>
<path fill-rule="evenodd" clip-rule="evenodd" d="M5.81426 11.297C5.92154 11.2624 6.01614 11.1967 6.08609 11.1082L5.91242 10.8251C5.84802 10.8831 5.80378 10.9601 5.78613 11.045C5.76848 11.1299 5.77833 11.2181 5.81426 11.297" fill="#BD9534"/>
<path fill-rule="evenodd" clip-rule="evenodd" d="M11.7002 8.46542C11.8242 8.54194 11.9633 8.59088 12.1079 8.60889L12.191 8.53338L11.9947 8.28042C11.8871 8.32559 11.7876 8.38808 11.7002 8.46542" fill="#B3933C"/>
<path fill-rule="evenodd" clip-rule="evenodd" d="M5.1384 2.91545L5.38758 2.91167L5.39891 2.57943L5.12708 2.58321L5.1384 2.91545Z" fill="#B49433"/>
<path fill-rule="evenodd" clip-rule="evenodd" d="M11.689 9.50367L12.0137 9.59428C12.0518 9.50641 12.0636 9.40935 12.0476 9.3149L11.7078 9.29224L11.689 9.50367Z" fill="#BD9534"/>
<path fill-rule="evenodd" clip-rule="evenodd" d="M11.7267 4.56912L11.7229 4.79942L12.0816 4.82208L12.0702 4.55402L11.7267 4.56912Z" fill="#BD9534"/>
<path fill-rule="evenodd" clip-rule="evenodd" d="M7.93225 11.7425L7.98888 12.0597L8.25694 12.0144L8.16256 11.6746L7.93225 11.7425Z" fill="#B49433"/>
<path fill-rule="evenodd" clip-rule="evenodd" d="M11.5983 3.96127C11.5909 3.99936 11.5925 4.03866 11.603 4.07602C11.6135 4.11338 11.6326 4.14778 11.6587 4.17647L11.9721 4.10096C11.9793 4.06482 11.9793 4.02761 11.9721 3.99147L11.9003 3.85555C11.7968 3.86899 11.6976 3.90508 11.6096 3.96127" fill="#BD9534"/>
<path fill-rule="evenodd" clip-rule="evenodd" d="M6.19177 2.10371C6.23767 2.21341 6.31692 2.30587 6.4183 2.368L6.56932 2.28494C6.53438 2.17884 6.47781 2.08113 6.4032 1.998L6.19177 2.10371Z" fill="#BC943C"/>
<path fill-rule="evenodd" clip-rule="evenodd" d="M2.10669 7.19307L2.45026 7.15909V6.94389C2.33672 6.92261 2.22022 6.92261 2.10669 6.94389V7.19307Z" fill="#BD9534"/>
<path fill-rule="evenodd" clip-rule="evenodd" d="M8.54395 2.2623L8.72139 2.37556C8.80056 2.30445 8.87148 2.22467 8.93282 2.13771C8.90262 2.08863 8.93282 2.11883 8.88751 2.0773L8.68741 1.97159C8.64588 2.10751 8.57037 2.16414 8.54395 2.2623Z" fill="#B4932C"/>
<path fill-rule="evenodd" clip-rule="evenodd" d="M10.6921 3.10423C10.7581 3.13844 10.8278 3.16504 10.8998 3.18352C10.9347 3.15117 10.9652 3.11436 10.9904 3.07403C11.047 2.99474 11.0433 3.02495 11.0735 2.92301C11.0109 2.85653 10.9264 2.81495 10.8356 2.80597L10.6921 3.10423Z" fill="#B4932C"/>
<path fill-rule="evenodd" clip-rule="evenodd" d="M7.93225 2.03577L8.155 2.08862L8.27204 1.77148C8.18587 1.7359 8.09344 1.71792 8.00021 1.71862L7.93225 2.03577Z" fill="#B49433"/>
<path fill-rule="evenodd" clip-rule="evenodd" d="M10.3977 2.99474L10.6016 3.05137L10.7526 2.76821C10.7526 2.76821 10.7299 2.74556 10.7262 2.74933L10.6431 2.70025L10.5072 2.6625C10.4732 2.7078 10.5072 2.62852 10.4694 2.72668L10.3977 2.99474Z" fill="#B49433"/>
<path fill-rule="evenodd" clip-rule="evenodd" d="M10.9829 10.5004C11.0282 10.6174 11.0131 10.5759 11.0848 10.659C11.1168 10.6939 11.1435 10.7334 11.1641 10.776C11.2561 10.7475 11.335 10.6873 11.3869 10.6061C11.3265 10.5382 11.217 10.4362 11.1679 10.3834L10.9829 10.5004Z" fill="#B49433"/>
<path fill-rule="evenodd" clip-rule="evenodd" d="M5.92373 2.93055L6.10495 2.6776L5.97659 2.56056C5.93059 2.52232 5.88132 2.48821 5.82934 2.45862C5.74628 2.56811 5.74251 2.59454 5.82934 2.81351L5.92373 2.93055Z" fill="#B49433"/>
<path fill-rule="evenodd" clip-rule="evenodd" d="M10.0881 10.8515V11.1687H10.3449C10.3713 11.1158 10.3675 11.1687 10.3751 11.0818C10.3751 10.9861 10.3432 10.8931 10.2845 10.8175L10.0881 10.8515Z" fill="#BD9534"/>
<path fill-rule="evenodd" clip-rule="evenodd" d="M9.75203 2.91923L9.99744 2.9079L10.0088 2.58699L9.73315 2.58321L9.75203 2.91923Z" fill="#B49433"/>
<path fill-rule="evenodd" clip-rule="evenodd" d="M3.07324 9.32244L3.09967 9.5905L3.43191 9.515L3.42059 9.28091L3.07324 9.32244Z" fill="#BD9534"/>
<path fill-rule="evenodd" clip-rule="evenodd" d="M2.25391 7.64235L2.35207 7.89531L2.66166 7.74429C2.64451 7.66988 2.61097 7.60023 2.5635 7.54041L2.25391 7.64235Z" fill="#BC942C"/>
<path fill-rule="evenodd" clip-rule="evenodd" d="M11.5833 9.78684C11.6688 9.86133 11.776 9.90633 11.8891 9.9152L11.9797 9.69245C11.874 9.63245 11.7539 9.60243 11.6323 9.60561L11.5833 9.78684Z" fill="#B4932C"/>
<path fill-rule="evenodd" clip-rule="evenodd" d="M8.80823 2.45106L8.94792 2.59453C9.04206 2.53662 9.12834 2.46683 9.20465 2.38688C9.16221 2.31181 9.09938 2.25029 9.02343 2.20943C8.92914 2.26663 8.85417 2.3508 8.80823 2.45106" fill="#B59B2C"/>
<path fill-rule="evenodd" clip-rule="evenodd" d="M11.689 4.25197L11.7116 4.47473L12.0552 4.4634L12.025 4.18779L11.689 4.25197Z" fill="#BD9534"/>
<path fill-rule="evenodd" clip-rule="evenodd" d="M8.53638 11.5085C8.58168 11.6217 8.64587 11.6821 8.6874 11.7992C8.78247 11.7724 8.86772 11.7187 8.9328 11.6444L8.72515 11.4027L8.53638 11.5085Z" fill="#BD9534"/>
<path fill-rule="evenodd" clip-rule="evenodd" d="M2.15198 7.28746L2.19728 7.55929L2.53708 7.46113L2.488 7.2497L2.15198 7.28746Z" fill="#BD9534"/>
<path fill-rule="evenodd" clip-rule="evenodd" d="M2.41638 7.99347L2.51454 8.14827C2.57118 8.20113 2.51454 8.14827 2.5825 8.19358L2.82791 7.99347L2.7222 7.82358C2.60698 7.85205 2.50142 7.91069 2.41638 7.99347" fill="#BD9534"/>
<path fill-rule="evenodd" clip-rule="evenodd" d="M3.2771 3.73473C3.37018 3.81875 3.49151 3.86458 3.61689 3.8631L3.70373 3.6932L3.42434 3.52331L3.2771 3.73473Z" fill="#B49433"/>
<path fill-rule="evenodd" clip-rule="evenodd" d="M8.80444 11.3461C8.86083 11.4392 8.93529 11.5201 9.02342 11.584L9.2122 11.4216C9.18404 11.3652 9.14479 11.3151 9.09678 11.2742C9.04877 11.2333 8.993 11.2026 8.93281 11.1838L8.80444 11.3461Z" fill="#BD9534"/>
<path fill-rule="evenodd" clip-rule="evenodd" d="M3.05811 9.21673L3.3979 9.2054L3.40922 8.98265L3.05811 8.94867V9.21673Z" fill="#B49433"/>
<path fill-rule="evenodd" clip-rule="evenodd" d="M3.09217 8.84674L3.38665 8.88827C3.4446 8.78613 3.47211 8.66953 3.46594 8.55225C3.36778 8.64664 2.98268 8.62776 3.08839 8.84674" fill="#B49433"/>
<path fill-rule="evenodd" clip-rule="evenodd" d="M10.7224 10.6552L10.8319 10.9648C10.9293 10.9523 11.0217 10.9146 11.1 10.8553L10.9112 10.5835L10.7224 10.6552Z" fill="#BC942C"/>
<path fill-rule="evenodd" clip-rule="evenodd" d="M12.6442 7.2648L12.5913 7.45358C12.6949 7.50458 12.8082 7.53289 12.9236 7.53664L12.9877 7.29878L12.7386 7.2497C12.6479 7.2497 12.7839 7.2497 12.6895 7.2497L12.6442 7.2648Z" fill="#BD9534"/>
<path fill-rule="evenodd" clip-rule="evenodd" d="M9.72192 11.1875L9.99754 11.1951L9.99376 10.878L9.75213 10.8553L9.72192 11.1875Z" fill="#BD9534"/>
<path fill-rule="evenodd" clip-rule="evenodd" d="M5.90869 2.38689C5.9993 2.46995 6.07859 2.51903 6.15787 2.58699L6.32399 2.45862L6.13145 2.20189C6.04064 2.24034 5.96317 2.30469 5.90869 2.38689" fill="#B49433"/>
<path fill-rule="evenodd" clip-rule="evenodd" d="M2.65796 8.26909L2.8203 8.45787C2.92785 8.40794 3.01368 8.32076 3.06194 8.21246L2.90337 8.06899L2.65796 8.26909Z" fill="#BD9534"/>
<path fill-rule="evenodd" clip-rule="evenodd" d="M11.2207 3.45156C11.2573 3.51571 11.306 3.57212 11.3642 3.61768C11.4179 3.59916 11.4678 3.57101 11.5114 3.53462L11.568 3.49687C11.636 3.44023 11.568 3.49687 11.6322 3.42891L11.4774 3.23636L11.2207 3.45156Z" fill="#BD9534"/>
<path fill-rule="evenodd" clip-rule="evenodd" d="M12.0664 8.21246C12.1086 8.31542 12.1863 8.39982 12.2854 8.45032C12.3949 8.38991 12.3911 8.38236 12.4628 8.27664L12.2325 8.07277C12.1709 8.10835 12.117 8.15584 12.074 8.21246" fill="#B49433"/>
<path fill-rule="evenodd" clip-rule="evenodd" d="M6.50513 1.9074L6.65615 2.19811L6.86757 2.1226L6.76941 1.80923L6.50513 1.9074Z" fill="#B49433"/>
</svg>
