<?xml version="1.0" encoding="utf-8"?>
<!-- Generator: Adobe Illustrator 24.3.0, SVG Export Plug-In . SVG Version: 6.00 Build 0)  -->
<svg version="1.0" id="Слой_1" xmlns:svgjs="http://svgjs.com/svgjs"
	 xmlns="http://www.w3.org/2000/svg" xmlns:xlink="http://www.w3.org/1999/xlink" x="0px" y="0px" viewBox="0 0 512 512"
	 style="enable-background:new 0 0 512 512;" xml:space="preserve">
<style type="text/css">
	.st0{fill:#364D7C;}
	.st1{fill:#FAFAFA;}
	.st2{fill:#FF5F00;}
	.st3{fill:#EB001B;}
	.st4{fill:#F79E1B;}
	.st5{fill:#FFFFFF;}
</style>
<g>
	<circle class="st0" cx="256" cy="256" r="256"/>
	<g>
		<g>
			<path class="st1" d="M204.78,225.4v-8c0-3.01-1.92-5.04-5.01-5.07c-1.63-0.03-3.31,0.48-4.48,2.27
				c-0.88-1.41-2.27-2.27-4.21-2.27c-1.36,0-2.69,0.4-3.73,1.89v-1.57h-2.77v12.75h2.8v-7.07c0-2.21,1.23-3.39,3.12-3.39
				c1.84,0,2.77,1.2,2.77,3.36v7.09h2.8v-7.07c0-2.21,1.28-3.39,3.12-3.39c1.89,0,2.8,1.2,2.8,3.36v7.09H204.78z M246.22,212.65
				h-4.53v-3.87h-2.8v3.87h-2.59v2.53h2.59V221c0,2.96,1.15,4.72,4.43,4.72c1.2,0,2.59-0.37,3.47-0.99l-0.8-2.37
				c-0.83,0.48-1.73,0.72-2.45,0.72c-1.39,0-1.84-0.85-1.84-2.13v-5.76h4.53V212.65z M269.88,212.33c-1.6,0-2.64,0.75-3.36,1.87
				v-1.55h-2.75v12.75h2.77v-7.15c0-2.11,0.91-3.28,2.72-3.28c0.56,0,1.15,0.08,1.73,0.32l0.85-2.61
				C271.24,212.44,270.44,212.33,269.88,212.33L269.88,212.33z M234.11,213.67c-1.33-0.88-3.17-1.33-5.2-1.33
				c-3.23,0-5.31,1.55-5.31,4.08c0,2.08,1.55,3.36,4.4,3.76l1.31,0.19c1.52,0.21,2.24,0.61,2.24,1.33c0,0.99-1.01,1.55-2.91,1.55
				c-1.92,0-3.31-0.61-4.24-1.33l-1.31,2.16c1.52,1.12,3.44,1.65,5.52,1.65c3.68,0,5.81-1.73,5.81-4.16c0-2.24-1.68-3.41-4.45-3.81
				l-1.31-0.19c-1.2-0.16-2.16-0.4-2.16-1.25c0-0.93,0.91-1.49,2.43-1.49c1.63,0,3.2,0.61,3.97,1.09L234.11,213.67z M308.42,212.33
				c-1.6,0-2.64,0.75-3.36,1.87v-1.55h-2.75v12.75h2.77v-7.15c0-2.11,0.91-3.28,2.72-3.28c0.56,0,1.15,0.08,1.73,0.32l0.85-2.61
				C309.78,212.44,308.98,212.33,308.42,212.33L308.42,212.33z M272.68,219.03c0,3.87,2.69,6.7,6.8,6.7c1.92,0,3.2-0.43,4.59-1.52
				l-1.33-2.24c-1.04,0.75-2.13,1.15-3.33,1.15c-2.21-0.03-3.84-1.63-3.84-4.08c0-2.45,1.63-4.05,3.84-4.08
				c1.2,0,2.29,0.4,3.33,1.15l1.33-2.24c-1.39-1.09-2.67-1.52-4.59-1.52C275.38,212.33,272.68,215.16,272.68,219.03L272.68,219.03z
				 M298.66,219.03v-6.37h-2.77v1.55c-0.88-1.15-2.21-1.87-4.03-1.87c-3.57,0-6.37,2.8-6.37,6.69c0,3.89,2.8,6.7,6.37,6.7
				c1.81,0,3.15-0.72,4.03-1.87v1.55h2.77V219.03z M288.34,219.03c0-2.24,1.47-4.08,3.87-4.08c2.29,0,3.84,1.76,3.84,4.08
				c0,2.32-1.55,4.08-3.84,4.08C289.81,223.11,288.34,221.27,288.34,219.03L288.34,219.03z M254.87,212.33
				c-3.73,0-6.35,2.72-6.35,6.69c0,4.05,2.72,6.7,6.53,6.7c1.92,0,3.68-0.48,5.23-1.79l-1.36-2.05c-1.07,0.85-2.43,1.33-3.71,1.33
				c-1.79,0-3.41-0.83-3.81-3.12h9.47c0.03-0.35,0.05-0.69,0.05-1.07C260.89,215.05,258.44,212.33,254.87,212.33L254.87,212.33z
				 M254.81,214.81c1.79,0,2.93,1.12,3.23,3.09h-6.61C251.72,216.07,252.84,214.81,254.81,214.81L254.81,214.81z M324.4,219.03
				v-11.5h-2.77v6.67c-0.88-1.15-2.21-1.87-4.03-1.87c-3.57,0-6.37,2.8-6.37,6.69c0,3.89,2.8,6.7,6.37,6.7
				c1.81,0,3.15-0.72,4.03-1.87v1.55h2.77V219.03z M329.02,223.55c0.18,0,0.35,0.03,0.5,0.1c0.16,0.07,0.29,0.16,0.41,0.27
				c0.12,0.11,0.21,0.25,0.28,0.4c0.07,0.15,0.1,0.32,0.1,0.49c0,0.17-0.03,0.34-0.1,0.49c-0.07,0.15-0.16,0.29-0.28,0.4
				c-0.12,0.11-0.25,0.21-0.41,0.27c-0.16,0.07-0.32,0.1-0.5,0.1c-0.18,0-0.35-0.03-0.51-0.1c-0.16-0.07-0.3-0.16-0.41-0.27
				c-0.12-0.12-0.21-0.25-0.28-0.4c-0.07-0.15-0.1-0.32-0.1-0.49c0-0.17,0.03-0.34,0.1-0.49c0.07-0.15,0.16-0.29,0.28-0.4
				c0.12-0.12,0.25-0.21,0.41-0.27C328.67,223.59,328.84,223.55,329.02,223.55z M329.02,225.81c0.14,0,0.26-0.03,0.38-0.08
				c0.12-0.05,0.22-0.12,0.31-0.21c0.09-0.09,0.16-0.19,0.21-0.31c0.05-0.12,0.08-0.25,0.08-0.39s-0.03-0.26-0.08-0.39
				c-0.05-0.12-0.12-0.22-0.21-0.31c-0.09-0.09-0.19-0.16-0.31-0.21c-0.12-0.05-0.25-0.08-0.38-0.08c-0.14,0-0.27,0.03-0.39,0.08
				c-0.12,0.05-0.23,0.12-0.32,0.21c-0.09,0.09-0.16,0.19-0.21,0.31c-0.05,0.12-0.08,0.25-0.08,0.39s0.03,0.26,0.08,0.39
				c0.05,0.12,0.12,0.22,0.21,0.31c0.09,0.09,0.19,0.16,0.32,0.21C328.76,225.78,328.89,225.81,329.02,225.81z M329.1,224.23
				c0.15,0,0.27,0.03,0.35,0.1c0.08,0.07,0.12,0.16,0.12,0.27c0,0.1-0.03,0.18-0.1,0.24c-0.07,0.06-0.16,0.1-0.28,0.12l0.39,0.44
				h-0.3l-0.36-0.44h-0.11v0.44h-0.25v-1.18H329.1z M328.81,224.45v0.31h0.29c0.07,0,0.12-0.01,0.16-0.04
				c0.04-0.03,0.06-0.07,0.06-0.12c0-0.05-0.02-0.09-0.06-0.12c-0.04-0.03-0.09-0.04-0.16-0.04H328.81z M314.08,219.03
				c0-2.24,1.47-4.08,3.87-4.08c2.29,0,3.84,1.76,3.84,4.08c0,2.32-1.55,4.08-3.84,4.08C315.55,223.11,314.08,221.27,314.08,219.03
				L314.08,219.03z M220.41,219.03v-6.37h-2.77v1.55c-0.88-1.15-2.21-1.87-4.03-1.87c-3.57,0-6.37,2.8-6.37,6.69
				c0,3.89,2.8,6.7,6.37,6.7c1.81,0,3.15-0.72,4.03-1.87v1.55h2.77V219.03z M210.08,219.03c0-2.24,1.47-4.08,3.87-4.08
				c2.29,0,3.84,1.76,3.84,4.08c0,2.32-1.55,4.08-3.84,4.08C211.55,223.11,210.08,221.27,210.08,219.03z"/>
			<g id="XMLID_23_">
				<rect x="233.19" y="115.49" class="st2" width="42.01" height="75.5"/>
				<path id="XMLID_35_" class="st3" d="M235.86,153.24c0-15.32,7.17-28.96,18.34-37.75c-8.17-6.43-18.47-10.27-29.67-10.27
					c-26.52,0-48.01,21.5-48.01,48.02c0,26.52,21.5,48.02,48.01,48.02c11.2,0,21.51-3.84,29.67-10.27
					C243.03,182.2,235.86,168.56,235.86,153.24z"/>
				<path class="st4" d="M331.89,153.24c0,26.52-21.5,48.02-48.01,48.02c-11.2,0-21.51-3.84-29.67-10.27
					c11.17-8.79,18.34-22.43,18.34-37.75s-7.17-28.96-18.34-37.75c8.17-6.43,18.47-10.27,29.67-10.27
					C310.39,105.23,331.89,126.72,331.89,153.24z"/>
				<path class="st4" d="M327.31,182.99v-1.55h0.62v-0.31h-1.59v0.31h0.62v1.55H327.31z M330.39,182.99v-1.86h-0.49l-0.56,1.28
					l-0.56-1.28h-0.49v1.86h0.34v-1.41l0.52,1.21h0.36l0.52-1.22v1.41H330.39z"/>
			</g>
		</g>
		<path class="st5" d="M222.3,247.43l-28.28,67.47h-18.45l-13.92-53.85c-0.85-3.32-1.58-4.53-4.15-5.93
			c-4.2-2.28-11.12-4.42-17.22-5.74l0.41-1.96h29.7c3.78,0,7.19,2.52,8.05,6.88l7.35,39.04l18.17-45.92H222.3z M294.59,292.87
			c0.08-17.8-24.62-18.79-24.45-26.74c0.05-2.42,2.36-4.99,7.4-5.65c2.5-0.33,9.39-0.58,17.21,3.02l3.07-14.31
			c-4.2-1.53-9.6-2.99-16.33-2.99c-17.25,0-29.39,9.17-29.49,22.3c-0.12,9.72,8.67,15.13,15.28,18.36c6.8,3.31,9.08,5.43,9.05,8.38
			c-0.05,4.53-5.42,6.53-10.45,6.6c-8.77,0.14-13.87-2.37-17.93-4.26l-3.16,14.79c4.07,1.87,11.6,3.5,19.41,3.58
			C282.54,315.95,294.53,306.9,294.59,292.87 M340.15,314.9h16.14l-14.09-67.47h-14.9c-3.35,0-6.18,1.95-7.43,4.95l-26.19,62.52
			h18.32l3.64-10.08h22.39L340.15,314.9z M320.67,290.99l9.19-25.33l5.29,25.33H320.67z M247.24,247.43l-14.43,67.47h-17.46
			l14.44-67.47H247.24z"/>
		<g>
			<path class="st5" d="M270.94,349.42l-14.36,31.12h-1.46v-37.89h-20.4v64.12h17.32c4.54,0,8.68-2.64,10.58-6.77l14.36-31.12h1.46
				v37.89h20.4v-64.12h-17.31C276.98,342.65,272.85,345.29,270.94,349.42"/>
			<path class="st5" d="M194.4,351.08l-8.5,29.46h-1.46l-8.5-29.46c-1.44-4.99-6.01-8.43-11.2-8.43h-20.37v64.12h20.4v-37.89h1.46
				l11.66,37.89h14.57l11.66-37.89h1.46v37.89h20.4v-64.12H205.6C200.41,342.65,195.84,346.09,194.4,351.08"/>
			<path class="st5" d="M307.59,371.8v34.98h20.36v-20.4h21.9c9.51,0,17.58-6.09,20.59-14.57H307.59z"/>
			<path class="st5" d="M349.85,342.65h-45.18c2.74,14.92,15.8,26.23,31.52,26.23h35.08c0.28-1.41,0.44-2.87,0.44-4.37
				C371.71,352.44,361.92,342.65,349.85,342.65"/>
		</g>
	</g>
</g>
</svg>
