<?xml version="1.0" encoding="utf-8"?>
<!-- Generator: Adobe Illustrator 24.3.0, SVG Export Plug-In . SVG Version: 6.00 Build 0)  -->
<svg version="1.0" id="Слой_1" xmlns:svgjs="http://svgjs.com/svgjs"
	 xmlns="http://www.w3.org/2000/svg" xmlns:xlink="http://www.w3.org/1999/xlink" x="0px" y="0px" viewBox="0 0 512 512"
	 style="enable-background:new 0 0 512 512;" xml:space="preserve">
<style type="text/css">
	.st0{fill:#364D7C;}
	.st1{fill:#FAFAFA;}
</style>
<g>
	<circle class="st0" cx="256" cy="256" r="256"/>
	<g>
		<path class="st1" d="M457.36,319.21c-0.64,1.56-2.89,1.36-4.51,0.88c-0.79-0.23-1.62-0.48-2.22-1.03
			c-0.45-0.42-0.75-0.96-1.03-1.51c-1.34-2.6-2.54-5.27-3.58-8.01c1.93,0.77,4.18-1.07,6.14-0.36c0.44,0.16,0.92,0.46,1.35,0.26
			c0.2-0.67-0.29-1.38-0.91-1.73c-0.6-0.36-1.32-0.46-1.99-0.69c-0.96-0.32-1.83-0.9-2.51-1.64c-0.46-0.5-0.83-1.08-1.39-1.45
			c-0.57-0.37-1.27-0.49-1.94-0.67c-1.7-0.44-3.26-1.33-4.53-2.54c-0.64-0.6-1.2-1.29-1.66-2.04c-0.37-0.61-0.7-1.28-1.22-1.78
			c-0.52-0.5-1.32-0.8-1.97-0.51c-0.66,0.29-0.92,1.33-0.33,1.76c-2.4-1.72-2.24-4.29-3.94-6.51c-0.45-0.58-2.86-2.87-3.67-2.49
			c-0.72,0.34-0.22,1.35-0.29,2.02c-0.12,1.08-1.21,2.19-1.17,3.05c0.05,1.09,1.85,2.4,2.36,3.42c0.5,0.98,0.96,1.91,1.51,2.75
			c1.13,1.78,2.55,3.14,5.06,3.72c0.49,0.11,1,0.18,1.41,0.46c0.36,0.23,0.62,0.6,0.88,0.95c1.4,1.99,2.84,4.02,3.49,6.37
			c0.23,0.8,0.36,1.66,0.84,2.35c0.38,0.54,0.94,0.93,1.49,1.31c1.19,0.82,2.38,1.64,3.57,2.46c0.42,0.28,0.83,0.57,1.17,0.95
			c0.5,0.55,0.78,1.26,1.08,1.93c1.16,2.62,2.68,5.08,4.49,7.29c0.68,0.83,1.79,1.71,2.72,1.16c-0.38-1.83-0.77-3.67-1.16-5.51
			c-0.07-0.34-0.13-0.74,0.11-0.99c0.16-0.18,0.43-0.23,0.68-0.24c2.23-0.1,3.99,1.79,5.4,3.52
			C461.4,323.42,459.3,321.1,457.36,319.21z"/>
		<path class="st1" d="M178.33,226.44c0.36,0.16,0.72,0.33,1.07,0.49c1.27,0.59,2.55,1.18,3.83,1.77l3.57,2.14
			c0.13-1.22,0.24-2.44,0.37-3.65c0.22-2.14,0.44-4.28,0.66-6.42c0.68,0.67,1.84,0.59,2.65,0.08c0.81-0.5,1.36-1.32,1.92-2.1
			c1.29-1.8,2.76-3.51,4.6-4.74c1.11-0.74,2.32-1.31,3.54-1.86c1.02-0.47,2.03-0.94,3.04-1.41c2.34-1.08,4.69-2.15,7.19-2.72
			c3.03-0.7,6.25-0.65,9.09-1.88c2.85-1.22,5.26-4.44,4.11-7.32c-1.11,0.44-2.21,0.87-3.33,1.31c-2.72,1.08-5.9,2.13-8.43,0.65
			c-0.89-0.53-1.97-1.36-2.81-0.76c-0.53,0.38-0.6,1.12-0.97,1.66c-0.46,0.69-1.32,0.96-2.11,1.19c-2.25,0.63-4.49,1.26-6.74,1.89
			c-0.62,0.17-1.27,0.36-1.72,0.8c-0.37,0.37-0.6,0.87-1.02,1.18c-1.5,1.13-3.89-1.1-5.41,0c-0.83,0.6-0.82,1.83-0.64,2.84
			c0.19,1.02,0.46,2.14-0.09,3c-0.54,0.87-2.28,0.75-2.25-0.27c-0.45,2.07-4.26,2.74-3.63,4.76c-0.49,0.61-1.46,0.35-2.1-0.08
			c-0.65-0.43-1.29-1.03-2.07-0.96c-0.93,0.09-1.5,1.13-1.56,2.07c-0.06,0.94,0.19,1.88,0.08,2.82c-0.18,1.55-1.34,2.85-1.55,4.4
			c-0.03,0.24-0.04,0.48,0.08,0.68C177.86,226.22,178.11,226.34,178.33,226.44z"/>
		<path class="st1" d="M261.05,184.56c2.78,0.32,5.61-3.78,3.01-5.87c-0.34-0.27-0.88,0.02-1.25-0.21
			c-0.25-0.16-0.31-0.49-0.29-0.78c0.02-0.29,0.1-0.59,0.02-0.87c-0.07-0.28-0.37-0.54-0.64-0.43c-0.56,0.23-0.01,1.36-0.57,1.59
			c-0.23,0.1-0.5-0.07-0.75-0.01c-0.44,0.1-0.44,0.73-0.32,1.16c0.38,1.39-0.55,0.73-1.08,1.41c-0.56,0.72-0.05,1.33,0.18,2.06
			C259.69,183.7,259.69,184.4,261.05,184.56z"/>
		<path class="st1" d="M270.37,199.72c0.45-0.13,0.46-0.53,0.78-0.75c0.59-0.4,0.85-0.49,1.56-0.66c1.22-0.29,2.38-0.56,3.51-1.13
			c0.67-0.34,1.36-0.82,1.51-1.56c0.1-0.51-0.12-1.07-0.54-1.37c-0.17-0.12-0.37-0.21-0.53-0.34c-0.43-0.36-0.5-0.99-0.72-1.5
			c-0.31-0.71-0.97-1.25-1.72-1.41c-0.21-0.05-0.44-0.07-0.59-0.21c-0.41-0.37,0.02-1.1-0.23-1.59c-0.24-0.46-0.91-0.43-1.42-0.32
			c-0.33,0.07-0.66,0.14-0.93,0.33c-0.56,0.42-0.61,1.24-0.6,1.94c0.01,1.44,0.02,2.87,0.04,4.31c0,0.19,0,0.4-0.12,0.55
			c-0.22,0.28-0.66,0.18-1,0.29C267.87,196.74,268.52,200.26,270.37,199.72z"/>
		<path class="st1" d="M264.77,185.64c-1.11,0-2.32,0.3-2.99,1.2c-0.4,0.54-0.57,1.26-1.09,1.69c-0.29,0.24-0.66,0.36-0.96,0.59
			c-0.3,0.23-0.51,0.66-0.31,0.98c0.21,0.35,0.72,0.32,1.1,0.47c0.97,0.36,0.73,1.34,1.21,2.01c0.53,0.74,1.52,0.87,2.4,1.17
			c1.52,0.51,2.59,0.43,3.53-1c0.85-1.3,1.47-3.61,1.23-5.14c-0.14-0.93-0.58-1.54-1.71-1.19c-0.93,0.29-0.69,1.23-1.41,1.58
			c-0.46,0.23-0.97-0.31-1.03-0.82C264.68,186.66,264.86,186.14,264.77,185.64z"/>
		<path class="st1" d="M341.2,185.46c0.47,0.29,1.09,0.2,1.6-0.03c0.17-0.08,0.33-0.17,0.51-0.2c0.7-0.13,1.31,0.64,2.02,0.6
			c0.81-0.04,1.29-1.07,2.1-1.13c0.81-0.06,1.12-2.29,1-3.07c-0.13-0.88-0.52-0.99-1.38-1.12c-0.52-0.08-2.45-0.16-2.82,0.27
			c-0.36,0.43,0.2,0.99-0.32,1.44c-0.42,0.37-1.14,0.1-1.62,0.07c-0.14-0.01-0.28,0-0.4,0.08c-0.41,0.27-0.01,1-0.33,1.38
			c-0.13,0.15-0.35,0.2-0.52,0.31C340.58,184.39,340.73,185.17,341.2,185.46z"/>
		<path class="st1" d="M327.65,195.61c0.15,0.91,0.95,1.6,1.82,1.89c0.87,0.3,1.81,0.27,2.73,0.25c0.76-0.02,1.68-0.15,1.95-0.86
			c0.14-0.37,0.05-0.78,0.04-1.17c-0.01-0.39,0.12-0.86,0.49-0.99c0.19-0.07,0.39-0.04,0.59-0.02c0.5,0.04,1.03-0.02,1.42-0.34
			c0.39-0.31,0.56-0.92,0.27-1.33c0.73-0.13,1.47-0.28,2.08-0.7c0.59-0.41,1.02-1.16,0.78-1.86c-1.15,0.09-3.64-0.1-3.41-1.75
			c0.12-0.87,1.43-1.64,1.99-2.22c0.54-0.55,1.23-1.08,0.57-1.75c-0.8-0.81-1.72,0.22-2.35,0.54c-0.95,0.48-2,0.53-3.04,0.63
			c-0.9,0.09-1.81,0.18-2.7,0.04c-0.14,0.65,0,1.36,0.39,1.91c0.26,0.37,0.65,0.72,0.63,1.17c-0.02,0.43-0.42,0.77-0.85,0.84
			c-0.42,0.08-0.86-0.05-1.27-0.19c-1.12-0.38-2.18-0.9-3.18-1.53c-0.85,1.93,1,4.01,1.03,6.13
			C327.65,194.75,327.58,195.19,327.65,195.61z"/>
		<path class="st1" d="M341.41,202.14c0.32-0.37,0.54-0.85,0.96-1.11c0.56-0.35,1.28-0.19,1.95-0.14c0.53,0.04,1.08,0,1.6-0.12
			c0.73-0.17,1.45-0.51,1.89-1.12c0.44-0.6,0.52-1.5,0.05-2.08l-1.95-0.61c-1.1-0.19-2.21-0.34-3.32-0.45
			c-0.31-0.03-0.66-0.05-0.91,0.13c-0.48,0.35-0.28,1.09-0.27,1.69c0.02,1.47-1.45,2.7-1.27,4.16
			C340.52,202.78,341.09,202.51,341.41,202.14z"/>
		<path class="st1" d="M166.46,232.44c0.97-0.1,1.83-0.63,2.65-1.14c0.85-0.52,1.81-1.46,1.31-2.32c-0.27-0.46-0.94-0.83-0.74-1.32
			l-1.45-0.93c-0.21-0.13-0.43-0.19-0.64-0.19c-0.9-0.03-1.83,0.82-2.46,1.58c-0.72,0.88-1.48,2.01-1.08,3.08
			C164.39,232.12,165.49,232.55,166.46,232.44z"/>
		<path class="st1" d="M441.26,355.71c-0.19-9.01-0.85-18.02-2-26.96c-0.22-1.69-0.47-3.41-1.03-5c-0.01-0.03-0.01-0.05-0.03-0.08
			c-0.12-0.32-0.25-0.62-0.38-0.92c-0.04-0.08-0.08-0.18-0.12-0.25c-0.1-0.22-0.21-0.43-0.34-0.64c-0.46-0.77-1.02-1.47-1.58-2.17
			c-0.23-0.28-0.45-0.55-0.66-0.84c-0.2-0.24-0.39-0.5-0.57-0.77c-2.05-3.08-2.55-6.9-3.84-10.38c-0.04-0.11-0.08-0.22-0.12-0.33
			c-0.1-0.25-0.21-0.5-0.32-0.73c-0.03-0.08-0.06-0.16-0.1-0.23c-0.09-0.21-0.21-0.42-0.32-0.63c-0.28-0.53-0.59-1.04-0.95-1.52
			c-0.56-0.78-1.21-1.49-1.93-2.06c-0.13-0.11-0.27-0.22-0.41-0.31c-0.04-0.03-0.08-0.06-0.12-0.08c-0.01,0-0.02-0.02-0.03-0.03
			c-0.07-0.04-0.13-0.08-0.2-0.12c-0.03-0.03-0.06-0.05-0.09-0.06c-1.14-0.71-2.41-1.1-3.79-0.98c0.12-0.15,0.27-0.31,0.4-0.47
			c0.63-0.73,1.25-1.46,1.88-2.18c0.08-0.11,0.17-0.21,0.26-0.31c-3.35-0.91-6.87-1.18-10.33-0.8c0.18,1.02,0.06,2.05-0.28,3.02
			c-0.89,2.52-3.33,4.56-6.05,4.58c-0.66-1.3-1.31-2.6-1.95-3.9c-0.11,0.17-0.23,0.34-0.36,0.49c-0.09,0.09-0.16,0.19-0.25,0.27
			c-0.08,0.08-0.16,0.17-0.26,0.24c-0.06,0.07-0.13,0.13-0.2,0.18c-0.03,0.03-0.07,0.06-0.11,0.07c-1.92,1.46-4.88,1.6-6.81,0.08
			c0.11-0.85,0.26-1.69,0.46-2.52c1.17-4.97,3.78-9.61,4.78-14.63c1.02-5.15,0.32-10.55-1.53-15.45c-0.25-0.67-0.53-1.39-0.35-2.08
			c0.23-0.87,1.07-1.41,1.85-1.85c4.77-2.71,9.55-5.44,14.33-8.16c-1.86-5.77,2.43-12.69,8.43-13.6c-0.29,2.28-1.12,4.49-2.38,6.4
			c1.83-0.04,3.65-0.67,5.1-1.8c-0.58-4.33,0.69-8.86,3.4-12.28c-0.16-0.04-0.31-0.06-0.47-0.08c-0.05,0-0.1-0.01-0.16-0.02
			c-0.01,0-0.01,0-0.02-0.01c-0.09-0.01-0.2-0.04-0.3-0.05c-1.46-0.07-2.95,0.44-4.04,1.42c-0.44-0.68-0.79-1.42-1.04-2.2
			c-1.09-3.29-0.46-7.15,1.76-9.83c0.92-1.1,2.12-2.11,2.38-3.53c0.07-0.44,0.03-0.86-0.06-1.26c1.12,0.65,2.26,1.3,3.39,1.95
			c-0.3-4.76-0.6-9.52-0.89-14.29c-2.38,0.4-4.49-2.73-3.21-4.78c0.83-1.35,2.69-2.23,3.04-3.61c-0.18,2.97,0.56,5.99,2.12,8.54
			c2.44,0.47,2.98,3.67,3.12,6.16c0.05,0.99,0.14,1.98,0.24,2.96c0.09,0.87,0.2,1.74,0.34,2.61c0.17,1.3,0.4,2.61,0.68,3.9
			c0.07,0.36,0.15,0.72,0.23,1.08c0.2,0.89,0.41,1.77,0.66,2.66l0.05,0.02c0.2,0.08,0.4,0.14,0.6,0.21
			c0.67,1.29,1.53,2.58,1.49,3.99c-0.01,0.31-0.07,0.62-0.14,0.91c-0.06,0.25-0.13,0.49-0.2,0.73c-0.21,0.69-0.42,1.4-0.67,2.07
			c-0.24,0.65-0.52,1.27-0.88,1.86c-0.15,0.25-0.3,0.55-0.36,0.85c-0.01,0.05-0.01,0.1-0.02,0.14c0,0.05,0,0.1,0,0.14
			c0,0.15,0.05,0.28,0.16,0.39c0.02,0.02,0.05,0.04,0.08,0.07c0.2,0.13,0.45,0.12,0.69,0.15c0.82,0.12,1.54,0.8,1.69,1.61
			c0.08,0.39,0.05,0.85,0.3,1.16c0.18,0.22,0.47,0.31,0.71,0.47c0.56,0.36,0.79,1.04,1,1.66c0.21,0.59,0.41,1.2,0.6,1.79
			c0.53,1.57,1.34,3.4,2.98,3.67c0.5,0.07,1.12,0.02,1.48,0.39c0.38,0.42,0.23,1.15,0.55,1.64c0.25,0.35,0.7,0.49,1.1,0.64
			c1.03,0.4,1.89,1.12,2.79,1.74c1.2,0.83,2.49,1.52,3.76,2.21c1.68,0.91,3.37,1.83,5.05,2.74c0.62,0.33,1.23,0.67,1.85,1
			c0.67,0.36,1.35,0.72,2.04,1.05c0.85,0.41,1.71,0.75,2.57,1.12c2.06,0.88,4.06,1.89,6.01,3c-1.06-1.19-0.46-3.03-0.39-4.63
			c0.1-2.33-1.1-4.52-2.4-6.45c-0.11-0.16-0.21-0.3-0.37-0.4c-0.21-0.14-0.5-0.15-0.75-0.2c-0.95-0.18-1.67-1.05-1.88-2
			c-0.2-0.94,0.02-1.94,0.43-2.81c0.56-0.01,1.13-0.01,1.7-0.02c0.75-0.54,0.11-1.78-0.73-2.17s-1.88-0.49-2.45-1.22
			c-0.25-0.31-0.37-0.71-0.64-1.01c-0.27-0.3-0.79-0.45-1.05-0.15c-0.55-1.25-0.42-2.67-0.3-4.03c0.03-0.24,0.06-0.5,0.24-0.67
			c0.26-0.24,0.69-0.13,1.06-0.19c0.85-0.14,1.15-1.21,1.12-2.09c-0.01-0.18-0.02-0.37-0.05-0.56c-0.03-0.22-0.09-0.43-0.16-0.65
			c-0.07-0.23-0.16-0.44-0.27-0.64c-0.04-0.09-0.08-0.18-0.14-0.25c-0.02-0.05-0.05-0.09-0.08-0.11c-0.02-0.05-0.05-0.09-0.09-0.13
			c-0.05-0.06-0.1-0.11-0.15-0.18l-0.01,0c0-0.02-0.01-0.03-0.03-0.03c-0.03-0.03-0.06-0.07-0.1-0.1l-0.01-0.01
			c-0.03-0.03-0.05-0.06-0.09-0.07c-0.01-0.02-0.02-0.02-0.04-0.03c-0.03-0.03-0.05-0.06-0.09-0.07c-0.02-0.02-0.04-0.04-0.06-0.05
			c-0.07-0.04-0.13-0.07-0.2-0.1c-0.08-0.04-0.17-0.06-0.25-0.09c-0.03-0.03-0.08-0.04-0.12-0.04l-0.04-0.02
			c-0.04-0.01-0.08-0.01-0.13-0.01c-0.01,0-0.03-0.01-0.04-0.01c-0.07-0.01-0.15-0.01-0.22-0.01c-0.08,0-0.16,0.01-0.23,0.03
			c-0.04,0-0.08,0.01-0.12,0.01c-0.05,0.01-0.1,0.02-0.15,0.03c-0.06,0.02-0.12,0.03-0.2,0.06c-0.08,0.02-0.17,0.06-0.26,0.08
			c-0.04,0.01-0.06,0.02-0.09,0.03c-0.04,0.02-0.08,0.02-0.11,0.05c-0.02-0.01-0.04,0.01-0.05,0.01c-0.06,0.02-0.11,0.04-0.18,0.05
			c-0.18,0.06-0.36,0.1-0.55,0.13c-0.93,0.12-1.89-0.46-2.32-1.31c-0.42-0.83-0.36-1.88,0.09-2.72c0.19-0.38,0.48-0.74,0.58-1.16
			c0.05-0.22,0.04-0.43,0-0.64c0-0.02-0.01-0.04-0.02-0.05c-0.01-0.07-0.04-0.14-0.06-0.21c-0.01-0.01-0.01-0.02-0.02-0.03
			c0-0.01,0-0.02-0.01-0.03c-0.03-0.07-0.06-0.14-0.1-0.2c0-0.01,0-0.01-0.01-0.01c-0.04-0.06-0.08-0.12-0.12-0.18
			c-0.05-0.08-0.12-0.16-0.19-0.24c-0.01-0.01-0.01-0.01-0.01-0.03c-0.23-0.94-1.09-1.73-2.05-2.03c-0.15-0.05-0.3-0.08-0.47-0.11
			c-0.17-0.03-0.34-0.05-0.52-0.07c-0.14-0.01-0.28-0.01-0.42-0.01c-0.15,0-0.31,0-0.47,0.02c-0.59,0.03-1.19,0.14-1.77,0.24
			c-0.05,0.01-0.09,0.01-0.14,0.02c-0.83-0.85-1.26-2.09-1.14-3.27c0-0.13,0.02-0.25,0.05-0.37c-0.92-0.16-1.83-0.29-2.74-0.44
			c-0.24,1.06-0.5,2.14-0.74,3.21c-0.15-0.08-0.3-0.17-0.44-0.25c-0.13-0.07-0.26-0.16-0.38-0.23c-0.03-0.03-0.06-0.04-0.07-0.05
			c-0.14-0.08-0.26-0.17-0.39-0.27c-0.1-0.07-0.2-0.14-0.29-0.22c-0.14-0.11-0.27-0.22-0.42-0.34c-0.65-0.55-1.26-1.17-1.84-1.82
			c-0.69-0.78-1.34-1.61-1.98-2.43c-1.3-1.68-2.6-3.36-3.91-5.04c1.14,0.07,2.01-1.44,1.37-2.4c1.26,0.35,1.89-1.57,1.47-2.81
			c-0.44-1.22-1.29-2.57-0.68-3.73c0.39,1.52,1.77,2.75,3.32,2.96c-0.57-2.19-0.84-4.45-0.81-6.71c0.02-1.07,0.11-2.18,0.67-3.09
			c1.24-2.02,4.05-2.19,6.42-2.13c-0.07-0.06-0.14-0.13-0.2-0.2c-0.04-0.04-0.08-0.07-0.11-0.1c-1.98-1.97-2.71-4.87-3.35-7.62
			c-1.29-5.64-2.59-11.3-3.87-16.94c-0.89,0.42-1.76,0.83-2.65,1.26c-0.79-1.26,1.19-2.32,2.53-2.92c1.65-0.74,2.95-2.2,3.5-3.91
			c0.02-0.08,0.05-0.15,0.07-0.23c-0.76-0.59-1.53-1.17-2.29-1.75c-0.2,0.16-0.41,0.31-0.64,0.45c-0.44,0.27-0.91,0.49-1.4,0.66
			c-0.25,0.09-0.49,0.16-0.74,0.22c-0.08,0.02-0.16,0.04-0.24,0.06c-0.2-0.72-0.41-1.46-0.62-2.2c-0.07-0.24-0.14-0.48-0.21-0.72
			c0.41,1.37-1.82,1.88-3.15,1.33c-0.31-0.13-0.66-0.26-1.02-0.39c-0.45-0.15-0.91-0.27-1.34-0.29c-0.11,0-0.21-0.02-0.31-0.01
			c-0.21,0-0.41,0.04-0.58,0.12c-0.1,0.03-0.18,0.07-0.25,0.13c-0.06,0.04-0.13,0.09-0.18,0.14c-0.06,0.05-0.12,0.11-0.17,0.18
			c-0.03,0.03-0.05,0.06-0.08,0.1c0.05,0.72,0.11,1.45,0.17,2.18c-1.28,0.17-2.59,0.11-3.85-0.16c-0.09,0.9-0.19,1.81-0.28,2.72
			c-0.72,0.18-1.5,0.08-2.15-0.27c0.1-2.93,4.51-4.12,4.88-7.03c0.26-1.9-1.46-3.56-3.28-4.17c-1.81-0.6-3.78-0.5-5.68-0.84
			c0.44-1.14,0.72-2.34,0.84-3.55c0.81,1.76,3.53,2.01,4.98,0.71c1.45-1.3,1.7-3.57,1.09-5.41c3.99-0.79,7.73-2.78,10.62-5.64
			c0.66-0.66,1.14-1.82,1.02-2.62c-0.01,0-0.01-0.01-0.01-0.03c-0.01-0.06-0.03-0.11-0.05-0.16c0-0.02-0.01-0.05-0.02-0.08
			c-0.01-0.01-0.01-0.04-0.02-0.04c-0.01-0.04-0.02-0.06-0.04-0.09c-0.01-0.01-0.02-0.03-0.03-0.03c-0.02-0.03-0.03-0.06-0.04-0.07
			s-0.03-0.03-0.05-0.04c-0.01-0.01-0.01-0.03-0.02-0.02c-0.02-0.03-0.03-0.05-0.06-0.07l-0.01,0c-0.03-0.03-0.06-0.05-0.11-0.07
			c-0.01,0-0.02-0.01-0.02-0.01l-0.05-0.02c-0.09-0.04-0.18-0.08-0.29-0.09c-0.4,0.27-0.81,0.54-1.21,0.81
			c-0.06-0.1-0.15-0.21-0.23-0.3c-0.04-0.05-0.08-0.1-0.12-0.14c-0.07-0.08-0.15-0.16-0.22-0.23c-0.01-0.01-0.01-0.01-0.02-0.02
			c0,0,0,0,0,0c-0.14-0.13-0.29-0.26-0.44-0.37c-0.01-0.02-0.03-0.03-0.05-0.03c-0.01-0.02-0.03-0.03-0.04-0.03
			c-0.02-0.02-0.04-0.03-0.07-0.04c-0.03-0.03-0.07-0.04-0.1-0.07c-0.01,0-0.02-0.02-0.04-0.02c-0.06-0.05-0.14-0.08-0.21-0.13
			c-0.06-0.04-0.13-0.05-0.19-0.09l-0.15-0.07c-0.12-0.04-0.22-0.11-0.35-0.15c-0.08-0.02-0.15-0.05-0.23-0.07
			c-0.03-0.01-0.05-0.02-0.08-0.01c-0.11-0.04-0.22-0.07-0.33-0.08c-0.01-0.02-0.04-0.02-0.05-0.01c-0.08-0.01-0.16-0.03-0.25-0.03
			c-0.09-0.03-0.18-0.04-0.27-0.03c-0.91-0.08-1.83,0.12-2.6,0.6c-0.47,0.28-0.85-4.39-0.76-4.83c0.14-0.7,0.84-1.67,0.83-2.35
			c0-0.01-0.01-0.01-0.01-0.01c0.01-0.06,0-0.11-0.03-0.16l0-0.01c-0.01-0.06-0.02-0.1-0.06-0.14l0-0.02c0,0,0,0-0.01,0
			c-0.01-0.03-0.02-0.04-0.04-0.05c0-0.02,0-0.02-0.01-0.02c-0.01-0.03-0.02-0.04-0.05-0.07c0,0,0,0-0.01,0l-0.01,0
			c-0.04-0.05-0.1-0.09-0.17-0.12l-0.03-0.01c-0.06-0.03-0.14-0.04-0.21-0.06c-0.09-0.01-0.18-0.01-0.28-0.01
			c-0.01,0.01-0.04,0.01-0.04,0c-0.04,0-0.08,0-0.12,0c-0.04,0.01-0.07,0.01-0.11,0.02c-0.05,0.01-0.1,0.01-0.16,0.02
			c-0.08,0.02-0.18,0.04-0.28,0.07c-0.13,0.03-0.27,0.07-0.42,0.13c-0.09,0.03-0.18,0.07-0.28,0.11c-2.38,0.99-5.76,3.72-6.66,4.29
			c-0.14,2.07-1,4.09-2.4,5.63c0.15,0.02,0.31,0.04,0.47,0.06c1.56,0.16,3.15,0.07,4.69-0.25c0.56,1.6-1.19,3.23-2.86,3.23
			c-0.25,0-0.49-0.02-0.74-0.07c-0.03,0-0.05,0-0.08-0.01c-0.02,0-0.04-0.01-0.06-0.02c-0.04-0.01-0.08-0.01-0.13-0.03
			c-0.05,0-0.1-0.02-0.16-0.04c-0.16-0.04-0.31-0.08-0.46-0.14c-0.22-0.08-0.44-0.17-0.64-0.28c-0.07-0.02-0.12-0.05-0.18-0.08
			l-0.12-0.05c-0.1-0.05-0.18-0.1-0.27-0.15c-0.04-0.02-0.07-0.04-0.1-0.05c-0.14-0.08-0.28-0.17-0.4-0.26
			c-0.01,0-0.02-0.01-0.02-0.01c-0.41-0.26-0.8-0.54-1.18-0.81c0.04,0.06,0.08,0.12,0.09,0.18c0.02,0.03,0.03,0.06,0.03,0.09
			c0.01,0.03,0.01,0.06,0.01,0.09c0.01,0.02,0.01,0.04,0.01,0.06c0,0.05,0,0.11-0.01,0.17c0,0.01,0,0.01-0.01,0.02
			c-0.02,0.06-0.03,0.12-0.05,0.17c-0.05,0.13-0.12,0.25-0.22,0.36c-0.09,0.09-0.18,0.17-0.28,0.25c-0.22,0.17-0.46,0.28-0.71,0.32
			c-0.82,0.13-1.68-0.16-2.5,0.05c-0.98,0.24-1.65,1.14-2.3,1.93c-0.27,0.33-0.56,0.64-0.85,0.95c-0.6,0.61-1.24,1.18-1.9,1.71
			c-0.33,0.27-0.67,0.54-1.02,0.78c-1.37,1.02-2.85,1.94-4.3,2.88c-0.37,0.23-0.73,0.46-1.09,0.71c-0.54,0.35-1.07,0.71-1.6,1.08
			c-0.35,0.24-0.69,0.49-1.04,0.75c-0.16,0.12-0.33,0.26-0.5,0.39c-0.33,0.27-0.66,0.54-0.97,0.82c0,0.01,0,0.01,0,0.01
			c-0.32,0.27-0.62,0.56-0.92,0.86c-0.04,0.04-0.08,0.08-0.12,0.12c-0.22,0.22-0.43,0.45-0.64,0.7c-0.31,0.35-0.61,0.72-0.88,1.12
			c-0.4,0.56-0.76,1.16-1.08,1.77c-0.22,0.37-0.41,0.76-0.61,1.15c-0.36,0.7-0.69,1.43-1.04,2.14c-0.25,0.5-0.49,1.01-0.77,1.5
			c-0.05,0.1-0.11,0.2-0.17,0.3c-0.24,0.44-0.51,0.87-0.79,1.29c-0.03,0.04-0.06,0.09-0.09,0.13c-0.12,0.18-0.26,0.36-0.38,0.53
			c-0.14,0.18-0.29,0.36-0.45,0.53c0.05,0.04,0.09,0.09,0.14,0.12c0.05,0.06,0.1,0.09,0.15,0.12c1.34,1,3.22,1,4.78,1.69
			c1.68,0.74,2.73,3.43,1.08,4.2c-0.67,0.33-1.46,0.11-2.2,0.18c-0.43,0.04-0.89,0.27-1.14,0.59c-0.04,0.05-0.06,0.09-0.1,0.14
			c-0.05,0.08-0.08,0.16-0.1,0.25c-0.02,0.06-0.02,0.12-0.01,0.19c-0.01,0.09,0.01,0.17,0.05,0.25c-0.93-0.32-1.84-0.69-2.74-1.11
			c-0.14-0.05-0.27-0.12-0.41-0.19c-0.13-0.06-0.26-0.12-0.4-0.19c-0.27-0.12-0.54-0.26-0.81-0.4c0.12,0.09,0.22,0.17,0.31,0.28
			c0.01,0.02,0.02,0.02,0.03,0.03c0.01,0.01,0.01,0.02,0.02,0.03c0.02,0.01,0.03,0.03,0.03,0.05c0.02,0.01,0.03,0.03,0.05,0.04
			c0.01,0.02,0.03,0.03,0.04,0.06c0.02,0.02,0.04,0.05,0.05,0.08l0.01,0.01c0.15,0.23,0.24,0.49,0.28,0.77
			c0.01,0.01,0.01,0.03,0.01,0.05c0.01,0.06,0.01,0.12,0.01,0.18c0.01,0.02,0.01,0.03,0.01,0.05c0.01,0.04,0,0.08,0,0.12
			c0,0.02,0.01,0.06-0.01,0.09c0,0.08-0.01,0.16-0.02,0.23l0,0.01c0,0.02,0,0.04,0,0.05c0,0.02,0,0.03-0.01,0.04
			c-0.01,0.12-0.03,0.23-0.07,0.34c0,0.03-0.02,0.06-0.02,0.1c-0.01,0.02-0.01,0.04-0.02,0.07s-0.02,0.06-0.03,0.1
			c-0.01,0.03-0.02,0.06-0.03,0.09l-0.02,0.05c-0.01,0.05-0.03,0.09-0.05,0.13c0,0.02-0.01,0.05-0.03,0.06
			c-0.07,0.18-0.14,0.34-0.24,0.51c-0.03,0.06-0.07,0.12-0.1,0.18c-0.07,0.13-0.15,0.27-0.24,0.4c-0.07,0.11-0.15,0.23-0.24,0.33
			c-0.04,0.06-0.09,0.12-0.14,0.18c-0.01,0.02-0.02,0.02-0.03,0.04c-0.05,0.06-0.09,0.11-0.14,0.16c-0.05,0.06-0.1,0.13-0.16,0.18
			c-0.02,0.02-0.05,0.06-0.08,0.08c-0.07,0.08-0.15,0.15-0.21,0.22l0,0.01c-0.03,0.02-0.05,0.03-0.06,0.05
			c-0.01,0.02-0.03,0.03-0.03,0.04c-0.18,0.17-0.36,0.32-0.54,0.46c-0.16,0.12-0.32,0.25-0.48,0.38c-0.16,0.13-0.32,0.26-0.48,0.4
			c-0.01,0-0.01,0-0.01,0.01c-0.16,0.14-0.32,0.27-0.47,0.41l-0.01,0.01c-0.15,0.14-0.3,0.28-0.45,0.42
			c-0.01,0.01-0.01,0.01-0.02,0.01c-0.15,0.15-0.3,0.3-0.45,0.46c0,0.01-0.02,0.01-0.03,0.03c-0.09,0.09-0.16,0.19-0.24,0.29
			c-0.09,0.09-0.16,0.19-0.23,0.29c-0.08,0.1-0.14,0.2-0.2,0.3c-0.13,0.18-0.22,0.38-0.31,0.57c-0.04,0.08-0.07,0.16-0.09,0.23
			c-0.07,0.18-0.11,0.35-0.14,0.53c-0.02,0.09-0.03,0.18-0.03,0.27c-0.01,0.09-0.01,0.18,0,0.27c0.01,0.28,0.06,0.55,0.16,0.84
			c0.04,0.09,0.07,0.18,0.12,0.27c0.83,1.68,3.27,2.79,2.78,4.59c-0.49,0.35-1.07,0.5-1.67,0.47c-0.09-0.01-0.18-0.01-0.26-0.02
			c-0.09-0.01-0.17-0.02-0.26-0.04c-0.32-0.04-0.64-0.16-0.93-0.33l-0.07-0.03c-0.01,0.01-0.02,0-0.03-0.01
			c-0.02-0.01-0.04-0.02-0.06-0.04c-0.08-0.04-0.16-0.09-0.23-0.15c-0.11-0.07-0.21-0.15-0.3-0.24c-0.02-0.01-0.03-0.03-0.05-0.04
			c-0.16-0.15-0.31-0.33-0.43-0.52c-0.05-0.07-0.09-0.14-0.13-0.22c-0.03-0.05-0.05-0.1-0.07-0.16c-0.04-0.1-0.08-0.2-0.11-0.3
			c-0.22-0.01-0.43,0.03-0.63,0.09c-0.1,0.03-0.21,0.07-0.3,0.12c-0.1,0.04-0.19,0.1-0.28,0.16c-0.26,0.17-0.49,0.38-0.66,0.64
			c-0.04,0.06-0.08,0.12-0.11,0.19c-0.08,0.13-0.13,0.27-0.17,0.41c-0.1-0.32-0.24-0.61-0.42-0.89c-0.17-0.28-0.37-0.54-0.6-0.76
			c-0.08-0.08-0.15-0.15-0.23-0.22c-0.09-0.09-0.2-0.17-0.29-0.25c-0.02-0.02-0.06-0.05-0.09-0.06c-0.1-0.08-0.2-0.14-0.3-0.21
			c-0.36-0.24-0.77-0.43-1.2-0.58c-0.12-0.04-0.25-0.09-0.38-0.13c-0.04-0.02-0.07-0.02-0.1-0.02c-0.13-0.03-0.25-0.07-0.38-0.09
			c-0.03-0.01-0.06-0.02-0.08-0.01c-0.14-0.03-0.28-0.05-0.42-0.07c-0.18-0.03-0.37-0.03-0.55-0.04c-0.56-0.03-1.13,0.02-1.67,0.15
			c-0.16,0.05-0.32,0.09-0.49,0.14c-0.82,0.28-1.56,0.7-2.23,1.22c-0.14,0.1-0.27,0.21-0.4,0.33c-0.07,0.06-0.14,0.12-0.22,0.19
			c-0.36,0.33-0.7,0.69-1.01,1.09c-0.17,0.21-0.33,0.42-0.49,0.64c0,0,0,0,0,0.01c-0.14,0.2-0.28,0.4-0.39,0.61
			c-0.19,0.3-0.35,0.6-0.51,0.91c-0.12,0.23-0.24,0.46-0.34,0.7c-0.06,0.14-0.12,0.29-0.18,0.42c-0.13,0.31-0.25,0.61-0.38,0.91
			c-0.31,0.78-0.68,1.53-1.25,2.08c-0.12,0.12-0.24,0.23-0.38,0.32c-0.14,0.1-0.29,0.19-0.45,0.26c-0.75,0.33-1.63,0.28-2.42,0.5
			c-0.14,0.04-0.27,0.1-0.4,0.16c-0.13,0.06-0.24,0.13-0.36,0.22c0,0,0,0.01-0.02,0.01c-0.34,0.27-0.59,0.61-0.62,1
			c-0.02,0.11-0.01,0.24,0.03,0.36c-0.16-0.28-0.35-0.53-0.58-0.75c-0.07-0.07-0.14-0.15-0.22-0.22c-0.06-0.05-0.13-0.1-0.19-0.15
			c-0.39-0.3-0.83-0.54-1.29-0.69c-0.09-0.03-0.16-0.05-0.25-0.08c-0.11-0.03-0.23-0.06-0.34-0.07c-0.05-0.01-0.1-0.02-0.14-0.02
			c-0.06-0.02-0.12-0.02-0.18-0.03c-0.02,0-0.03,0-0.05,0c-0.09-0.01-0.19-0.02-0.29-0.02c-0.11,0-0.23,0-0.34,0.01
			c-0.22,0.01-0.45,0.05-0.67,0.11c0.02,0.08,0.04,0.15,0.05,0.22c0.02,0.05,0.02,0.11,0.02,0.15c0.01,0.07,0.01,0.12,0.01,0.19
			c0,0.04-0.01,0.09-0.01,0.13c0,0,0.01,0,0,0.01c0.01,0.01,0.01,0.04,0,0.04c0,0.05-0.01,0.09-0.03,0.13
			c0.01,0.01,0,0.03-0.01,0.04c-0.01,0.06-0.02,0.11-0.04,0.17c0,0.04-0.01,0.07-0.04,0.1c-0.01,0.03-0.02,0.06-0.04,0.08
			c-0.22,0.61-0.72,1.13-1.37,1.28c-0.24-1.27-0.19-2.61,0.16-3.87c0.01-0.05,0.03-0.09,0.04-0.14c-0.04-0.07-0.09-0.15-0.13-0.21
			c-0.05-0.07-0.1-0.12-0.16-0.17c-0.05-0.06-0.1-0.09-0.16-0.13c-0.06-0.05-0.13-0.09-0.22-0.13c-0.07-0.03-0.15-0.06-0.23-0.08
			c-0.08-0.02-0.16-0.04-0.24-0.04c-0.07-0.01-0.15-0.01-0.22-0.02c-0.17,0-0.36,0.03-0.54,0.06c-0.17,0.03-0.34,0.1-0.51,0.17
			c-0.08,0.04-0.17,0.08-0.24,0.12c-0.1,0.04-0.19,0.1-0.27,0.17c-0.01,0.01-0.03,0.02-0.03,0.03c-0.1,0.07-0.2,0.14-0.28,0.24
			c-0.06,0.06-0.12,0.13-0.18,0.2c-0.02,0.02-0.04,0.05-0.06,0.08c-0.07,0.09-0.14,0.19-0.18,0.29c-0.27,0.54-0.39,1.12-0.42,1.73
			c-0.01,0.09-0.01,0.18-0.01,0.27c-0.02,0.83,0.09,1.69,0.13,2.52c0.01,0.21,0.01,0.43,0,0.66c0,0.02,0,0.05-0.01,0.09
			c0,0.05,0,0.11-0.01,0.15c-0.01,0.14-0.03,0.28-0.04,0.43c0,0,0,0.01-0.01,0.02c-0.01,0.1-0.03,0.22-0.06,0.32
			c-0.01,0.04-0.01,0.07-0.03,0.11c-0.01,0.07-0.03,0.13-0.04,0.2c0,0.05-0.02,0.12-0.05,0.17c0,0.02,0,0.03-0.01,0.05l-0.01,0.03
			c-0.24,0.77-0.7,1.42-1.42,1.75c0.06-0.98,0.12-1.96,0.18-2.94c0.02-0.16,0.02-0.31,0.03-0.47c-0.09,0.01-0.18,0.03-0.26,0.05
			c-0.07,0.01-0.14,0.04-0.2,0.06l-0.12,0.05c-0.02,0-0.04,0-0.06,0.02c-0.08,0.03-0.15,0.06-0.22,0.1
			c-0.05,0.02-0.1,0.04-0.13,0.07c-0.04,0.02-0.07,0.04-0.1,0.07c-0.05,0.02-0.1,0.04-0.13,0.07c0,0.01-0.01,0.01-0.01,0.01
			c-0.05,0.04-0.1,0.08-0.13,0.12c-0.03,0.01-0.05,0.03-0.06,0.05c-0.07,0.06-0.13,0.12-0.19,0.18c-0.03,0.02-0.05,0.03-0.07,0.06
			c-0.04,0.05-0.07,0.09-0.11,0.14c-0.12,0.14-0.22,0.3-0.31,0.47c-0.26-0.48-0.34-1.04-0.22-1.55c0-0.05,0.03-0.11,0.04-0.16
			c0.02-0.08,0.05-0.16,0.08-0.24c-1.18-0.06-2.35-0.13-3.54-0.19c-0.37,1.94-2.48,3.35-4.42,2.96c0.42,1.74-0.05,3.65-1.2,5
			c0.84,0.1,1.68,0.2,2.52,0.3c0.36,1.62,0.71,3.24,1.08,4.86c-0.41,0-0.8,0.1-1.16,0.27l-0.01,0c-0.03,0.03-0.07,0.04-0.1,0.06
			c-0.08,0.04-0.16,0.08-0.22,0.13c-0.12,0.07-0.22,0.15-0.33,0.24c-0.09,0.09-0.19,0.18-0.28,0.28c-0.06,0.07-0.12,0.15-0.18,0.23
			c-0.03,0.04-0.06,0.08-0.08,0.12c-0.07,0.1-0.12,0.2-0.17,0.31l-0.04,0.09c0.07,0.01,0.14,0.04,0.2,0.07
			c0.02,0.01,0.04,0.02,0.05,0.03c0.02,0.01,0.04,0.02,0.05,0.03c0.5,0.3,0.69,1.04,0.47,1.58c0,0.02,0,0.03-0.01,0.05
			c-0.08,0.18-0.2,0.34-0.38,0.44c-1.38-1.25-3.31-1.86-5.16-1.64c-0.01,1.19-0.02,2.38-0.03,3.55c-1.52,0.64-3.4,0.38-4.69-0.66
			c0.41,1.73,0.82,3.43,1.23,5.15c0.02,0,0.04,0,0.06,0.01c0.17,0,0.35,0.01,0.52,0.01c0.01,0.33,0.02,0.65,0.03,0.98
			c-0.07,0-0.14-0.01-0.2-0.01c-0.3,0-0.61-0.02-0.91-0.04c-0.3-0.01-0.61-0.04-0.91-0.08c-0.62-0.04-1.21-0.13-1.81-0.23
			c-0.3-0.04-0.6-0.08-0.9-0.15c-0.17-0.03-0.34-0.07-0.51-0.11c-0.23-0.03-0.45-0.08-0.66-0.14c-2.21-0.48-4.37-1.22-6.43-2.18
			c-0.37-2.26,0.13-4.66,1.39-6.57c-0.01-0.01,0-0.02,0.01-0.03c0-0.01,0-0.01,0.02-0.01c0.01-0.04,0.04-0.08,0.07-0.11
			c0.06-0.11,0.12-0.2,0.19-0.29c-3.82,0.25-7.63,0.49-11.46,0.75c0.07,0.14,0.15,0.28,0.22,0.42c0.92,1.72,1.83,3.44,2.75,5.16
			c-0.23,0.06-0.47,0.11-0.71,0.17c-0.27,0.06-0.53,0.13-0.79,0.18c-2.82,0.66-5.64,1.32-8.46,1.98c-0.04,0.01-0.06,0.02-0.1,0.02
			c-0.02-0.16-0.04-0.31-0.07-0.47c-0.01,0-0.01-0.01-0.01-0.03c-0.04-0.15-0.1-0.3-0.17-0.45l-0.04-0.09
			c-0.01-0.03-0.03-0.06-0.04-0.07c-0.02-0.05-0.04-0.1-0.07-0.13c-0.02-0.04-0.05-0.09-0.07-0.13c-0.03-0.05-0.07-0.11-0.11-0.16
			c-0.01-0.02-0.02-0.03-0.02-0.04c-0.03-0.03-0.04-0.07-0.07-0.11c-0.08-0.12-0.17-0.23-0.28-0.32c-0.06-0.06-0.13-0.12-0.2-0.18
			c-0.05-0.06-0.1-0.1-0.16-0.14c-0.02-0.02-0.05-0.06-0.08-0.07c-0.02-0.03-0.05-0.06-0.08-0.06c-0.05-0.04-0.09-0.07-0.14-0.11
			c-0.07-0.05-0.14-0.11-0.22-0.14c-0.05-0.04-0.09-0.06-0.15-0.09l-0.05-0.02c-0.06-0.04-0.14-0.06-0.21-0.1l-0.11-0.05
			c-0.12-0.05-0.24-0.11-0.35-0.15c-0.12-0.04-0.24-0.08-0.36-0.12c-0.04-0.01-0.06-0.03-0.1-0.03c-0.04-0.01-0.09-0.03-0.13-0.03
			c-0.09-0.03-0.17-0.04-0.26-0.06c-0.02,0-0.03,0-0.05,0c-0.12-0.02-0.23-0.04-0.35-0.05c-0.18-0.01-0.36-0.03-0.54-0.01
			c-0.09-0.01-0.2,0-0.29,0c-0.25,0-0.5,0.02-0.75,0.07c-0.28,0.04-0.56,0.09-0.83,0.15c-0.28,0.07-0.56,0.15-0.83,0.22
			c-0.19,0.06-0.37,0.13-0.56,0.19c-0.56,0.19-1.11,0.41-1.66,0.63c0.37,1.09,0.5,2.28,0.38,3.42c-0.1-0.02-0.2-0.04-0.3-0.06
			c-0.21-0.04-0.42-0.08-0.64-0.12c-2.12-0.38-4.24-0.76-6.36-1.13c-1.16,2.94-3.94,5.18-7.07,5.66c-0.06-6.01,4-11.83,9.65-13.87
			c-0.14-2.54-0.28-5.06-0.43-7.61c0-0.12-0.01-0.25-0.02-0.38c-2.85-0.56-5.7-1.12-8.54-1.67c0,0.11,0,0.21-0.02,0.31
			c-0.01,0.07-0.02,0.16-0.03,0.23c-0.02,0.13-0.05,0.25-0.09,0.38c0.01,0.01,0,0.02,0,0.02c0,0.05-0.03,0.11-0.05,0.15
			c-0.1,0.3-0.22,0.58-0.4,0.84c-0.01,0.02-0.01,0.03-0.03,0.04c-0.01,0.03-0.03,0.05-0.06,0.08c-0.02,0.05-0.05,0.1-0.1,0.14
			c-0.02,0.04-0.05,0.08-0.08,0.11c-0.02,0.04-0.05,0.06-0.09,0.09c0,0.02-0.01,0.03-0.03,0.03c-0.05,0.07-0.12,0.14-0.19,0.21
			l0,0.01c-0.06,0.06-0.13,0.13-0.2,0.18c-0.03,0.03-0.06,0.06-0.1,0.09c0,0.01-0.01,0.02-0.03,0.02c-0.08,0.08-0.16,0.14-0.26,0.19
			c-0.03,0.03-0.07,0.06-0.11,0.07c-0.23,0.15-0.48,0.26-0.74,0.35c-0.12-0.98-0.23-1.96-0.34-2.96c-0.02-0.14-0.04-0.29-0.05-0.43
			c-0.32,0.03-0.63,0.07-0.95,0.1c-1.13,0.13-2.27,0.25-3.39,0.36c-0.5-1.55-0.53-3.26-0.08-4.83c-1.9-0.68-4.01,0.86-4.69,2.76
			c-0.62,1.73-0.38,3.61-0.06,5.44c0.02,0.17,0.06,0.34,0.09,0.52c-1.7,0.97-3.82,1.22-5.7,0.66c0.14,0.05,0.24,0.12,0.32,0.22
			c0.01,0.02,0.04,0.04,0.05,0.07c0.02,0.02,0.03,0.05,0.04,0.07c0.02,0.04,0.03,0.08,0.04,0.11l0.01,0
			c0.01,0.05,0.01,0.09,0.01,0.15c0.01,0.01,0.01,0.03,0,0.04c0,0.04-0.01,0.09,0,0.13c-0.01,0.02-0.01,0.04-0.02,0.06
			c0,0.01,0,0.02,0,0.03c-0.17,0.81-1.19,1.86-2.17,2.15l-2.2,0.67l-8.39,2.53c-0.23,0.06-0.46,0.15-0.69,0.23
			c-0.93,0.33-1.91,0.76-2.8,1.28c-0.17,0.1-0.34,0.2-0.5,0.3c-0.64,0.41-1.23,0.86-1.72,1.37c-0.11,0.1-0.21,0.21-0.3,0.33
			c-0.03,0.02-0.05,0.04-0.07,0.08c-0.08,0.08-0.14,0.17-0.2,0.26c-0.07,0.09-0.14,0.19-0.19,0.29c-0.15,0.21-0.26,0.42-0.36,0.64
			c-0.04,0.08-0.07,0.16-0.1,0.25c-0.02,0.05-0.04,0.09-0.05,0.13c-0.03,0.09-0.05,0.16-0.07,0.24c-0.02,0.08-0.04,0.16-0.05,0.23
			c-0.01,0.07-0.02,0.15-0.03,0.23c-0.01,0.07-0.01,0.15-0.02,0.22c0,0.09,0,0.17,0.01,0.25c0.01,0.38,0.08,0.76,0.23,1.15
			c0.04,0.11,0.09,0.2,0.13,0.31c0.31,0.66,0.74,1.3,0.77,1.99c0.01,0.1,0.01,0.2,0,0.3c-0.06,0.42-0.27,0.77-0.57,1.03
			c-0.06,0.06-0.13,0.13-0.21,0.18c-0.15,0.1-0.31,0.18-0.48,0.26c-0.07,0.03-0.15,0.06-0.22,0.09c-0.61,0.23-1.31,0.34-1.94,0.36
			c-0.8,0.03-1.62,0.04-2.42,0.05l-6.3-0.2c-0.42-0.04-0.85-0.06-1.28-0.11c-0.16-0.01-0.33-0.03-0.49-0.05
			c-0.03,0.03-0.05,0.06-0.08,0.1c-0.07,0.08-0.14,0.17-0.19,0.25c-0.01,0.02-0.03,0.04-0.04,0.06c-0.02,0.01-0.03,0.04-0.04,0.07
			c-0.05,0.07-0.09,0.16-0.12,0.23l-0.03,0.06c-0.03,0.07-0.05,0.14-0.08,0.2c-0.04,0.1-0.08,0.2-0.09,0.31
			c-0.01,0.02-0.01,0.05-0.01,0.08c0,0.03-0.01,0.06-0.02,0.09c0,0.01,0,0.01,0,0.02c-0.02,0.12-0.04,0.26-0.04,0.39
			c-0.01,0.07-0.01,0.15,0,0.23c-0.01,0.05,0,0.11-0.01,0.16c0.01,0.07,0.02,0.14,0.03,0.21c0.01,0.04,0.01,0.06,0.01,0.09
			c0.03,0.23,0.07,0.46,0.13,0.68c0.02,0.08,0.04,0.14,0.06,0.21c0.03,0.12,0.07,0.25,0.13,0.37c0.03,0.09,0.06,0.17,0.1,0.24
			c0.21,0.47,0.47,0.9,0.79,1.28c1.24,1.52,2.99,2.56,4.19,4.11c1.74,2.23,2.05,4.96,1.62,7.77c-0.17,1.09-0.45,2.19-0.8,3.3
			c-0.58,1.79-1.34,3.55-2.12,5.17c-2.58-2.85,0.19-7.37-0.36-11.18c-0.06-0.43-0.17-0.85-0.31-1.24c0-0.01,0-0.02-0.02-0.04
			c-0.05-0.15-0.11-0.3-0.17-0.45c-0.02-0.08-0.06-0.14-0.09-0.19c-0.08-0.17-0.16-0.32-0.26-0.48c0-0.02-0.01-0.04-0.02-0.04
			c-0.11-0.19-0.22-0.37-0.35-0.54c-0.12-0.19-0.26-0.36-0.4-0.53c-0.14-0.16-0.27-0.32-0.42-0.48c-0.02-0.03-0.05-0.06-0.08-0.08
			c-0.09-0.1-0.18-0.2-0.29-0.28c-0.08-0.08-0.18-0.17-0.27-0.24l0-0.01c-0.02-0.02-0.05-0.04-0.07-0.05
			c-0.07-0.06-0.15-0.13-0.22-0.19c-0.12-0.11-0.24-0.2-0.36-0.29c-0.05-0.04-0.1-0.09-0.15-0.12c-0.23-0.18-0.46-0.35-0.7-0.51
			c-0.04-0.04-0.07-0.06-0.12-0.08c-0.16-0.1-0.32-0.21-0.49-0.31c-0.05-0.04-0.1-0.07-0.15-0.1c-0.02-0.01-0.04-0.02-0.06-0.04
			c-0.32-0.2-0.63-0.38-0.96-0.56l-0.07-0.03c-0.22-0.11-0.43-0.22-0.64-0.33c-0.75-0.39-1.5-0.73-2.24-1.06
			c0.51,1.36,0.65,2.83,0.43,4.25c-1.74,0.2-3.57-0.44-4.81-1.69c0.13,0.21,0.27,0.42,0.41,0.63c1.57,2.42,3.14,4.85,4.71,7.26
			c-4.19,0.78-8.29-4.08-6.8-8.08c-0.06-0.09-0.13-0.17-0.2-0.23c-0.11-0.09-0.24-0.16-0.39-0.21c-0.01-0.01-0.03-0.01-0.05-0.01
			c-0.05-0.02-0.11-0.03-0.16-0.04c-0.05-0.02-0.11-0.03-0.18-0.01c-0.06-0.02-0.13-0.01-0.2,0c-0.57,0.05-1.16,0.4-1.46,0.9
			c-0.55,0.91-0.44,2.07-0.4,3.13c0.17,4.28-0.98,8.6-3.25,12.23c2.58-1.45,6.02,0.02,7.74,2.44c1.73,2.41,2.17,5.48,2.54,8.42
			c0.01,0.06,0.02,0.12,0.03,0.19c0.01,0.12,0.03,0.23,0.05,0.35c0.02,0.18,0.04,0.36,0.07,0.53c-0.11,0.1-0.23,0.2-0.36,0.3
			c-0.13,0.1-0.26,0.18-0.39,0.26c-0.13,0.09-0.26,0.16-0.41,0.22c0,0,0,0,0,0.01c-0.13,0.07-0.27,0.13-0.41,0.19
			c-0.15,0.06-0.31,0.13-0.47,0.16c-0.21,0.07-0.42,0.12-0.64,0.15c-0.22,0.05-0.43,0.08-0.65,0.08c-0.66,0.06-1.33-0.02-1.94-0.23
			c0.95-3.56-0.55-7.59-3.48-9.78c-0.04-0.04-0.08-0.08-0.14-0.11c-0.04-0.04-0.09-0.07-0.14-0.11c-0.11-0.08-0.23-0.16-0.35-0.22
			c-0.13-0.09-0.26-0.17-0.4-0.25c0.78,3.93-1.1,8.23-4.51,10.32c-3.4,2.1-8.1,1.84-11.25-0.62c2.51-0.59,5.08-1.21,7.17-2.69
			c2.1-1.47,3.65-4.04,3.16-6.56c2.76-3.87,1.15-9.36,2.79-13.83c0.78-2.15,2.29-3.95,3.42-5.94c1.07-1.88,1.8-4.16,1.16-6.19
			c-0.04-0.13-0.09-0.25-0.13-0.37c-0.26-0.63-0.7-1.18-1.26-1.59c-1.28-0.98-3.13-1.24-4.26-0.14c-0.01,0.01-0.02,0.02-0.03,0.03
			c-1.66,3.6-4.79,6.5-8.5,7.9c0.4,4.51,0.8,9.02,1.2,13.53c0.21,2.4-0.78,5.9-3.1,5.25c-0.1-0.03-0.19-0.06-0.27-0.1
			c-0.11-0.05-0.22-0.11-0.31-0.17c-0.08-0.06-0.16-0.11-0.23-0.18c-0.07-0.05-0.14-0.13-0.2-0.2c-0.08-0.08-0.14-0.15-0.21-0.25
			c-0.03-0.05-0.08-0.1-0.11-0.15c-0.05-0.08-0.11-0.17-0.16-0.26c-0.15-0.26-0.28-0.54-0.4-0.82c-0.02-0.04-0.04-0.09-0.06-0.15
			c-0.02-0.04-0.04-0.08-0.05-0.13c-0.09-0.2-0.15-0.4-0.22-0.58c-0.12-0.34-0.26-0.67-0.4-1c-0.26-0.59-0.54-1.17-0.86-1.74
			c-0.06-0.13-0.14-0.26-0.21-0.38c-0.14-0.25-0.29-0.49-0.44-0.73c-0.15-0.25-0.32-0.5-0.49-0.74c-0.14-0.22-0.28-0.42-0.44-0.62
			c-0.04-0.06-0.09-0.13-0.14-0.18c-0.12-0.16-0.25-0.33-0.38-0.48c-0.14-0.18-0.28-0.35-0.44-0.52c-0.02-0.04-0.06-0.08-0.1-0.12
			c-0.17-0.21-0.34-0.41-0.53-0.59c-0.09-0.12-0.2-0.22-0.3-0.32c-0.14-0.15-0.28-0.3-0.43-0.43c-0.2-0.21-0.42-0.42-0.63-0.6
			c-0.22-0.21-0.44-0.39-0.66-0.58c-0.23-0.2-0.47-0.4-0.72-0.58c-0.22-0.17-0.44-0.34-0.68-0.5c-0.22-0.16-0.46-0.32-0.7-0.47
			c-0.21-0.15-0.41-0.28-0.63-0.4c-0.19-0.12-0.37-0.22-0.57-0.33c-0.28-0.17-0.56-0.32-0.84-0.45c-0.44-0.23-0.87-0.43-1.32-0.62
			c0.06,0.24,0.08,0.5,0.08,0.73c0,0.12,0,0.24-0.01,0.36c-0.01,0.22-0.04,0.42-0.09,0.63c-0.03,0.13-0.06,0.27-0.11,0.4
			c-0.1,0.32-0.23,0.62-0.41,0.9c-0.17,0.31-0.39,0.6-0.64,0.87l0,0.01c-0.11,0.13-0.23,0.26-0.37,0.37
			c-0.2,0.18-0.42,0.35-0.65,0.5c-0.22,0.14-0.45,0.27-0.69,0.38c-0.15,0.07-0.31,0.13-0.48,0.19c0,0-0.01,0.01-0.02,0
			c-0.7,0.22-1.45,0.27-2.18,0.09c0.14-1.46,0.26-2.9,0.4-4.36c0.01-0.17,0.03-0.35,0.04-0.52c-0.5,0.27-1.02,0.51-1.56,0.7
			c-0.15,0.07-0.31,0.13-0.46,0.17c-0.11,0.04-0.22,0.08-0.33,0.1c-0.18,0.06-0.37,0.12-0.55,0.16c-0.08,0.03-0.18,0.05-0.26,0.06
			c-0.14,0.04-0.26,0.07-0.39,0.09l0,0.01c-3.9,0.82-8.18-0.04-11.38-2.44c3.28,1.06,7.16-0.35,9.06-3.21
			c0.09-0.12,0.17-0.26,0.25-0.39c-2.02-0.09-4.03-0.18-6.04-0.27c-2.44-0.12-4.89-0.22-7.34-0.34c-0.25-0.01-0.48-0.02-0.73-0.03
			c-0.39-0.02-0.78-0.03-1.17-0.05c-0.22-0.01-0.44-0.02-0.67-0.02c-0.22,0-0.44,0.01-0.66,0.03c-0.1,0.01-0.21,0.01-0.32,0.04
			c-0.21,0.04-0.43,0.09-0.63,0.18c-0.1,0.04-0.19,0.09-0.28,0.15c-0.04,0.02-0.09,0.06-0.13,0.09c-0.03,0.02-0.06,0.04-0.09,0.06
			c-1,0.74-1.32,2.12-2.1,3.1c-1.84,2.32-6.3,1.19-6.82-1.72c-0.52-2.9,3.26-5.52,5.8-3.99c0.6-1.99,0.48-4.13-0.2-6.08
			c-0.01-0.05-0.03-0.09-0.04-0.13c-0.1-0.29-0.22-0.57-0.35-0.84c-0.09-0.21-0.2-0.41-0.32-0.61c-0.12-0.24-0.26-0.47-0.42-0.69
			c-0.09-0.15-0.19-0.29-0.3-0.43c-0.08-0.11-0.17-0.23-0.26-0.35c-0.11-0.15-0.23-0.28-0.34-0.41c-0.12-0.13-0.23-0.24-0.35-0.36
			c-0.11-0.12-0.23-0.23-0.35-0.34c-0.17-0.15-0.35-0.31-0.53-0.45c-0.21-0.17-0.44-0.33-0.66-0.47c-0.5,1.59-1,3.18-1.49,4.77
			c-0.54,1.74-1.08,3.47-1.63,5.2c-0.02,0.06-0.04,0.12-0.06,0.18c-0.05,0.16-0.1,0.33-0.16,0.49c-0.04,0.11-0.07,0.24-0.12,0.35
			c-0.5,1.49-1.19,2.93-2.48,3.77c-1.58,1.02-4.3,0.32-4.42-1.58c-2.34-0.8-5.31-1.39-7.31-0.38c-0.06,0.03-0.11,0.06-0.17,0.1
			c-0.09,0.05-0.17,0.1-0.24,0.15c-0.02,0-0.04,0.02-0.06,0.03c-0.23,0.16-0.45,0.36-0.65,0.59c-0.02,0.01-0.03,0.03-0.04,0.05
			c-0.04,0.05-0.09,0.1-0.13,0.16c-0.08,0.1-0.14,0.2-0.21,0.31c-0.45,0.74-0.63,1.64-1.2,2.29c-0.09,0.11-0.2,0.21-0.31,0.29
			c0,0.01-0.02,0.01-0.02,0.01c-0.1,0.09-0.22,0.14-0.33,0.2c0,0.01-0.02,0.01-0.03,0.01c-1.59,0.78-3.96-0.54-4.5-2.4
			c-0.63-2.15,0.31-4.41,1.24-6.46c-3.08,0.07-5.21,4.18-3.49,6.72c-1.66,1.24-4.22-0.27-4.78-2.27c-0.55-2,0.23-4.11,0.99-6.04
			c1.2-0.26,2.4-0.52,3.6-0.77c0.1-0.61,0.21-1.23,0.31-1.84c0.77-4.55,1.52-9.09,2.28-13.65c1.37-0.45,1.99,1.67,1.93,3.1
			c-0.14,3.78,0.58,7.83,2.84,10.77c0.4,0.54,0.87,1.04,1.4,1.51c3.36,2.91,9.42,2.76,11.59-1.08c0.03-0.03,0.04-0.07,0.06-0.11
			c0.67-4.01,0.29-8.19-1.04-12.04c-0.11-0.3-0.22-0.6-0.35-0.91c0.01-0.02,0-0.03-0.01-0.05c-0.04-0.11-0.09-0.22-0.14-0.33
			c-0.04-0.11-0.08-0.21-0.13-0.31c-0.1-0.26-0.21-0.5-0.32-0.73c-0.04-0.09-0.08-0.19-0.13-0.27c-0.05-0.12-0.1-0.22-0.15-0.33
			c-0.02-0.04-0.03-0.07-0.06-0.09c-0.09-0.22-0.19-0.4-0.29-0.59c-0.1-0.19-0.2-0.38-0.32-0.57c-0.04-0.1-0.1-0.19-0.16-0.27
			c-0.08-0.16-0.18-0.32-0.27-0.46c-0.1-0.17-0.21-0.34-0.31-0.5c-0.04-0.04-0.06-0.08-0.1-0.13c-0.06-0.1-0.13-0.21-0.2-0.31
			c-0.08-0.1-0.14-0.2-0.21-0.3c-0.01-0.01,0-0.02-0.01-0.03c-0.48-0.69-1.01-1.36-1.57-1.99c0.2-0.8,0.14-1.62-0.11-2.38
			c-0.04-0.11-0.08-0.23-0.13-0.34c-0.04-0.09-0.07-0.18-0.12-0.26c-0.01-0.04-0.02-0.06-0.04-0.08c-0.04-0.08-0.09-0.17-0.14-0.26
			c-0.01-0.01-0.01-0.01-0.01-0.02c-0.01-0.01-0.01-0.01-0.01-0.01c-0.01-0.01-0.02-0.03-0.03-0.03c-0.06-0.11-0.11-0.21-0.19-0.3
			c-0.01-0.03-0.03-0.06-0.05-0.08c-0.05-0.08-0.11-0.15-0.18-0.22c-0.08-0.11-0.18-0.22-0.28-0.32c-0.07-0.09-0.16-0.16-0.23-0.24
			c0,0,0,0-0.01,0c-0.08-0.08-0.18-0.16-0.27-0.23c-0.01-0.02-0.03-0.03-0.05-0.03c-0.01-0.02-0.03-0.03-0.05-0.04
			c-0.01-0.02-0.02-0.02-0.04-0.03c-0.12-0.1-0.26-0.18-0.4-0.26c-0.05-0.03-0.09-0.06-0.14-0.08c-0.11-0.06-0.23-0.12-0.35-0.18
			c-0.1-0.04-0.2-0.09-0.31-0.13c-0.02-0.01-0.04-0.02-0.06-0.02c-0.18-0.06-0.37-0.11-0.55-0.15c-0.28-0.06-0.55-0.08-0.84-0.08
			c-2.39,0.05-4.32,1.86-5.99,3.55c-5.04,5.12-10.09,10.23-15.14,15.33c-0.16,0.16-0.32,0.32-0.48,0.47
			c-0.33,0.32-0.67,0.64-1.04,0.93c-0.18,0.15-0.36,0.3-0.55,0.43c-0.15,0.11-0.29,0.22-0.46,0.32c-0.03,0.02-0.06,0.05-0.1,0.06
			c-0.19,0.12-0.38,0.24-0.59,0.33c-0.17,0.09-0.35,0.17-0.52,0.24c-0.04,0.02-0.07,0.03-0.1,0.03c-0.2,0.09-0.41,0.15-0.6,0.18
			c-0.62,0.15-1.25,0.16-1.89-0.02l-0.09,3.01l-0.15,4.43c-4.81-0.05-9.61-0.11-14.41-0.17c-0.28-0.01-0.57,0-0.84,0
			c-0.47,0-0.96,0.01-1.43,0.05c-0.21,0.02-0.41,0.05-0.61,0.08c-0.22,0.03-0.44,0.08-0.66,0.13c-0.18,0.03-0.37,0.09-0.55,0.16
			l0,0.01c-0.12,0.03-0.25,0.09-0.38,0.14c-0.17,0.07-0.32,0.14-0.49,0.23c-0.16,0.09-0.31,0.19-0.47,0.29
			c-0.14,0.1-0.28,0.2-0.41,0.31c-0.87,0.71-1.61,1.59-2.54,2.24c-0.19,0.13-0.4,0.25-0.6,0.37c-0.16,0.09-0.33,0.18-0.51,0.26
			c-0.4,0.19-0.83,0.35-1.25,0.5c-0.17,0.06-0.34,0.11-0.5,0.17c-0.78,0.26-1.58,0.51-2.33,0.84c-0.21,0.09-0.41,0.19-0.6,0.3
			c-0.11,0.06-0.23,0.12-0.35,0.19c-0.67,0.37-1.28,0.8-1.84,1.29c-0.12,0.11-0.26,0.22-0.39,0.34c-2.2,2.02-3.81,4.78-5.24,7.53
			c-0.21,0.4-0.42,0.81-0.62,1.21c-0.32,0.62-0.63,1.27-0.87,1.93c-0.03,0.1-0.06,0.18-0.09,0.28c-0.04,0.12-0.07,0.24-0.11,0.37
			c-0.03,0.12-0.06,0.24-0.08,0.36c-0.02,0.08-0.03,0.15-0.04,0.22c-0.03,0.14-0.05,0.28-0.05,0.41c-0.03,0.34-0.02,0.67,0.03,1
			c0.02,0.16,0.05,0.32,0.1,0.47c0.05,0.2,0.13,0.4,0.22,0.59c0.51,1.14,1.46,2.1,1.72,3.32c0.22,1.01-0.06,1.97-0.53,2.89
			c-0.13,0.26-0.28,0.52-0.44,0.78c-0.16,0.26-0.33,0.51-0.5,0.75c-0.26,0.4-0.54,0.78-0.8,1.15c-0.31,0.44-0.59,0.9-0.85,1.37
			c-0.07,0.13-0.14,0.27-0.21,0.41c-0.12,0.22-0.23,0.45-0.35,0.69c-0.1,0.2-0.18,0.39-0.27,0.59c-0.08,0.17-0.14,0.34-0.21,0.52
			c-0.01,0.01-0.02,0.01-0.01,0.03c-0.07,0.16-0.13,0.31-0.19,0.46c-0.02,0.05-0.03,0.1-0.05,0.14c-0.01,0.02-0.01,0.04-0.02,0.06
			c-0.06,0.17-0.12,0.33-0.17,0.5c-0.03,0.07-0.06,0.16-0.08,0.24c0,0.01,0,0.01-0.01,0.02c-0.06,0.18-0.12,0.36-0.15,0.54
			c-0.05,0.16-0.09,0.33-0.13,0.5c-0.02,0.08-0.05,0.15-0.06,0.24c0,0.03-0.02,0.07-0.02,0.1c0,0.01-0.01,0.02,0,0.03
			c-0.02,0.05-0.04,0.11-0.05,0.18c-0.07,0.28-0.12,0.56-0.17,0.84c-0.03,0.11-0.04,0.22-0.06,0.32c-0.03,0.23-0.07,0.44-0.09,0.67
			c-0.01,0.09-0.02,0.18-0.03,0.27c-0.01,0.09-0.02,0.18-0.03,0.26c-0.03,0.23-0.04,0.46-0.05,0.69c-0.01,0.04-0.01,0.09-0.01,0.14
			c-0.01,0.07-0.02,0.14-0.02,0.21c-0.01,0.13-0.01,0.25-0.01,0.38c0,0.2-0.01,0.38-0.01,0.56c0,0.01,0,0.02,0.01,0.04
			c0,0.13,0,0.25,0,0.38c0,0.07,0,0.12,0.01,0.19c0,0.19,0.01,0.39,0.03,0.58c0,0.01,0.01,0.01,0.01,0.01
			c0.01,0,0.01,0.01,0.01,0.01c-0.01,0.09,0.01,0.18,0.01,0.27c-0.06-0.26-0.13-0.51-0.21-0.75c-0.02-0.05-0.03-0.1-0.05-0.15
			c-0.03-0.07-0.05-0.12-0.07-0.18c-0.02-0.1-0.06-0.18-0.1-0.25c-0.06-0.15-0.12-0.28-0.18-0.43c-0.01-0.02-0.02-0.04-0.03-0.06
			c-0.08-0.18-0.19-0.37-0.28-0.55c-0.03-0.07-0.06-0.14-0.1-0.2c-0.02-0.04-0.06-0.09-0.09-0.13c-0.03-0.07-0.07-0.13-0.12-0.21
			c-0.02-0.03-0.03-0.07-0.07-0.1c-0.07-0.12-0.14-0.23-0.22-0.34c-0.01-0.03-0.02-0.04-0.04-0.05c-0.08-0.14-0.18-0.26-0.27-0.37
			c-0.06-0.07-0.11-0.14-0.17-0.2c-0.11-0.15-0.23-0.29-0.35-0.41c-0.14-0.16-0.29-0.31-0.44-0.45c-0.08-0.08-0.18-0.17-0.27-0.24
			c-0.02-0.02-0.04-0.04-0.06-0.06c-0.08-0.08-0.17-0.15-0.27-0.23c-0.03-0.03-0.06-0.05-0.1-0.08c-0.11-0.09-0.24-0.18-0.36-0.27
			c-0.06-0.04-0.12-0.08-0.18-0.11c-0.07-0.06-0.16-0.11-0.24-0.16c-0.11-0.07-0.21-0.14-0.33-0.2c-0.16-0.09-0.31-0.17-0.47-0.25
			c0.02,0.14,0.02,0.27,0.01,0.41c0,0.02-0.01,0.04-0.01,0.06c-0.01,0.06-0.01,0.13-0.03,0.18c0.01,0.03,0,0.05-0.01,0.07
			c0,0.11-0.03,0.21-0.06,0.3c-0.02,0.06-0.03,0.12-0.05,0.18c-0.05,0.15-0.09,0.3-0.16,0.44c-0.02,0.07-0.05,0.13-0.09,0.2
			c-0.13,0.3-0.31,0.6-0.5,0.89c-0.12,0.19-0.25,0.38-0.37,0.57c-0.09,0.13-0.2,0.27-0.29,0.42c-0.12,0.17-0.24,0.33-0.35,0.5
			c-0.05,0.06-0.08,0.12-0.14,0.18c0,0,0,0,0,0.01c-0.05,0.06-0.09,0.12-0.13,0.18c-0.04,0.04-0.07,0.09-0.09,0.13
			c-0.04,0.06-0.09,0.12-0.13,0.18c-0.03,0.04-0.06,0.09-0.08,0.14c-0.06,0.08-0.1,0.16-0.15,0.25c-0.07,0.1-0.13,0.22-0.17,0.32
			c-0.06,0.11-0.12,0.23-0.17,0.35l-0.07,0.16c-0.04,0.08-0.06,0.16-0.07,0.24c-0.02,0.04-0.02,0.08-0.03,0.12
			c-0.01,0.02-0.02,0.04-0.01,0.06c-0.02,0.05-0.03,0.1-0.03,0.15c-0.01,0.04-0.01,0.09-0.01,0.12c-0.01,0.04-0.01,0.08,0,0.13
			c0,0.02,0,0.05,0,0.08c0,0.01,0,0.02,0,0.03l0.01,0.01c0.01,0.04,0.01,0.06,0.02,0.08c0.01,0.12,0.04,0.25,0.09,0.37
			c0,0.01,0,0.03,0.02,0.05c0.02,0.05,0.05,0.11,0.08,0.17c0.07,0.14,0.16,0.27,0.28,0.4c0.81,0.9,2.27,0.8,3.25,1.5
			c2.01,1.43,0.67,4.41-0.19,6.81c-0.05,0.13-0.09,0.25-0.14,0.38c-0.5,1.47-0.65,2.98-0.55,4.5c0,0.09,0.01,0.18,0.03,0.28
			c-0.01,0.09,0.01,0.18,0.02,0.27c0,0,0,0,0,0.01c0.02,0.14,0.03,0.28,0.05,0.41c0.08,0.59,0.18,1.19,0.32,1.77
			c0.04,0.19,0.09,0.4,0.15,0.6c0.14,0.57,0.31,1.15,0.5,1.71c0.09,0.27,0.18,0.54,0.28,0.8c0.18,0.53,0.38,1.07,0.59,1.6
			c0.26,0.65,0.52,1.31,0.79,1.94c1.19,0.82,2.35,1.68,3.46,2.59c-0.2,0.98-0.39,1.97-0.59,2.97c1.39,1.16,1.61,2.81,1.19,4.56
			c-0.03,0.15-0.07,0.31-0.12,0.46c-0.21,0.77-0.55,1.55-0.96,2.3c-0.04,0.08-0.08,0.16-0.14,0.23c-0.12,0.23-0.26,0.45-0.4,0.68
			c-0.38,0.64-0.81,1.23-1.24,1.77c-0.05,0.06-0.08,0.11-0.12,0.15c-0.7,0-1.42-0.08-2.1-0.28c-0.42-0.11-0.82-0.25-1.21-0.43
			c0,0-0.01,0-0.02-0.01c-0.12-0.05-0.23-0.1-0.34-0.16c-0.08-0.04-0.17-0.09-0.26-0.14c-0.16-0.08-0.31-0.17-0.45-0.27
			c-0.13-0.08-0.25-0.17-0.38-0.26c-0.01,0-0.01,0-0.02-0.01c-0.18-0.14-0.36-0.27-0.53-0.42c-0.16-0.14-0.31-0.28-0.46-0.42
			c-0.23-0.24-0.46-0.49-0.66-0.75c-0.87,0.72-1.8,1.36-2.78,1.94c-0.36,0.21-0.73,0.41-1.11,0.59c-0.18,0.09-0.37,0.19-0.57,0.27
			c-0.43,0.21-0.89,0.4-1.35,0.58c-0.23,0.1-0.46,0.18-0.69,0.25c-0.72,0.27-1.46,0.48-2.2,0.64c-0.27,0.07-0.53,0.13-0.79,0.17
			c-0.27,0.06-0.53,0.1-0.8,0.14c-0.23,0.04-0.45,0.07-0.68,0.09c-0.5,0.06-1,0.1-1.49,0.12c-0.3,0.01-0.6,0.02-0.9,0.03
			c-0.68,0.03-1.35,0.04-2.01,0.16c-0.14,0.02-0.3,0.05-0.44,0.09c-0.13,0.03-0.26,0.07-0.39,0.11c-0.17,0.04-0.34,0.11-0.51,0.18
			c-2.46,1.08-3.5,3.95-4.26,6.53c-0.12,0.39-0.22,0.8-0.3,1.22c-0.01,0.02,0,0.03-0.01,0.05c-0.02,0.09-0.04,0.18-0.05,0.27
			c-0.02,0.09-0.03,0.17-0.04,0.27c0,0.03-0.02,0.06-0.01,0.08c-0.01,0.1-0.03,0.21-0.03,0.31c-0.03,0.21-0.04,0.43-0.04,0.64
			l0,0.01c0,0.1,0,0.2,0.01,0.3c0,0.1,0,0.21,0.01,0.31c0,0.1,0.02,0.2,0.03,0.3c0.01,0.09,0.03,0.19,0.05,0.28
			c0.05,0.3,0.14,0.58,0.26,0.83c0.25,0.55,0.65,0.99,1.26,1.26c0.8,0.36,1.81,0.27,2.51,0.81c0.95,0.74,0.82,2.18,1.11,3.36
			c0.37,1.59,1.57,2.81,2.69,4c6.19,6.67,10.76,14.83,13.2,23.59c0.39,1.37,0.72,2.74,1,4.12c0.19,0.97,0.37,1.96,0.67,2.9
			c0.1,0.3,0.19,0.58,0.31,0.85c0.03,0.07,0.05,0.12,0.07,0.18c0.24,0.56,0.56,1.08,0.96,1.55c1.29,1.5,3.94,2.01,5.17,0.46
			c0.33-3.9-1.85-8.26,0.36-11.5c0.76-1.13,1.95-1.9,2.83-2.93c4.28-5.05-0.12-14.25,4.74-18.73c1.05,2.73,2.09,5.47,3.14,8.21
			c0.45,1.16,1.01,2.44,2.17,2.86c2.76,1.01,5.33-3.72,8-2.5c-0.38-6.27-1.62-12.48-3.68-18.4c3.65-1.76,7.31-3.53,10.97-5.28
			c0.03,2.26,1.2,4.48,3.06,5.78c1.26-0.79,2.09-2.24,2.14-3.74c4.19-0.79,8.38-1.58,12.57-2.37c2.97,4.68,5.57,9.62,7.74,14.73
			c0.41,0.95,0.82,1.93,1.65,2.54c1.55,1.15,3.69,0.46,5.61,0.44c1.91-0.02,4.27,1.76,3.24,3.39c4.65,0.78,9.09,2.66,12.89,5.45
			c0.63-3.91,0.25-7.99-1.08-11.72c1.71-0.57,3.6-0.55,5.29,0.04c0.44-2.06,3.13-3.28,4.96-2.23c0.36,0.98,0.72,1.95,1.07,2.93
			c1.53-2.41,0.89-5.96-1.4-7.68c9.65,0.88,19.29,1.77,28.94,2.65c0.79,0.07,1.64,0.16,2.28,0.62c1.54,1.08,2.06,4.09,3.89,3.62
			c-0.74,1.9-1.48,3.82-2.22,5.71c-0.07,0.15-0.12,0.3-0.18,0.45c0.09,0.05,0.17,0.1,0.27,0.13c1.59,0.82,3.5,0.96,5.21,0.4
			c0.37,1.96,0.75,3.92,1.12,5.88c1.09,0.67,2.5-0.18,3.35-1.13c0.87-0.95,1.71-2.14,2.98-2.32c1.28-0.17,2.48,1.75,1.36,2.37
			c1.94,0.26,4-0.62,5.16-2.21c0.4,3.88,1.03,7.73,1.93,11.53c0.13,0.57,0.27,1.14,0.41,1.7c0.15,0.57,0.29,1.14,0.46,1.7
			c0.28,1.02,0.58,2.04,0.89,3.06c0.38,1.22,0.79,2.44,1.23,3.65c0.2,0.56,0.41,1.1,0.61,1.65c0.23,0.59,0.46,1.18,0.7,1.78
			c0.45,1.08,0.91,2.16,1.4,3.23c0.42,0.93,1.06,1.98,2.07,2.01c1.51,0.02,1.89-2.03,2.66-3.34c0.93-1.57,2.53-2.05,4.37-2.21
			c1.69,0.14,3.38,0.29,5.08,0.44c0.2,1.66,0.42,3.33,0.63,4.99c1.6,0.17,3.2,0.32,4.79,0.47c1.76,4.03,6.11,6.77,10.5,6.64
			c7.15-0.21,12.18-6.86,16.07-12.87c4.39,0.38,6.02,6.66,10.28,7.81c3.95,1.05,8.69-2.76,11.89-0.2
			c4.96-2.48-1.32-11.79,2.98-15.31c1.42,1.7,3.5,2.84,5.7,3.12c2.37,0.3,4.86-0.36,7.15,0.31c2.29,0.67,4.12,3.77,2.39,5.43
			c0.65,3.17,5.46,2.3,8.17,0.54c2.72-1.75,7.21-3.18,8.43-0.18c1.07,0.07,2.17-0.48,2.75-1.38c2.52,4.56,9.17,3.93,14.25,2.69
			c5.31-1.31,11.89-4.23,11.49-9.7c3.39,0.06,6.77,0.61,10,1.61c1.97-3.44,8.75-1.43,10.17-5.14c0.63-1.63-0.3-3.41-0.45-5.16
			c-0.29-2.96,1.63-5.71,1.79-8.67c0.15-2.96-3.73-6.14-5.49-3.76c-0.65-4.25,2.64-8.32,6.57-10.04c3.96-1.71,8.43-1.62,12.73-1.5
			c-0.95,2.03,2.73,2.38,4.94,2.8c4.83,0.91,5.36,8.21,9.68,10.57c0.9-0.74,1.8-1.48,2.71-2.22c3.77-0.75,7.86,0.22,10.89,2.58
			c1.51,1.16,2.77,2.66,4.45,3.55c1.67,0.9,4.02,1.01,5.26-0.43c-1.98-4.14,2.97-9.53,7.28-7.93c0.98,3.16,1.76,6.39,2.33,9.66
			c0.04,0.25,0.08,0.5,0.12,0.74c0.1,0.56,0.18,1.11,0.26,1.67c0.35,2.42,0.57,4.86,0.68,7.3c-2.54-1.1-4.98,2.41-4.36,5.09
			c0.05,0.21,0.11,0.41,0.18,0.61c0.06,0.2,0.14,0.39,0.22,0.58c0.02,0.05,0.04,0.11,0.07,0.17c0.01,0.04,0.03,0.07,0.04,0.09
			c0.93,2.01,2.63,3.67,3.88,5.54c1.32,1.98,1.99,4.86,0.78,6.72c0,0.01-0.01,0.02-0.02,0.02c-0.09,0.16-0.2,0.3-0.32,0.43
			c-0.12,0.14-0.25,0.27-0.4,0.39c0.15-0.05,0.31-0.1,0.46-0.18c0.08-0.03,0.15-0.06,0.22-0.11c0.07-0.03,0.14-0.07,0.2-0.11
			c2.27-1.29,3.4-4.45,2.23-6.83c3.32,1.3,7.18-0.95,8.86-4.09C441.28,363,441.32,359.27,441.26,355.71z M429.25,218.64
			c-0.52-0.45-1.16-0.79-1.85-1.02c0.46-0.49,0.75-1.14,0.72-1.82C428.51,216.74,428.89,217.69,429.25,218.64z"/>
	</g>
</g>
</svg>
