<svg width="100" height="100" viewBox="0 0 100 100" fill="none" xmlns="http://www.w3.org/2000/svg">
<path d="M80 0H20C8.95431 0 0 8.9543 0 20V80C0 91.0457 8.9543 100 20 100H80C91.0457 100 100 91.0457 100 80V20C100 8.95431 91.0457 0 80 0Z" fill="#DC472E"/>
<path d="M57.7663 64.0146C57.7641 63.6416 57.6544 63.2532 57.5162 62.9043C57.3318 62.4457 56.9369 62.2175 56.441 62.1692C55.8595 62.1122 55.3943 62.347 54.973 62.72C54.7506 62.9135 54.7273 63.237 54.7276 63.5318L54.736 74.9289V75.0281C54.736 75.1532 54.7699 75.2802 54.8523 75.3744C55.1946 75.7452 55.594 76.0392 56.1052 76.1446C56.9478 76.3179 57.5425 75.9668 57.7071 75.1857C57.7488 74.9904 57.7729 74.7885 57.7729 74.5888C57.7773 71.0626 57.7839 67.5386 57.7663 64.0146ZM57.7663 64.0146C57.7641 63.6416 57.6544 63.2532 57.5162 62.9043C57.3318 62.4457 56.9369 62.2175 56.441 62.1692C55.8595 62.1122 55.3943 62.347 54.973 62.72C54.7506 62.9135 54.7273 63.237 54.7276 63.5318L54.736 74.9289V75.0281C54.736 75.1532 54.7699 75.2802 54.8523 75.3744C55.1946 75.7452 55.594 76.0392 56.1052 76.1446C56.9478 76.3179 57.5425 75.9668 57.7071 75.1857C57.7488 74.9904 57.7729 74.7885 57.7729 74.5888C57.7773 71.0626 57.7839 67.5386 57.7663 64.0146ZM71.0263 46.1554C57.0115 45.8548 42.99 45.8548 28.973 46.1554C24.1105 46.2585 20.2222 50.2346 20.2222 55.0993V76.9894C20.2222 81.8563 24.1105 85.8323 28.973 85.9354C42.99 86.2361 57.0115 86.2361 71.0263 85.9354C75.891 85.8323 79.7793 81.8563 79.7793 76.9894V55.0993C79.7793 50.2348 75.891 46.2585 71.0263 46.1554ZM33.0895 76.9633C33.0895 78.0794 32.1847 78.9842 31.0685 78.9842C29.9524 78.9842 29.0476 78.0794 29.0476 76.9633V58.2274C29.0476 57.0719 28.1109 56.1352 26.9554 56.1352H26.7743C25.7188 56.1352 24.8631 55.2795 24.8631 54.224C24.8631 53.1684 25.7188 52.3128 26.7743 52.3128H35.3759C36.429 52.3128 37.2827 53.1665 37.2827 54.2196C37.2827 55.2727 36.429 56.1264 35.3759 56.1264H35.1861C34.0282 56.1264 33.0895 57.0651 33.0895 58.223V76.9633ZM47.5541 69.5003V77.1967C47.5541 78.185 46.753 78.9862 45.7647 78.9862H44.5893C44.2502 78.9862 43.9753 78.7113 43.9753 78.3721V77.2141C43.9753 77.0723 43.7994 77.0017 43.7054 77.1079C42.9352 77.9768 42.0619 78.7009 40.9472 79.0849C40.403 79.2714 39.8435 79.3351 39.2707 79.2363C38.4896 79.1068 37.9652 78.657 37.6492 77.9461C37.3551 77.29 37.2805 76.5878 37.2783 75.8813C37.2715 73.8483 37.2727 65.0213 37.2735 61.1485C37.2737 60.1358 38.0949 59.3167 39.1076 59.3167C40.0816 59.3167 40.848 60.0775 40.85 61.0515C40.8566 64.1351 40.8643 70.5827 40.866 74.1961C40.866 74.4594 40.8682 74.7293 40.9208 74.986C41.0525 75.6355 41.5506 75.9142 42.176 75.686C42.8957 75.4227 43.4443 74.9268 43.9051 74.3321C43.9731 74.2465 43.9731 74.0929 43.9731 73.97V61.0809C43.9731 60.0937 44.7721 59.2928 45.7592 59.2903C46.7498 59.2879 47.5541 60.0882 47.5541 61.0788C47.5541 63.3594 47.5541 67.2687 47.5541 69.5003ZM61.1696 77.0903C60.6913 78.5298 59.638 79.2626 58.124 79.2473C56.893 79.2363 55.8946 78.747 55.0717 77.8539C54.9476 77.7209 54.725 77.8094 54.725 77.9913V78.5564C54.725 78.7913 54.5346 78.9818 54.2996 78.9818H52.9323C51.9422 78.9818 51.1396 78.1791 51.1396 77.1891V54.1031C51.1396 53.113 51.9422 52.3103 52.9323 52.3103H53.0483C53.9743 52.3103 54.725 53.0599 54.725 53.9859C54.725 56.2251 54.725 59.0572 54.725 60.3659C54.725 60.5466 54.9915 60.6128 55.1112 60.4774C55.6664 59.8565 56.3422 59.3759 57.176 59.1653C58.5519 58.8208 60.1383 59.2465 60.8931 60.8549C61.3386 61.805 61.4637 62.8187 61.4637 63.85C61.4702 67.5781 61.4702 71.3062 61.4659 75.0343C61.4637 75.7321 61.3913 76.4213 61.1696 77.0903ZM74.4121 76.3401C73.7911 78.1591 72.5075 79.1685 70.6248 79.445C69.4574 79.6161 68.301 79.592 67.2061 79.0961C65.7074 78.4203 64.8582 77.198 64.494 75.6423C64.325 74.9182 64.2416 74.159 64.2328 73.4151C64.2043 70.4945 64.2175 67.5718 64.2241 64.6512C64.2263 63.124 64.5905 61.7152 65.6372 60.5457C66.8309 59.2094 68.3581 58.7113 70.1025 58.8232C70.627 58.8561 71.1624 58.9417 71.6605 59.1062C73.3566 59.6636 74.2629 60.9341 74.6184 62.6193C74.7544 63.2688 74.8049 63.9424 74.8158 64.6073C74.8236 65.0305 74.8263 65.5922 74.8262 66.1859C74.8257 68.0772 73.283 69.5993 71.3917 69.5993C69.4848 69.5993 67.939 71.1451 67.939 73.052V74.521C67.939 75.4053 68.6543 76.1207 69.5386 76.1207C70.4207 76.1207 71.136 75.4053 71.136 74.521V73.8353C71.136 72.8167 71.9617 71.991 72.9803 71.991C73.9989 71.991 74.8413 72.8175 74.7842 73.8345C74.735 74.7105 74.6307 75.7029 74.4121 76.3401ZM71.136 63.7844C71.136 62.9023 70.4207 62.1848 69.5386 62.1848C68.6543 62.1848 67.939 62.9023 67.939 63.7844V64.9485C67.939 65.8313 68.6547 66.547 69.5375 66.547C70.4203 66.547 71.136 65.8313 71.136 64.9485V63.7844ZM57.5162 62.9043C57.3318 62.4457 56.9369 62.2175 56.441 62.1692C55.8595 62.1122 55.3943 62.347 54.973 62.72C54.7506 62.9135 54.7273 63.237 54.7276 63.5318L54.736 74.9289V75.0281C54.736 75.1532 54.7699 75.2802 54.8523 75.3744C55.1946 75.7452 55.594 76.0392 56.1052 76.1446C56.9478 76.3179 57.5425 75.9668 57.7071 75.1857C57.7488 74.9904 57.7729 74.7885 57.7729 74.5888C57.7773 71.0626 57.7839 67.5386 57.7663 64.0146C57.7641 63.6416 57.6544 63.2532 57.5162 62.9043Z" fill="white"/>
<path d="M64.847 20.8435C65.86 20.8435 66.6811 21.6647 66.6811 22.6776L66.6802 38.8129C66.6801 39.825 65.8596 40.6455 64.8474 40.6455H63.6383C63.2919 40.6455 63.0114 40.3644 63.0121 40.0181C63.0132 39.4619 62.3593 39.1977 61.9461 39.5699C61.925 39.5888 61.9039 39.6076 61.8827 39.6263C61.2082 40.2205 60.4442 40.6635 59.5504 40.8384C58.1784 41.1068 57.0097 40.673 56.5721 39.252C56.4264 38.7786 56.3384 38.2685 56.3347 37.7743V22.6643C56.3347 21.6587 57.1499 20.8435 58.1555 20.8435C59.1611 20.8435 59.9763 21.6587 59.9763 22.6643V35.9447C59.9763 36.1449 59.9924 36.3472 60.0275 36.5433C60.1381 37.1656 60.598 37.4586 61.1972 37.2508C61.9277 36.998 62.4851 36.4922 62.9579 35.8962C63.0251 35.8111 63.013 35.6522 63.013 35.5274V22.6775C63.013 21.6646 63.8341 20.8435 64.847 20.8435Z" fill="white"/>
<path d="M36.3332 24.2846C36.3327 24.2846 36.3323 24.2843 36.3322 24.2838C35.7649 21.8926 34.7554 17.6101 34.2213 15.3429C34.0135 14.4608 33.2267 13.8394 32.3205 13.8394C31.0111 13.8394 30.0717 15.0998 30.4498 16.3535C31.4886 19.7977 33.3386 25.9304 34.3343 29.2236C34.3859 29.3952 34.4096 29.5815 34.4096 29.7612L34.4083 38.7162C34.4082 39.7794 35.27 40.6413 36.3332 40.6413C37.3964 40.6413 38.2582 39.7794 38.2581 38.7162L38.2568 29.7612C38.2568 29.5815 38.2805 29.3952 38.3321 29.2236C39.3278 25.9304 41.1777 19.7978 42.2165 16.3535C42.5946 15.0998 41.6553 13.8394 40.3458 13.8394C39.4396 13.8394 38.6529 14.4608 38.445 15.3429C37.9108 17.6101 36.9013 21.8926 36.3341 24.2838C36.334 24.2843 36.3336 24.2846 36.3332 24.2846Z" fill="white"/>
<path d="M48.0003 20.3479C45.0985 20.3479 42.7463 22.7002 42.7463 25.6019V35.884C42.7463 38.7858 45.0985 41.138 48.0003 41.138C50.902 41.138 53.2542 38.7858 53.2542 35.884V25.6019C53.2544 22.7002 50.902 20.3479 48.0003 20.3479ZM49.5165 36.0916C49.5165 36.9276 48.8363 37.6076 48.0005 37.6076C47.1647 37.6076 46.4844 36.9276 46.4844 36.0916V25.3941C46.4844 24.5581 47.1647 23.8781 48.0005 23.8781C48.8363 23.8781 49.5165 24.5583 49.5165 25.3941V36.0916Z" fill="white"/>
</svg>
