<svg width="100" height="100" viewBox="0 0 100 100" fill="none" xmlns="http://www.w3.org/2000/svg">
<path d="M49.9989 40.0566C44.5176 40.0566 40.0544 44.5176 40.0544 49.9989C40.0544 55.4824 44.5176 59.9456 49.9989 59.9456C55.4824 59.9456 59.9434 55.4824 59.9434 49.9989C59.9434 44.5176 55.4824 40.0566 49.9989 40.0566ZM49.9989 40.0566C44.5176 40.0566 40.0544 44.5176 40.0544 49.9989C40.0544 55.4824 44.5176 59.9456 49.9989 59.9456C55.4824 59.9456 59.9434 55.4824 59.9434 49.9989C59.9434 44.5176 55.4824 40.0566 49.9989 40.0566ZM66.5657 23.8431H33.4343C28.146 23.8431 23.8431 28.146 23.8431 33.4343V66.5657C23.8431 71.8539 28.146 76.1569 33.4343 76.1569H66.5657C71.8539 76.1569 76.1569 71.8539 76.1569 66.5657V33.4343C76.1569 28.146 71.8539 23.8431 66.5657 23.8431ZM49.9989 67.2218C40.5042 67.2218 32.7782 59.4958 32.7782 49.9989C32.7782 40.5042 40.5042 32.7782 49.9989 32.7782C59.4958 32.7782 67.2218 40.5042 67.2218 49.9989C67.2218 59.4958 59.4958 67.2218 49.9989 67.2218ZM67.7748 36.3395C65.5278 36.3395 63.7 34.5117 63.7 32.2647C63.7 30.0178 65.5278 28.1899 67.7748 28.1899C70.0217 28.1899 71.8496 30.0178 71.8496 32.2647C71.8496 34.5117 70.0217 36.3395 67.7748 36.3395ZM49.9989 40.0566C44.5176 40.0566 40.0544 44.5176 40.0544 49.9989C40.0544 55.4824 44.5176 59.9456 49.9989 59.9456C55.4824 59.9456 59.9434 55.4824 59.9434 49.9989C59.9434 44.5176 55.4824 40.0566 49.9989 40.0566ZM66.5657 23.8431H33.4343C28.146 23.8431 23.8431 28.146 23.8431 33.4343V66.5657C23.8431 71.8539 28.146 76.1569 33.4343 76.1569H66.5657C71.8539 76.1569 76.1569 71.8539 76.1569 66.5657V33.4343C76.1569 28.146 71.8539 23.8431 66.5657 23.8431ZM49.9989 67.2218C40.5042 67.2218 32.7782 59.4958 32.7782 49.9989C32.7782 40.5042 40.5042 32.7782 49.9989 32.7782C59.4958 32.7782 67.2218 40.5042 67.2218 49.9989C67.2218 59.4958 59.4958 67.2218 49.9989 67.2218ZM67.7748 36.3395C65.5278 36.3395 63.7 34.5117 63.7 32.2647C63.7 30.0178 65.5278 28.1899 67.7748 28.1899C70.0217 28.1899 71.8496 30.0178 71.8496 32.2647C71.8496 34.5117 70.0217 36.3395 67.7748 36.3395ZM49.9989 40.0566C44.5176 40.0566 40.0544 44.5176 40.0544 49.9989C40.0544 55.4824 44.5176 59.9456 49.9989 59.9456C55.4824 59.9456 59.9434 55.4824 59.9434 49.9989C59.9434 44.5176 55.4824 40.0566 49.9989 40.0566ZM20 0C8.9543 0 0 8.95431 0 20V80C0 91.0457 8.95431 100 20 100H80C91.0457 100 100 91.0457 100 80V20C100 8.9543 91.0457 0 80 0H20ZM83.4332 66.5657C83.4332 75.8673 75.8673 83.4332 66.5657 83.4332H33.4343C24.1327 83.4332 16.5668 75.8673 16.5668 66.5657V33.4343C16.5668 24.1327 24.1327 16.5668 33.4343 16.5668H66.5657C75.8673 16.5668 83.4332 24.1327 83.4332 33.4343V66.5657ZM66.5657 23.8431H33.4343C28.146 23.8431 23.8431 28.146 23.8431 33.4343V66.5657C23.8431 71.8539 28.146 76.1569 33.4343 76.1569H66.5657C71.8539 76.1569 76.1569 71.8539 76.1569 66.5657V33.4343C76.1569 28.146 71.8539 23.8431 66.5657 23.8431ZM49.9989 67.2218C40.5042 67.2218 32.7782 59.4958 32.7782 49.9989C32.7782 40.5042 40.5042 32.7782 49.9989 32.7782C59.4958 32.7782 67.2218 40.5042 67.2218 49.9989C67.2218 59.4958 59.4958 67.2218 49.9989 67.2218ZM67.7748 36.3395C65.5278 36.3395 63.7 34.5117 63.7 32.2647C63.7 30.0178 65.5278 28.1899 67.7748 28.1899C70.0217 28.1899 71.8496 30.0178 71.8496 32.2647C71.8496 34.5117 70.0217 36.3395 67.7748 36.3395ZM49.9989 40.0566C44.5176 40.0566 40.0544 44.5176 40.0544 49.9989C40.0544 55.4824 44.5176 59.9456 49.9989 59.9456C55.4824 59.9456 59.9434 55.4824 59.9434 49.9989C59.9434 44.5176 55.4824 40.0566 49.9989 40.0566ZM49.9989 40.0566C44.5176 40.0566 40.0544 44.5176 40.0544 49.9989C40.0544 55.4824 44.5176 59.9456 49.9989 59.9456C55.4824 59.9456 59.9434 55.4824 59.9434 49.9989C59.9434 44.5176 55.4824 40.0566 49.9989 40.0566ZM49.9989 40.0566C44.5176 40.0566 40.0544 44.5176 40.0544 49.9989C40.0544 55.4824 44.5176 59.9456 49.9989 59.9456C55.4824 59.9456 59.9434 55.4824 59.9434 49.9989C59.9434 44.5176 55.4824 40.0566 49.9989 40.0566ZM66.5657 23.8431H33.4343C28.146 23.8431 23.8431 28.146 23.8431 33.4343V66.5657C23.8431 71.8539 28.146 76.1569 33.4343 76.1569H66.5657C71.8539 76.1569 76.1569 71.8539 76.1569 66.5657V33.4343C76.1569 28.146 71.8539 23.8431 66.5657 23.8431ZM49.9989 67.2218C40.5042 67.2218 32.7782 59.4958 32.7782 49.9989C32.7782 40.5042 40.5042 32.7782 49.9989 32.7782C59.4958 32.7782 67.2218 40.5042 67.2218 49.9989C67.2218 59.4958 59.4958 67.2218 49.9989 67.2218ZM67.7748 36.3395C65.5278 36.3395 63.7 34.5117 63.7 32.2647C63.7 30.0178 65.5278 28.1899 67.7748 28.1899C70.0217 28.1899 71.8496 30.0178 71.8496 32.2647C71.8496 34.5117 70.0217 36.3395 67.7748 36.3395ZM49.9989 40.0566C44.5176 40.0566 40.0544 44.5176 40.0544 49.9989C40.0544 55.4824 44.5176 59.9456 49.9989 59.9456C55.4824 59.9456 59.9434 55.4824 59.9434 49.9989C59.9434 44.5176 55.4824 40.0566 49.9989 40.0566ZM49.9989 40.0566C44.5176 40.0566 40.0544 44.5176 40.0544 49.9989C40.0544 55.4824 44.5176 59.9456 49.9989 59.9456C55.4824 59.9456 59.9434 55.4824 59.9434 49.9989C59.9434 44.5176 55.4824 40.0566 49.9989 40.0566ZM49.9989 40.0566C44.5176 40.0566 40.0544 44.5176 40.0544 49.9989C40.0544 55.4824 44.5176 59.9456 49.9989 59.9456C55.4824 59.9456 59.9434 55.4824 59.9434 49.9989C59.9434 44.5176 55.4824 40.0566 49.9989 40.0566ZM66.5657 23.8431H33.4343C28.146 23.8431 23.8431 28.146 23.8431 33.4343V66.5657C23.8431 71.8539 28.146 76.1569 33.4343 76.1569H66.5657C71.8539 76.1569 76.1569 71.8539 76.1569 66.5657V33.4343C76.1569 28.146 71.8539 23.8431 66.5657 23.8431ZM49.9989 67.2218C40.5042 67.2218 32.7782 59.4958 32.7782 49.9989C32.7782 40.5042 40.5042 32.7782 49.9989 32.7782C59.4958 32.7782 67.2218 40.5042 67.2218 49.9989C67.2218 59.4958 59.4958 67.2218 49.9989 67.2218ZM67.7748 36.3395C65.5278 36.3395 63.7 34.5117 63.7 32.2647C63.7 30.0178 65.5278 28.1899 67.7748 28.1899C70.0217 28.1899 71.8496 30.0178 71.8496 32.2647C71.8496 34.5117 70.0217 36.3395 67.7748 36.3395ZM49.9989 40.0566C44.5176 40.0566 40.0544 44.5176 40.0544 49.9989C40.0544 55.4824 44.5176 59.9456 49.9989 59.9456C55.4824 59.9456 59.9434 55.4824 59.9434 49.9989C59.9434 44.5176 55.4824 40.0566 49.9989 40.0566Z" fill="#C536A4"/>
</svg>
