<svg width="100" height="100" viewBox="0 0 100 100" fill="none" xmlns="http://www.w3.org/2000/svg">
<path d="M80 0H20C8.95431 0 0 8.9543 0 20V80C0 91.0457 8.9543 100 20 100H80C91.0457 100 100 91.0457 100 80V20C100 8.95431 91.0457 0 80 0Z" fill="#44678D"/>
<path d="M25.9057 30.4324C28.3022 36.3508 31.3396 41.9309 35.3399 46.9402C35.8705 47.6068 36.5393 48.1995 37.2439 48.682C38.273 49.3888 39.244 49.1404 39.6625 47.9632C40.105 46.7278 40.5112 44.2241 40.5353 42.9269C40.6014 39.5372 40.5255 37.3157 40.3433 33.9301C40.2253 31.7617 39.4544 29.8578 36.2648 29.2831C35.2798 29.1049 35.1883 28.2941 35.8212 27.4853C37.1386 25.8014 38.9739 25.5331 40.9641 25.4269C44.1897 25.2526 47.4271 25.3948 50.6567 25.4269C51.9721 25.4389 53.2955 25.5449 54.591 25.8273C56.2808 26.1957 57.1857 27.3811 57.4642 29.0307C57.6083 29.8817 57.6825 30.7565 57.6623 31.6176C57.5783 35.3176 57.4001 39.0156 57.358 42.7136C57.34 44.1651 57.446 45.6528 57.7565 47.0664C58.1909 49.0364 59.5323 49.531 60.9039 48.1076C62.6458 46.2997 64.1815 44.2654 65.6229 42.1992C68.2418 38.4411 70.1978 34.3167 71.8817 30.0642C72.7526 27.87 73.4194 27.3934 75.7798 27.3874C80.2166 27.3773 84.6535 27.3734 89.0903 27.3874C89.8772 27.3914 90.7 27.4656 91.4428 27.7019C92.6481 28.0863 93.1267 29.0694 92.8443 30.3168C92.1855 33.24 90.6059 35.7246 88.9141 38.1133C86.1991 41.9454 83.354 45.6855 80.5752 49.4735C80.2208 49.956 79.9086 50.4706 79.618 50.993C78.5788 52.8711 78.651 53.9241 80.1666 55.4878C82.5792 57.9765 85.1621 60.3049 87.4986 62.8617C89.1965 64.7217 90.7681 66.7398 92.1136 68.8641C93.8155 71.551 92.7642 74.0816 89.5849 74.5321C87.5848 74.8145 77.8146 74.5343 77.3097 74.5321C74.6829 74.5203 72.3804 73.6092 70.5263 71.8253C68.4641 69.8392 66.59 67.6608 64.6098 65.5885C64.0132 64.9638 63.3764 64.3652 62.6899 63.8425C61.07 62.6071 59.4803 62.8814 58.7235 64.7836C58.0768 66.4175 57.5182 70.708 57.4921 71.0744C57.356 72.9904 56.1367 74.2118 53.9902 74.3298C47.7936 74.6662 41.7889 73.9754 36.1951 70.9783C31.4539 68.4395 27.6679 64.8497 24.3883 60.6632C19.1787 54.0137 15.0637 46.7043 11.3069 39.1804C11.1149 38.7957 7.30981 30.6988 7.20756 30.3164C6.86767 29.0358 7.18474 27.8125 8.26674 27.3914C8.94126 27.129 21.4868 27.3905 21.6955 27.4017C23.6973 27.5101 25.0624 28.3547 25.9057 30.4324Z" fill="white"/>
</svg>
