<svg width="100" height="100" viewBox="0 0 100 100" fill="none" xmlns="http://www.w3.org/2000/svg">
<path d="M80 0H20C8.95431 0 0 8.9543 0 20V80C0 91.0457 8.9543 100 20 100H80C91.0457 100 100 91.0457 100 80V20C100 8.95431 91.0457 0 80 0Z" fill="#61A8DE"/>
<path d="M78.7404 22.0744L11.8691 48.1335C9.70314 48.9776 9.83435 52.0858 12.064 52.7441L18.8458 54.7467C25.229 56.6317 30.2563 61.5685 32.2568 67.9164L35.3983 77.8848C36.0608 79.9867 38.7244 80.6239 40.2663 79.0495C45.3074 73.9023 53.3663 73.2456 59.1741 77.5087L66.2903 82.7322C68.3998 84.2807 71.4042 83.1302 71.9399 80.5688L83.3569 25.984C83.916 23.3103 81.2855 21.0826 78.7404 22.0744ZM70.3565 34.1882L39.2952 61.6557C38.9855 61.9295 38.7885 62.3085 38.7424 62.7193L37.5465 73.3501C37.5075 73.6968 37.0223 73.7426 36.9188 73.4095L31.9985 57.5552C31.7732 56.8294 32.067 56.0429 32.7128 55.6425L69.393 32.8931C70.2364 32.3696 71.1001 33.5308 70.3565 34.1882Z" fill="white"/>
</svg>
